# This file uses centimeters as units for non-parametric coordinates.

mtllib puertados.mtl
g default
v -0.011172 -1.632221 -0.054544
v 0.097889 -1.632221 -0.054544
v -0.011172 -1.632221 0.010285
v -0.011172 -1.530041 -0.054544
v -0.011172 -1.608312 0.025455
v 0.097889 -1.506132 0.025455
v -0.011172 -1.506132 0.025455
v 2.288750 -1.632221 -0.054544
v 0.097889 -1.632221 0.025455
v 0.097889 -1.506132 -0.054544
v -0.011172 0.933235 -0.054544
v -0.011172 -1.506132 -0.054544
v 2.288750 -1.506132 0.025455
v 2.288750 -1.632221 0.025455
v 2.288750 -1.506132 -0.054544
v 0.097889 1.504016 -0.054544
v 2.390309 -1.632221 -0.054544
v 2.390309 -1.632221 0.025455
v -0.011172 -0.935351 0.025455
v 0.097889 1.504016 0.025455
v -0.011172 1.504016 0.025455
v 2.390309 -1.506132 -0.054544
v 2.402757 -1.632221 0.025455
v 2.402757 -1.632221 0.016086
v 2.390309 -1.506132 0.025455
v 2.402757 -1.617454 0.025455
v 2.402757 -1.520899 -0.054544
v 2.402757 -1.506132 -0.054544
v 2.402757 -1.153607 0.025455
v 2.402757 -1.506132 0.025455
v 2.288750 1.504016 0.025455
v -0.011172 1.607553 -0.054544
v -0.011172 1.504016 -0.054544
v -0.011172 1.631779 0.010285
v 0.097889 1.631779 -0.054544
v -0.011172 1.631779 -0.054544
v -0.011172 1.528242 0.025455
v 0.097889 1.631779 0.025455
v -0.011172 1.631779 0.025455
v 2.288750 1.504016 -0.054544
v 2.390309 1.504016 0.025455
v -0.011172 -1.632221 0.025455
v 2.288750 1.631779 -0.054544
v 2.288750 1.631779 0.025455
v 2.390309 1.504016 -0.054544
v 2.402757 1.151491 -0.054544
v 2.402757 1.504016 -0.054544
v 2.390309 1.631779 -0.054544
v 2.390309 1.631779 0.025455
v 2.402757 1.518979 0.025455
v 2.402757 1.504016 0.025455
v 2.402757 1.616816 -0.054544
v 2.402757 1.631779 -0.054544
v 2.402757 1.631779 0.016086
v 2.402757 1.631779 0.025455
v 2.402757 -1.632221 -0.054544
vt 0.429740 0.750000
vt 0.450000 0.750000
vt 0.429740 0.952595
vt 0.214110 0.092813
vt 0.227094 0.065616
vt 0.214110 0.065616
vt 0.429740 0.015802
vt 0.450000 0.083333
vt 0.429740 0.083333
vt 0.475000 0.750000
vt 0.450000 1.000000
vt 0.227094 0.099177
vt 0.487910 0.065616
vt 0.214110 0.748454
vt 0.214110 0.099177
vt 0.450000 0.000000
vt 0.475000 0.083333
vt 0.475000 1.000000
vt 0.487910 0.099177
vt 0.475000 0.000000
vt 0.559533 0.010558
vt 0.559533 1.010558
vt 0.938581 0.010558
vt 0.500000 0.750000
vt 0.500000 0.065616
vt 0.500000 1.000000
vt 0.429740 0.099135
vt 0.450000 0.166667
vt 0.429740 0.166667
vt 0.500000 0.099177
vt 0.502928 1.000000
vt 0.502928 0.970722
vt 0.500000 0.083333
vt 0.500000 0.000000
vt 0.502928 0.009759
vt 0.502928 0.000000
vt 0.501482 0.095247
vt 0.501482 0.099177
vt 0.502928 0.093092
vt 0.502928 0.083333
vt 0.385595 0.786880
vt 0.034893 0.151661
vt 0.385595 0.151661
vt 0.034893 0.786880
vt 0.214110 0.927936
vt 0.227094 0.900377
vt 0.214110 0.900377
vt 0.429740 0.297405
vt 0.450000 0.500000
vt 0.429740 0.500000
vt 0.429740 0.182469
vt 0.450000 0.250000
vt 0.429740 0.250000
vt 0.487910 0.900377
vt 0.500000 0.166667
vt 0.938581 1.010558
vt 0.429740 1.000000
vt 0.429740 0.000000
vt 0.227094 0.934384
vt 0.475000 0.500000
vt 0.475000 0.250000
vt 0.500000 0.900377
vt 0.475000 0.166667
vt 0.487910 0.934384
vt 0.501482 0.806547
vt 0.501482 0.900377
vt 0.500000 0.934384
vt 0.500000 0.500000
vt 0.500000 0.250000
vt 0.502928 0.176426
vt 0.502928 0.166667
vt 0.501482 0.930401
vt 0.501482 0.934384
vt 0.502928 0.279278
vt 0.502928 0.250000
vt 0.502928 0.750000
vt 0.501482 0.065616
vt 0.214110 0.934384
vt 0.502928 0.500000
vt 0.692008 0.205893
vt 0.692008 0.205297
vt 0.692008 0.202750
vt 0.692008 0.188710
vt 0.692008 0.128706
vt 0.692008 0.128118
vt 0.692008 0.125604
vt 0.685290 0.125605
vt 0.683719 0.125604
vt 0.683719 0.126193
vt 0.683719 0.128706
vt 0.683719 0.142746
vt 0.683719 0.202750
vt 0.683719 0.203346
vt 0.683719 0.205893
vt 0.685290 0.205893
vt 0.209975 0.119559
vt 0.209975 0.115729
vt 0.209975 0.115221
vt 0.209468 0.115221
vt 0.205652 0.115221
vt 0.205652 0.119051
vt 0.205652 0.119559
vt 0.205652 0.210999
vt 0.205652 0.223128
vt 0.205652 0.227009
vt 0.205652 0.227524
vt 0.209468 0.227524
vt 0.209975 0.227524
vt 0.209975 0.223643
vt 0.209975 0.223128
vt 0.209975 0.131688
vn 0.000000 -1.000000 0.000000
vn 0.000000 -1.000000 0.000000
vn 0.000000 -1.000000 0.000000
vn 0.000000 0.000000 -1.000000
vn 0.000000 0.000000 -1.000000
vn 0.000000 0.000000 -1.000000
vn 0.000000 0.000000 1.000000
vn 0.000000 0.000000 1.000000
vn 0.000000 0.000000 1.000000
vn 0.000000 -1.000000 0.000000
vn 0.000000 -1.000000 0.000000
vn 0.000000 -1.000000 0.000000
vn 0.000000 0.000000 -1.000000
vn 0.000000 0.000000 -1.000000
vn 0.000000 0.000000 -1.000000
vn 0.000000 0.000000 -1.000000
vn 0.000000 0.000000 -1.000000
vn 0.000000 0.000000 -1.000000
vn 0.000000 0.000000 1.000000
vn 0.000000 0.000000 1.000000
vn 0.000000 0.000000 1.000000
vn 0.000000 -1.000000 0.000000
vn 0.000000 -1.000000 0.000000
vn 0.000000 -1.000000 0.000000
vn 0.000000 0.000000 -1.000000
vn 0.000000 0.000000 -1.000000
vn 0.000000 0.000000 -1.000000
vn 0.000000 0.000000 1.000000
vn 0.000000 0.000000 1.000000
vn 0.000000 0.000000 1.000000
vn 0.000000 0.000000 -1.000000
vn 0.000000 0.000000 -1.000000
vn 0.000000 0.000000 -1.000000
vn 0.000000 -1.000000 0.000000
vn 0.000000 -1.000000 0.000000
vn 0.000000 -1.000000 0.000000
vn 0.000000 0.000000 -1.000000
vn 0.000000 0.000000 -1.000000
vn 0.000000 0.000000 -1.000000
vn 0.000000 -1.000000 0.000000
vn 0.000000 -1.000000 0.000000
vn 0.000000 -1.000000 0.000000
vn 0.000000 0.000000 1.000000
vn 0.000000 0.000000 1.000000
vn 0.000000 0.000000 1.000000
vn 0.000000 0.000000 -1.000000
vn 0.000000 0.000000 -1.000000
vn 0.000000 0.000000 -1.000000
vn 0.000000 -1.000000 0.000000
vn 0.000000 -1.000000 0.000000
vn 0.000000 -1.000000 0.000000
vn 0.000000 0.000000 1.000000
vn 0.000000 0.000000 1.000000
vn 0.000000 0.000000 1.000000
vn 0.000000 0.000000 1.000000
vn 0.000000 0.000000 1.000000
vn 0.000000 0.000000 1.000000
vn 0.000000 0.000000 1.000000
vn 0.000000 0.000000 1.000000
vn 0.000000 0.000000 1.000000
vn 0.000000 0.000000 -1.000000
vn 0.000000 0.000000 -1.000000
vn 0.000000 0.000000 -1.000000
vn 0.000000 0.000000 1.000000
vn 0.000000 0.000000 1.000000
vn 0.000000 0.000000 1.000000
vn 0.000000 0.000000 1.000000
vn 0.000000 0.000000 1.000000
vn 0.000000 0.000000 1.000000
vn 0.000000 0.000000 1.000000
vn 0.000000 0.000000 1.000000
vn 0.000000 0.000000 1.000000
vn 0.000000 0.000000 -1.000000
vn 0.000000 0.000000 -1.000000
vn 0.000000 0.000000 -1.000000
vn 0.000000 1.000000 0.000000
vn 0.000000 1.000000 0.000000
vn 0.000000 1.000000 0.000000
vn 0.000000 0.000000 1.000000
vn 0.000000 0.000000 1.000000
vn 0.000000 0.000000 1.000000
vn 0.000000 0.000000 -1.000000
vn 0.000000 0.000000 -1.000000
vn 0.000000 0.000000 -1.000000
vn 0.000000 0.000000 1.000000
vn 0.000000 0.000000 1.000000
vn 0.000000 0.000000 1.000000
vn 0.000000 0.000000 -1.000000
vn 0.000000 0.000000 -1.000000
vn 0.000000 0.000000 -1.000000
vn 0.000000 -1.000000 0.000000
vn 0.000000 -1.000000 0.000000
vn 0.000000 0.000000 1.000000
vn 0.000000 0.000000 1.000000
vn 0.000000 0.000000 -1.000000
vn 0.000000 0.000000 -1.000000
vn 0.000000 0.000000 -1.000000
vn 0.000000 1.000000 0.000000
vn 0.000000 1.000000 0.000000
vn 0.000000 1.000000 0.000000
vn 0.000000 0.000000 1.000000
vn 0.000000 0.000000 1.000000
vn 0.000000 0.000000 1.000000
vn 0.000000 0.000000 -1.000000
vn 0.000000 0.000000 -1.000000
vn 0.000000 0.000000 -1.000000
vn 0.000000 0.000000 1.000000
vn 0.000000 0.000000 1.000000
vn 0.000000 0.000000 1.000000
vn 0.000000 0.000000 -1.000000
vn 0.000000 0.000000 -1.000000
vn 0.000000 0.000000 -1.000000
vn 0.000000 0.000000 1.000000
vn 0.000000 0.000000 1.000000
vn 0.000000 0.000000 1.000000
vn 0.000000 1.000000 0.000000
vn 0.000000 1.000000 0.000000
vn 0.000000 1.000000 0.000000
vn 0.000000 0.000000 -1.000000
vn 0.000000 0.000000 -1.000000
vn 0.000000 0.000000 -1.000000
vn 0.000000 0.000000 -1.000000
vn 0.000000 0.000000 -1.000000
vn 0.000000 0.000000 -1.000000
vn 0.000000 0.000000 -1.000000
vn 0.000000 0.000000 -1.000000
vn 0.000000 0.000000 -1.000000
vn 0.000000 1.000000 0.000000
vn 0.000000 1.000000 0.000000
vn 0.000000 1.000000 0.000000
vn 0.000000 0.000000 1.000000
vn 0.000000 0.000000 1.000000
vn 0.000000 0.000000 1.000000
vn 0.000000 0.000000 1.000000
vn 0.000000 0.000000 1.000000
vn 0.000000 0.000000 1.000000
vn 0.000000 0.000000 1.000000
vn 0.000000 0.000000 1.000000
vn 0.000000 0.000000 1.000000
vn 0.000000 0.000000 -1.000000
vn 0.000000 0.000000 -1.000000
vn 0.000000 0.000000 -1.000000
vn 0.000000 1.000000 0.000000
vn 0.000000 1.000000 0.000000
vn 0.000000 1.000000 0.000000
vn 0.000000 1.000000 0.000000
vn 0.000000 1.000000 0.000000
vn 0.000000 1.000000 0.000000
vn 0.000000 -1.000000 0.000000
vn 0.000000 -1.000000 0.000000
vn 0.000000 0.000000 -1.000000
vn 0.000000 0.000000 -1.000000
vn 0.000000 0.000000 -1.000000
vn 0.000000 0.000000 -1.000000
vn 0.000000 1.000000 0.000000
vn 0.000000 1.000000 0.000000
vn 0.000000 0.000000 1.000000
vn 0.000000 0.000000 1.000000
vn 0.000000 1.000000 0.000000
vn 0.000000 1.000000 0.000000
vn -1.000000 0.000000 0.000000
vn -1.000000 0.000000 0.000000
vn -1.000000 0.000000 0.000000
vn -1.000000 0.000000 0.000000
vn -1.000000 0.000000 0.000000
vn -1.000000 0.000000 0.000000
vn -1.000000 0.000000 0.000000
vn -1.000000 0.000000 0.000000
vn -1.000000 0.000000 0.000000
vn -1.000000 0.000000 0.000000
vn -1.000000 0.000000 0.000000
vn -1.000000 0.000000 0.000000
vn -1.000000 0.000000 0.000000
vn -1.000000 0.000000 0.000000
vn -1.000000 0.000000 0.000000
vn -1.000000 0.000000 0.000000
vn 1.000000 -0.000000 0.000000
vn 1.000000 -0.000000 0.000000
vn 1.000000 -0.000000 0.000000
vn 1.000000 -0.000000 0.000000
vn 1.000000 -0.000000 0.000000
vn 1.000000 -0.000000 0.000000
vn 1.000000 -0.000000 0.000000
vn 1.000000 -0.000000 0.000000
vn 1.000000 -0.000000 0.000000
vn 1.000000 -0.000000 0.000000
vn 1.000000 -0.000000 0.000000
vn 1.000000 -0.000000 0.000000
vn 1.000000 -0.000000 0.000000
vn 1.000000 -0.000000 0.000000
vn 1.000000 -0.000000 0.000000
vn 1.000000 -0.000000 0.000000
s 1
g pasted__FachadaFinal_pCube7
usemtl pasted__FachadaFinal_lambert28SG6
f 1/1/1 2/2/2 3/3/3
s 2
f 4/4/4 2/5/5 1/6/6
s 3
f 5/7/7 6/8/8 7/9/9
s off
f 2/2/10 8/10/11 9/11/12
f 2/5/13 10/12/14 8/13/15
s 2
f 11/14/16 10/12/17 12/15/18
s off
f 6/8/19 9/16/20 13/17/21
f 9/11/22 8/10/23 14/18/24
f 8/13/25 10/12/26 15/19/27
f 13/17/28 9/16/29 14/20/30
usemtl pasted__FachadaFinal_lambert30SG10
f 10/21/31 16/22/32 15/23/33
usemtl pasted__FachadaFinal_lambert28SG6
f 8/10/34 17/24/35 14/18/36
f 8/13/37 15/19/38 17/25/39
f 14/18/40 17/24/41 18/26/42
s 3
f 19/27/43 20/28/44 21/29/45
s off
f 17/25/46 15/19/47 22/30/48
s 5
f 23/31/49 18/26/50 24/32/51
s off
f 25/33/52 14/20/53 18/34/54
s 6
f 26/35/55 18/34/56 23/36/57
s off
f 13/17/58 14/20/59 25/33/60
s 7
f 27/37/61 22/30/62 28/38/63
s 6
f 29/39/64 25/33/65 30/40/66
s off
usemtl pasted__FachadaFinal_lambert34SG6
f 31/41/67 6/42/68 13/43/69
f 20/44/70 6/42/71 31/41/72
s 2
usemtl pasted__FachadaFinal_lambert28SG6
f 32/45/73 16/46/74 33/47/75
s 10
f 34/48/76 35/49/77 36/50/78
s 3
f 37/51/79 38/52/80 39/53/81
s off
f 15/19/82 40/54/83 22/30/84
f 41/55/85 13/17/86 25/33/87
usemtl pasted__FachadaFinal_lambert30SG10
f 15/23/88 16/22/89 40/56/90
s 1
usemtl pasted__FachadaFinal_lambert28SG6
f 3/3/3 2/2/2 9/11/91 42/57/92
s 2
f 12/15/18 10/12/17 2/5/5 4/4/4
s 3
f 42/58/93 9/16/94 6/8/8 5/7/7
s off
f 16/46/95 35/59/96 40/54/97
f 35/49/98 38/52/99 43/60/100
f 38/52/101 20/28/102 44/61/103
f 22/30/104 40/54/105 45/62/106
f 31/63/107 13/17/108 41/55/109
f 40/54/110 35/59/111 43/64/112
f 44/61/113 20/28/114 31/63/115
f 43/60/116 38/52/117 44/61/118
s 7
f 46/65/119 45/62/120 47/66/121
s off
f 40/54/122 43/64/123 45/62/124
f 45/62/125 43/64/126 48/67/127
f 43/60/128 44/61/129 48/68/130
f 49/69/131 31/63/132 41/55/133
s 6
f 50/70/134 41/55/135 51/71/136
s off
f 44/61/137 31/63/138 49/69/139
s 7
f 52/72/140 48/67/141 53/73/142
s off
f 48/68/143 44/61/144 49/69/145
s 3
f 7/9/9 6/8/8 20/28/44 19/27/43
s 12
f 54/74/146 49/69/147 55/75/148
s 2
f 33/47/75 16/46/74 10/12/17 11/14/16
s 5
f 24/32/51 18/26/50 17/24/149 56/76/150
s 7
f 56/77/151 17/25/152 22/30/62 27/37/61
s 6
f 30/40/66 25/33/65 18/34/56 26/35/55
s 2
f 36/78/153 35/59/154 16/46/74 32/45/73
s 3
f 21/29/45 20/28/44 38/52/80 37/51/79
s 10
f 39/53/155 38/52/156 35/49/77 34/48/76
s 7
f 28/38/63 22/30/62 45/62/120 46/65/119
s 6
f 51/71/136 41/55/135 25/33/65 29/39/64
s 7
f 47/66/121 45/62/120 48/67/141 52/72/140
s 6
f 55/75/157 49/69/158 41/55/135 50/70/134
s 12
f 53/79/159 48/68/160 49/69/147 54/74/146
s off
usemtl initialShadingGroup
f 36/80/161 32/81/162 33/82/163 11/83/164 12/84/165 4/85/166 1/86/167 3/87/168 42/88/169 5/89/170 7/90/171 19/91/172 21/92/173 37/93/174 39/94/175 34/95/176
f 30/96/177 26/97/178 23/98/179 24/99/180 56/100/181 27/101/182 28/102/183 46/103/184 47/104/185 52/105/186 53/106/187 54/107/188 55/108/189 50/109/190 51/110/191 29/111/192
