# This file uses centimeters as units for non-parametric coordinates.

mtllib puertaTres.mtl
g default
v 2.429617 1.647845 0.048486
v 2.427124 1.647845 0.050450
v 2.429617 1.647845 0.050450
v 2.427124 1.647845 -0.029551
v 2.320832 1.647845 0.050450
v 2.429617 1.644709 -0.029551
v 2.429617 1.647845 -0.029551
v 2.320832 1.520081 0.050450
v 2.427124 1.520081 0.050450
v 2.320832 1.647845 -0.029551
v 2.429617 1.523218 0.050450
v 2.429617 1.520081 0.050450
v 2.427124 1.520081 -0.029551
v 2.429617 1.446185 -0.029551
v 2.429617 1.520081 -0.029551
v 2.320832 1.520081 -0.029551
v 0.122993 1.647845 0.050450
v 0.122993 1.520081 0.050450
v 0.122993 1.647845 -0.029551
v 2.320832 -1.490067 0.050450
v 2.427124 -1.490067 -0.029551
v 0.122993 1.520081 -0.029551
v 2.320832 -1.490067 -0.029551
v 2.427124 -1.490067 0.050450
v 0.009510 1.529839 0.050450
v 0.009510 1.647845 0.050450
v 0.009510 1.647845 0.044341
v 0.009510 1.647845 -0.029551
v 0.009510 1.638088 -0.029551
v 0.009510 1.520081 -0.029551
v 0.122993 -1.490067 0.050450
v 2.429617 -1.416170 0.050450
v 2.429617 -1.490067 0.050450
v 2.429617 -1.493162 -0.029551
v 2.429617 -1.490067 -0.029551
v 2.320832 -1.616155 0.050450
v 2.427124 -1.616155 0.050450
v 2.429617 -1.613059 0.050450
v 2.429617 -1.616155 0.050450
v 2.429617 -1.616155 0.048486
v 2.427124 -1.616155 -0.029551
v 2.320832 -1.616155 -0.029551
v 0.009510 -1.260173 0.050450
v 0.009510 1.520081 0.050450
v 0.122993 -1.490067 -0.029551
v 0.122993 -1.616155 0.050450
v 0.009510 1.290188 -0.029551
v 0.009510 -1.490067 -0.029551
v 0.122993 -1.616155 -0.029551
v 0.009510 -1.606525 0.050450
v 0.009510 -1.490067 0.050450
v 0.009510 -1.499696 -0.029551
v 0.009510 -1.616155 -0.029551
v 0.009510 -1.616155 0.044341
v 2.429617 -1.616155 -0.029551
v 0.009510 -1.616155 0.050450
vt 0.499386 0.493863
vt 0.500000 0.500000
vt 0.499386 0.500000
vt 0.500000 0.250000
vt 0.525000 0.500000
vt 0.499386 0.247954
vt 0.499386 0.250000
vt 0.512654 0.900377
vt 0.500000 0.934384
vt 0.512654 0.934384
vt 0.500000 0.900377
vt 0.525000 0.250000
vt 0.499703 0.901212
vt 0.499703 0.900377
vt 0.500000 0.166667
vt 0.499386 0.164621
vt 0.499386 0.166667
vt 0.525000 0.166667
vt 0.550000 0.500000
vt 0.774301 0.900377
vt 0.550000 0.250000
vt 0.512654 0.099177
vt 0.500000 0.083333
vt 0.774301 0.934384
vt 0.550000 0.166667
vt 0.175441 0.932547
vt 0.175441 0.067453
vt 0.824559 0.932547
vt 0.500000 0.099177
vt 0.525000 0.083333
vt 0.787811 0.902974
vt 0.787811 0.934384
vt 0.573091 0.480907
vt 0.573091 0.250000
vt 0.573091 0.243636
vt 0.573091 0.166667
vt 0.561084 0.167412
vt 0.941947 0.801834
vt 0.561084 0.801834
vt 0.499703 0.934384
vt 0.941947 0.167412
vt 0.499703 0.118846
vt 0.499703 0.099177
vt 0.499386 0.081287
vt 0.499386 0.083333
vt 0.512654 0.065616
vt 0.500000 0.065616
vt 0.499703 0.066440
vt 0.499703 0.065616
vt 0.499386 0.750000
vt 0.500000 0.750000
vt 0.499386 0.756137
vt 0.500000 0.000000
vt 0.525000 0.750000
vt 0.500000 1.000000
vt 0.525000 0.000000
vt 0.525000 1.000000
vt 0.787811 0.160367
vt 0.787811 0.900377
vt 0.824559 0.067453
vt 0.774301 0.065616
vt 0.550000 0.083333
vt 0.550000 0.750000
vt 0.573091 0.160303
vt 0.573091 0.083333
vt 0.774301 0.099177
vt 0.550000 0.000000
vt 0.550000 1.000000
vt 0.787811 0.068179
vt 0.787811 0.099177
vt 0.573091 0.076969
vt 0.573091 0.000000
vt 0.573091 1.000000
vt 0.573091 0.769093
vt 0.573091 0.500000
vt 0.499386 0.000000
vt 0.499386 1.000000
vt 0.787811 0.065616
vt 0.573091 0.750000
vt 0.361554 0.063788
vt 0.361554 0.229097
vt 0.361554 0.233258
vt 0.361554 0.240274
vt 0.361554 0.240451
vt 0.367166 0.240451
vt 0.367307 0.240451
vt 0.367307 0.233434
vt 0.367307 0.233258
vt 0.367307 0.067948
vt 0.367307 0.063788
vt 0.367307 0.056863
vt 0.367307 0.056689
vt 0.367166 0.056689
vt 0.361554 0.056689
vt 0.361554 0.063613
vt 0.785127 0.130823
vt 0.785127 0.126448
vt 0.777219 0.126448
vt 0.776565 0.126448
vt 0.776565 0.126809
vt 0.776565 0.131185
vt 0.776565 0.139822
vt 0.776565 0.244281
vt 0.776565 0.244647
vt 0.776565 0.249081
vt 0.777219 0.249081
vt 0.785127 0.249081
vt 0.785127 0.248714
vt 0.785127 0.244281
vt 0.785127 0.235643
vt 0.785127 0.131185
vn 0.000000 1.000000 0.000000
vn 0.000000 1.000000 0.000000
vn 0.000000 1.000000 0.000000
vn 0.000000 1.000000 0.000000
vn 0.000000 1.000000 0.000000
vn 0.000000 1.000000 0.000000
vn 0.000000 0.000000 -1.000000
vn 0.000000 0.000000 -1.000000
vn 0.000000 0.000000 -1.000000
vn 0.000000 0.000000 1.000000
vn 0.000000 0.000000 1.000000
vn 0.000000 0.000000 1.000000
vn 0.000001 0.000000 1.000000
vn 0.000000 0.000000 1.000000
vn 0.000000 0.000000 1.000000
vn 0.000000 1.000000 0.000000
vn 0.000000 1.000000 0.000000
vn 0.000000 1.000000 0.000000
vn 0.000001 -0.000000 1.000000
vn 0.000001 0.000000 1.000000
vn 0.000001 0.000000 1.000000
vn 0.000000 0.000000 -1.000000
vn 0.000000 0.000000 -1.000000
vn 0.000000 0.000000 -1.000000
vn 0.000000 0.000000 -1.000000
vn 0.000000 0.000000 -1.000000
vn 0.000000 0.000000 -1.000000
vn 0.000000 0.000000 -1.000000
vn 0.000000 0.000000 -1.000000
vn 0.000000 0.000000 -1.000000
vn 0.000000 1.000000 0.000000
vn 0.000000 1.000000 0.000000
vn 0.000000 1.000000 0.000000
vn 0.000000 0.000000 1.000000
vn 0.000000 0.000000 1.000000
vn 0.000000 0.000000 1.000000
vn 0.000000 0.000000 -1.000000
vn 0.000000 0.000000 -1.000000
vn 0.000000 0.000000 -1.000000
vn 0.000000 0.000000 1.000000
vn 0.000001 0.000000 1.000000
vn 0.000000 0.000000 1.000000
vn 0.000000 0.000000 -1.000000
vn 0.000000 0.000000 -1.000000
vn 0.000000 0.000000 -1.000000
vn 0.000000 0.000000 1.000000
vn 0.000000 0.000000 1.000000
vn 0.000000 0.000000 1.000000
vn 0.000000 1.000000 0.000000
vn 0.000000 1.000000 0.000000
vn 0.000000 1.000000 0.000000
vn 0.000000 0.000000 -1.000000
vn 0.000000 0.000000 -1.000000
vn 0.000000 0.000000 -1.000000
vn 0.000000 0.000000 -1.000000
vn 0.000000 0.000000 -1.000000
vn 0.000000 0.000000 -1.000000
vn 0.000001 0.000000 1.000000
vn 0.000001 0.000000 1.000000
vn 0.000000 0.000000 1.000000
vn 0.000000 0.000000 -1.000000
vn 0.000000 0.000000 -1.000000
vn 0.000000 0.000000 -1.000000
vn 0.000000 0.000000 1.000000
vn 0.000000 0.000000 1.000000
vn 0.000000 0.000000 1.000000
vn 0.000000 1.000000 0.000000
vn 0.000000 1.000000 0.000000
vn 0.000000 1.000000 0.000000
vn 0.000000 0.000000 -1.000000
vn 0.000000 0.000000 -1.000000
vn 0.000000 0.000000 -1.000000
vn 0.000000 0.000000 1.000000
vn 0.000000 0.000000 1.000000
vn 0.000000 0.000000 1.000000
vn 0.000000 1.000000 0.000000
vn 0.000000 1.000000 0.000000
vn 0.000000 -0.000000 1.000000
vn 0.000000 0.000000 1.000000
vn 0.000000 0.000000 1.000000
vn 0.000000 0.000000 1.000000
vn 0.000000 0.000000 1.000000
vn 0.000001 0.000000 1.000000
vn 0.000001 0.000000 1.000000
vn 0.000001 0.000000 1.000000
vn 0.000000 0.000000 -1.000000
vn 0.000000 0.000000 -1.000000
vn 0.000000 0.000000 -1.000000
vn 0.000000 0.000000 1.000000
vn 0.000001 0.000000 1.000000
vn 0.000000 0.000000 1.000000
vn 0.000000 0.000001 1.000000
vn 0.000001 0.000000 1.000000
vn 0.000000 0.000000 1.000000
vn 0.000000 0.000001 1.000000
vn 0.000000 0.000001 1.000000
vn 0.000000 0.000001 1.000000
vn 0.000000 -1.000000 0.000000
vn 0.000000 -1.000000 0.000000
vn 0.000000 -1.000000 0.000000
vn 0.000000 0.000000 -1.000000
vn 0.000000 0.000000 -1.000000
vn 0.000000 0.000000 -1.000000
vn 0.000000 -1.000000 0.000000
vn 0.000000 -1.000000 0.000000
vn 0.000000 -1.000000 0.000000
vn 0.000000 0.000000 -1.000000
vn 0.000000 0.000000 -1.000000
vn 0.000000 0.000000 -1.000000
vn 0.000000 -1.000000 0.000000
vn 0.000000 -1.000000 0.000000
vn 0.000000 -1.000000 0.000000
vn 0.000000 0.000000 1.000000
vn 0.000000 0.000000 1.000000
vn 0.000000 0.000000 1.000000
vn 0.000000 0.000000 -1.000000
vn 0.000000 0.000000 -1.000000
vn 0.000000 0.000000 -1.000000
vn 0.000000 0.000000 1.000000
vn 0.000000 0.000000 1.000000
vn 0.000000 0.000000 1.000000
vn 0.000000 0.000000 -1.000000
vn 0.000000 0.000000 -1.000000
vn 0.000000 0.000000 -1.000000
vn 0.000000 -1.000000 0.000000
vn 0.000000 -1.000000 0.000000
vn 0.000000 -1.000000 0.000000
vn 0.000000 0.000000 -1.000000
vn 0.000000 0.000000 -1.000000
vn 0.000000 0.000000 -1.000000
vn 0.000000 0.000000 1.000000
vn 0.000000 0.000000 1.000000
vn 0.000000 0.000000 1.000000
vn 0.000000 0.000000 -1.000000
vn 0.000000 0.000000 -1.000000
vn 0.000000 0.000000 -1.000000
vn 0.000000 -1.000000 0.000000
vn 0.000000 -1.000000 0.000000
vn 0.000000 -1.000000 0.000000
vn 0.000000 0.000000 1.000000
vn 0.000000 0.000000 1.000000
vn 0.000000 0.000000 1.000000
vn 0.000000 0.000000 -1.000000
vn 0.000000 0.000000 -1.000000
vn 0.000000 0.000000 -1.000000
vn 0.000000 -1.000000 0.000000
vn 0.000000 -1.000000 0.000000
vn 0.000000 -1.000000 0.000000
vn 0.000000 1.000000 0.000000
vn 0.000000 1.000000 0.000000
vn 0.000000 0.000000 -1.000000
vn 0.000000 0.000000 -1.000000
vn 0.000000 0.000000 -1.000000
vn 0.000000 0.000000 -1.000000
vn 0.000000 -1.000000 0.000000
vn 0.000000 -1.000000 0.000000
vn 0.000000 0.000000 1.000000
vn 0.000000 0.000000 1.000000
vn 0.000000 -1.000000 0.000000
vn 0.000000 -1.000000 0.000000
vn 1.000000 0.000000 0.000000
vn 1.000000 0.000000 0.000000
vn 1.000000 0.000000 0.000000
vn 1.000000 0.000000 0.000000
vn 1.000000 0.000000 0.000000
vn 1.000000 0.000000 0.000000
vn 1.000000 0.000000 0.000000
vn 1.000000 0.000000 0.000000
vn 1.000000 0.000000 0.000000
vn 1.000000 0.000000 0.000000
vn 1.000000 0.000000 0.000000
vn 1.000000 0.000000 0.000000
vn 1.000000 0.000000 0.000000
vn 1.000000 0.000000 0.000000
vn 1.000000 0.000000 0.000000
vn 1.000000 0.000000 0.000000
vn -1.000000 0.000000 0.000000
vn -1.000000 0.000000 0.000000
vn -1.000000 0.000000 0.000000
vn -1.000000 0.000000 0.000000
vn -1.000000 0.000000 0.000000
vn -1.000000 0.000000 0.000000
vn -1.000000 0.000000 0.000000
vn -1.000000 0.000000 0.000000
vn -1.000000 0.000000 0.000000
vn -1.000000 0.000000 0.000000
vn -1.000000 0.000000 0.000000
vn -1.000000 0.000000 0.000000
vn -1.000000 0.000000 0.000000
vn -1.000000 0.000000 0.000000
vn -1.000000 0.000000 0.000000
vn -1.000000 0.000000 0.000000
s 1
g pasted__FachadaFinal_pasted__pCube5group20 group13
usemtl pasted__FachadaFinal_pasted__lambert28SG6
f 1/1/1 2/2/2 3/3/3
s off
f 2/2/4 4/4/5 5/5/6
s 2
f 6/6/7 4/4/8 7/7/9
s off
f 8/8/10 2/9/11 5/10/12
f 9/11/13 2/9/14 8/8/15
f 5/5/16 4/4/17 10/12/18
s 3
f 11/13/19 9/11/20 12/14/21
s off
f 4/4/22 13/15/23 10/12/24
s 2
f 14/16/25 13/15/26 15/17/27
s off
f 10/12/28 13/15/29 16/18/30
f 5/5/31 10/12/32 17/19/33
f 8/8/34 5/10/35 18/20/36
f 10/12/37 16/18/38 19/21/39
f 20/22/40 9/11/41 8/8/42
f 13/15/43 21/23/44 16/18/45
f 18/20/46 5/10/47 17/24/48
f 17/19/49 10/12/50 19/21/51
f 19/21/52 16/18/53 22/25/54
usemtl pasted__FachadaFinal_lambert30SG6
f 16/26/55 23/27/56 22/28/57
usemtl pasted__FachadaFinal_pasted__lambert28SG6
f 24/29/58 9/11/59 20/22/60
f 16/18/61 21/23/62 23/30/63
s 5
f 25/31/64 17/24/65 26/32/66
s 6
f 27/33/67 19/21/68 28/34/69
s 7
f 29/35/70 22/25/71 30/36/72
s off
usemtl pasted__FachadaFinal_lambert30SG6
f 31/37/73 8/38/74 18/39/75
s 1
usemtl pasted__FachadaFinal_pasted__lambert28SG6
f 7/7/76 4/4/77 2/2/2 1/1/1
s 3
f 3/40/78 2/9/79 9/11/20 11/13/19
s 2
f 15/17/27 13/15/26 4/4/8 6/6/7
s off
usemtl pasted__FachadaFinal_lambert30SG6
f 20/41/80 8/38/81 31/37/82
s 3
usemtl pasted__FachadaFinal_pasted__lambert28SG6
f 32/42/83 24/29/84 33/43/85
s 2
f 34/44/86 21/23/87 35/45/88
s off
f 36/46/89 24/29/90 20/22/91
f 37/47/92 24/29/93 36/46/94
s 3
f 38/48/95 37/47/96 39/49/97
s 9
f 39/50/98 37/51/99 40/52/100
s off
f 21/23/101 41/53/102 23/30/103
f 37/51/104 36/54/105 41/55/106
f 23/30/107 41/53/108 42/56/109
f 41/55/110 36/54/111 42/57/112
s 5
f 43/58/113 18/20/114 44/59/115
s off
usemtl pasted__FachadaFinal_lambert30SG6
f 22/28/116 23/27/117 45/60/118
usemtl pasted__FachadaFinal_pasted__lambert28SG6
f 36/46/119 20/22/120 46/61/121
f 23/30/122 42/56/123 45/62/124
f 36/54/125 46/63/126 42/57/127
s 7
f 47/64/128 45/62/129 48/65/130
s off
f 46/61/131 20/22/132 31/66/133
f 45/62/134 42/56/135 49/67/136
f 42/57/137 46/63/138 49/68/139
s 5
f 50/69/140 31/66/141 51/70/142
s 3
f 12/14/21 9/11/20 24/29/84 32/42/83
s 7
f 52/71/143 49/67/144 53/72/145
s 12
f 53/73/146 49/68/147 54/74/148
s 2
f 35/45/88 21/23/87 13/15/26 14/16/25
s 6
f 26/75/149 17/19/150 19/21/68 27/33/67
s 5
f 44/59/115 18/20/114 17/24/65 25/31/64
s 7
f 28/34/151 19/21/152 22/25/71 29/35/70
s 3
f 33/43/85 24/29/84 37/47/96 38/48/95
s 2
f 55/76/153 41/53/154 21/23/87 34/44/86
s 9
f 40/52/100 37/51/99 41/55/155 55/77/156
s 7
f 30/36/72 22/25/71 45/62/129 47/64/128
s 5
f 51/70/142 31/66/141 18/20/114 43/58/113
f 56/78/157 46/61/158 31/66/141 50/69/140
s 7
f 48/65/130 45/62/129 49/67/144 52/71/143
s 12
f 54/74/148 49/68/147 46/63/159 56/79/160
s off
usemtl initialShadingGroup
f 35/80/161 14/81/162 15/82/163 6/83/164 7/84/165 1/85/166 3/86/167 11/87/168 12/88/169 32/89/170 33/90/171 38/91/172 39/92/173 40/93/174 55/94/175 34/95/176
f 52/96/177 53/97/178 54/98/179 56/99/180 50/100/181 51/101/182 43/102/183 44/103/184 25/104/185 26/105/186 27/106/187 28/107/188 29/108/189 30/109/190 47/110/191 48/111/192
