# This file uses centimeters as units for non-parametric coordinates.

mtllib puertaUno.mtl
g default
v -2.383701 -1.644307 -0.047914
v -2.288789 -1.644307 -0.047914
v -2.383701 -1.644307 0.023520
v -2.383701 -1.531719 -0.047914
v -2.383701 -1.630807 0.032085
v -2.288789 -1.518218 0.032085
v -2.383701 -1.518218 0.032085
v -0.090951 -1.644307 -0.047914
v -2.288789 -1.644307 0.032085
v -2.288789 -1.518218 -0.047914
v -0.090951 -1.518218 0.032085
v -2.383701 1.169633 -0.047914
v -2.383701 -1.518218 -0.047914
v -0.090951 -1.644307 0.032085
v -0.090951 -1.518218 -0.047914
v -2.288789 1.491930 -0.047914
v -2.383701 -1.195921 0.032085
v -2.288789 1.491930 0.032085
v -2.383701 1.491930 0.032085
v 0.001724 -1.644307 0.032085
v 0.001724 -1.644307 -0.028255
v 0.001724 -1.613322 -0.047914
v 0.001724 -1.518218 -0.047914
v 0.001724 -1.549203 0.032085
v -0.090951 1.491930 0.032085
v -2.383701 1.606013 -0.047914
v -2.383701 1.491930 -0.047914
v 0.001724 0.752216 0.032085
v 0.001724 -1.518218 0.032085
v -2.383701 1.619693 0.023520
v -2.288789 1.619693 -0.047914
v -2.383701 1.619693 -0.047914
v -2.383701 1.505609 0.032085
v -2.288789 1.619693 0.032085
v -2.383701 1.619693 0.032085
v -0.090951 1.491930 -0.047914
v -0.090951 1.619693 -0.047914
v -0.090951 1.619693 0.032085
v 0.001724 -0.778505 -0.047914
v 0.001724 1.491930 -0.047914
v -2.383701 -1.644307 0.032085
v 0.001724 1.523326 -0.047914
v 0.001724 1.619693 -0.047914
v 0.001724 1.588296 0.032085
v 0.001724 1.491930 0.032085
v 0.001724 1.619693 -0.028255
v 0.001724 1.619693 0.032085
v 0.001724 -1.644307 -0.047914
vt 0.502677 0.750000
vt 0.525000 0.750000
vt 0.502677 0.973232
vt 0.501355 0.095584
vt 0.512654 0.065616
vt 0.501355 0.065616
vt 0.502677 0.008922
vt 0.525000 0.083333
vt 0.502677 0.083333
vt 0.550000 0.750000
vt 0.525000 1.000000
vt 0.512654 0.099177
vt 0.774301 0.065616
vt 0.525000 0.000000
vt 0.550000 0.083333
vt 0.501355 0.814592
vt 0.501355 0.099177
vt 0.550000 1.000000
vt 0.774301 0.099177
vt 0.550000 0.000000
vt 0.618535 0.072207
vt 0.618535 0.932971
vt 0.945750 0.072207
vt 0.502677 0.092256
vt 0.525000 0.166667
vt 0.502677 0.166667
vt 0.568856 1.000000
vt 0.568856 0.811435
vt 0.785334 0.073863
vt 0.785334 0.099177
vt 0.568856 0.062855
vt 0.568856 0.000000
vt 1.054577 0.946949
vt -0.040704 -0.053051
vt 1.054577 -0.053051
vt -0.040704 0.946949
vt 0.501355 0.930743
vt 0.512654 0.900377
vt 0.501355 0.900377
vt 0.568856 0.146189
vt 0.568856 0.083333
vt 0.502677 0.276768
vt 0.525000 0.500000
vt 0.502677 0.500000
vt 0.502677 0.175589
vt 0.525000 0.250000
vt 0.502677 0.250000
vt 0.945750 0.932971
vt 0.512654 0.934384
vt 0.774301 0.900377
vt 0.550000 0.500000
vt 0.550000 0.250000
vt 0.785334 0.296064
vt 0.785334 0.900377
vt 0.774301 0.934384
vt 0.550000 0.166667
vt 0.502677 1.000000
vt 0.502677 0.000000
vt 0.785334 0.908734
vt 0.785334 0.934384
vt 0.568856 0.229522
vt 0.568856 0.166667
vt 0.568856 0.438565
vt 0.568856 0.250000
vt 0.568856 0.750000
vt 0.785334 0.065616
vt 0.501355 0.934384
vt 0.568856 0.500000
vt 0.650915 0.115221
vt 0.647055 0.115221
vt 0.646592 0.115221
vt 0.646592 0.115685
vt 0.646592 0.119559
vt 0.646592 0.130648
vt 0.646592 0.223128
vt 0.646592 0.223599
vt 0.646592 0.227524
vt 0.647055 0.227524
vt 0.650915 0.227524
vt 0.650915 0.227053
vt 0.650915 0.223128
vt 0.650915 0.212039
vt 0.650915 0.119559
vt 0.650915 0.119095
vt 0.314783 0.078044
vt 0.314783 0.073135
vt 0.311669 0.073135
vt 0.310654 0.073135
vt 0.310654 0.074734
vt 0.310654 0.079643
vt 0.310654 0.117821
vt 0.310654 0.235003
vt 0.310654 0.236624
vt 0.310654 0.241598
vt 0.311669 0.241598
vt 0.314783 0.241598
vt 0.314783 0.239977
vt 0.314783 0.235003
vt 0.314783 0.196825
vt 0.314783 0.079643
vn 0.000000 -1.000000 0.000000
vn 0.000000 -1.000000 0.000000
vn 0.000000 -1.000000 0.000000
vn 0.000000 0.000000 -1.000000
vn 0.000000 0.000000 -1.000000
vn 0.000000 0.000000 -1.000000
vn 0.000000 0.000000 1.000000
vn 0.000000 0.000000 1.000000
vn 0.000000 0.000000 1.000000
vn 0.000000 -1.000000 0.000000
vn 0.000000 -1.000000 0.000000
vn 0.000000 -1.000000 0.000000
vn 0.000000 0.000000 -1.000000
vn 0.000000 0.000000 -1.000000
vn 0.000000 0.000000 -1.000000
vn 0.000000 0.000000 1.000000
vn 0.000000 0.000000 1.000000
vn 0.000000 0.000000 1.000000
vn 0.000000 0.000000 -1.000000
vn 0.000000 0.000000 -1.000000
vn 0.000000 0.000000 -1.000000
vn 0.000000 -1.000000 0.000000
vn 0.000000 -1.000000 0.000000
vn 0.000000 -1.000000 0.000000
vn 0.000000 0.000000 -1.000000
vn 0.000000 0.000000 -1.000000
vn 0.000000 0.000000 -1.000000
vn 0.000000 0.000000 1.000000
vn 0.000000 0.000000 1.000000
vn 0.000000 0.000000 1.000000
vn 0.000000 0.000000 -1.000000
vn 0.000000 0.000000 -1.000000
vn 0.000000 0.000000 -1.000000
vn 0.000000 0.000000 1.000000
vn 0.000000 0.000000 1.000000
vn 0.000000 0.000000 1.000000
vn 0.000000 -1.000000 0.000000
vn 0.000000 -1.000000 0.000000
vn 0.000000 -1.000000 0.000000
vn 0.000000 0.000000 -1.000000
vn 0.000000 0.000000 -1.000000
vn 0.000000 0.000000 -1.000000
vn 0.000000 0.000000 1.000000
vn 0.000000 0.000000 1.000000
vn 0.000000 0.000000 1.000000
vn 0.000000 0.000000 1.000000
vn 0.000000 0.000000 1.000000
vn 0.000000 0.000000 1.000000
vn 0.000000 0.000000 1.000000
vn 0.000000 0.000000 1.000000
vn 0.000000 0.000000 1.000000
vn 0.000000 0.000000 -1.000000
vn 0.000000 0.000000 -1.000000
vn 0.000000 0.000000 -1.000000
vn 0.000000 0.000000 1.000000
vn 0.000000 0.000000 1.000000
vn 0.000000 0.000000 1.000000
vn 0.000000 1.000000 0.000000
vn 0.000000 1.000000 0.000000
vn 0.000000 1.000000 0.000000
vn 0.000000 0.000000 1.000000
vn 0.000000 0.000000 1.000000
vn 0.000000 0.000000 1.000000
vn 0.000000 0.000000 -1.000000
vn 0.000000 0.000000 -1.000000
vn 0.000000 0.000000 -1.000000
vn 0.000000 0.000000 -1.000000
vn 0.000000 0.000000 -1.000000
vn 0.000000 0.000000 -1.000000
vn 0.000000 1.000000 0.000000
vn 0.000000 1.000000 0.000000
vn 0.000000 1.000000 0.000000
vn 0.000000 0.000000 1.000000
vn 0.000000 0.000000 1.000000
vn 0.000000 0.000000 1.000000
vn 0.000000 0.000000 -1.000000
vn 0.000000 0.000000 -1.000000
vn 0.000000 0.000000 -1.000000
vn 0.000000 0.000000 -1.000000
vn 0.000000 0.000000 -1.000000
vn 0.000000 0.000000 -1.000000
vn 0.000000 0.000000 1.000000
vn 0.000000 0.000000 1.000000
vn 0.000000 0.000000 1.000000
vn 0.000000 1.000000 0.000000
vn 0.000000 1.000000 0.000000
vn 0.000000 1.000000 0.000000
vn 0.000000 -1.000000 0.000000
vn 0.000000 -1.000000 0.000000
vn 0.000000 0.000000 1.000000
vn 0.000000 0.000000 1.000000
vn 0.000000 0.000000 -1.000000
vn 0.000000 0.000000 -1.000000
vn 0.000000 0.000000 -1.000000
vn 0.000000 0.000000 1.000000
vn 0.000000 0.000000 1.000000
vn 0.000000 0.000000 1.000000
vn 0.000000 1.000000 0.000000
vn 0.000000 1.000000 0.000000
vn 0.000000 1.000000 0.000000
vn 0.000000 -1.000000 0.000000
vn 0.000000 -1.000000 0.000000
vn 0.000000 0.000000 -1.000000
vn 0.000000 0.000000 -1.000000
vn 0.000000 0.000000 -1.000000
vn 0.000000 0.000000 -1.000000
vn 0.000000 1.000000 0.000000
vn 0.000000 1.000000 0.000000
vn 0.000000 1.000000 0.000000
vn 0.000000 1.000000 0.000000
vn 0.000000 0.000000 1.000000
vn 0.000000 0.000000 1.000000
vn -1.000000 0.000000 0.000000
vn -1.000000 0.000000 0.000000
vn -1.000000 0.000000 0.000000
vn -1.000000 0.000000 0.000000
vn -1.000000 0.000000 0.000000
vn -1.000000 0.000000 0.000000
vn -1.000000 0.000000 0.000000
vn -1.000000 0.000000 0.000000
vn -1.000000 0.000000 0.000000
vn -1.000000 0.000000 0.000000
vn -1.000000 0.000000 0.000000
vn -1.000000 0.000000 0.000000
vn -1.000000 0.000000 0.000000
vn -1.000000 0.000000 0.000000
vn -1.000000 0.000000 0.000000
vn -1.000000 0.000000 0.000000
vn 1.000000 -0.000000 0.000000
vn 1.000000 -0.000000 0.000000
vn 1.000000 -0.000000 0.000000
vn 1.000000 -0.000000 0.000000
vn 1.000000 -0.000000 0.000000
vn 1.000000 -0.000000 0.000000
vn 1.000000 -0.000000 0.000000
vn 1.000000 -0.000000 0.000000
vn 1.000000 -0.000000 0.000000
vn 1.000000 -0.000000 0.000000
vn 1.000000 -0.000000 0.000000
vn 1.000000 -0.000000 0.000000
vn 1.000000 -0.000000 0.000000
vn 1.000000 -0.000000 0.000000
vn 1.000000 -0.000000 0.000000
vn 1.000000 -0.000000 0.000000
s 1
g pasted__pasted__FachadaFinal_pCube7
usemtl pasted__pasted__FachadaFinal_lambert28SG6
f 1/1/1 2/2/2 3/3/3
s 2
f 4/4/4 2/5/5 1/6/6
s 3
f 5/7/7 6/8/8 7/9/9
s off
f 2/2/10 8/10/11 9/11/12
f 2/5/13 10/12/14 8/13/15
f 6/8/16 9/14/17 11/15/18
s 2
f 12/16/19 10/12/20 13/17/21
s off
f 9/11/22 8/10/23 14/18/24
f 8/13/25 10/12/26 15/19/27
f 11/15/28 9/14/29 14/20/30
usemtl pasted__pasted__FachadaFinal_lambert30SG10
f 10/21/31 16/22/32 15/23/33
s 3
usemtl pasted__pasted__FachadaFinal_lambert28SG6
f 17/24/34 18/25/35 19/26/36
s 5
f 20/27/37 14/18/38 21/28/39
s 6
f 22/29/40 15/19/41 23/30/42
s 7
f 24/31/43 14/20/44 20/32/45
s off
usemtl pasted__pasted__FachadaFinal_lambert40SG10
f 25/33/46 6/34/47 11/35/48
f 18/36/49 6/34/50 25/33/51
s 2
usemtl pasted__pasted__FachadaFinal_lambert28SG6
f 26/37/52 16/38/53 27/39/54
s 7
f 28/40/55 11/15/56 29/41/57
s 10
f 30/42/58 31/43/59 32/44/60
s 3
f 33/45/61 34/46/62 35/47/63
s off
usemtl pasted__pasted__FachadaFinal_lambert30SG10
f 15/23/64 16/22/65 36/48/66
usemtl pasted__pasted__FachadaFinal_lambert28SG6
f 16/38/67 31/49/68 36/50/69
f 31/43/70 34/46/71 37/51/72
f 34/46/73 18/25/74 38/52/75
s 6
f 39/53/76 36/50/77 40/54/78
s off
f 36/50/79 31/49/80 37/55/81
f 38/52/82 18/25/83 25/56/84
f 37/51/85 34/46/86 38/52/87
s 1
f 3/3/3 2/2/2 9/11/88 41/57/89
s 2
f 13/17/21 10/12/20 2/5/5 4/4/4
s 3
f 41/58/90 9/14/91 6/8/8 5/7/7
s 6
f 42/59/92 37/55/93 43/60/94
s 7
f 44/61/95 25/56/96 45/62/97
s 12
f 46/63/98 38/52/99 47/64/100
s 3
f 7/9/9 6/8/8 18/25/35 17/24/34
s 2
f 27/39/54 16/38/53 10/12/20 12/16/19
s 5
f 21/28/39 14/18/38 8/10/101 48/65/102
s 6
f 48/66/103 8/13/104 15/19/41 22/29/40
s 7
f 29/41/57 11/15/56 14/20/44 24/31/43
s 2
f 32/67/105 31/49/106 16/38/53 26/37/52
s 3
f 19/26/36 18/25/35 34/46/62 33/45/61
s 10
f 35/47/107 34/46/108 31/43/59 30/42/58
s 6
f 23/30/42 15/19/41 36/50/77 39/53/76
s 7
f 45/62/97 25/56/96 11/15/56 28/40/55
s 6
f 40/54/78 36/50/77 37/55/93 42/59/92
s 12
f 43/68/109 37/51/110 38/52/99 46/63/98
s 7
f 47/64/111 38/52/112 25/56/96 44/61/95
s off
usemtl initialShadingGroup
f 1/69/113 3/70/114 41/71/115 5/72/116 7/73/117 17/74/118 19/75/119 33/76/120 35/77/121 30/78/122 32/79/123 26/80/124 27/81/125 12/82/126 13/83/127 4/84/128
f 24/85/129 20/86/130 21/87/131 48/88/132 22/89/133 23/90/134 39/91/135 40/92/136 42/93/137 43/94/138 46/95/139 47/96/140 44/97/141 45/98/142 28/99/143 29/100/144
