# This file uses centimeters as units for non-parametric coordinates.

mtllib puertaCuatro.mtl
g default
v 1.213425 7.789752 -26.805885
v 1.090428 7.789752 -26.732769
v 1.213425 7.789752 -26.732769
v 1.213425 7.778758 -26.732769
v 1.090427 7.661987 -26.732769
v 1.213425 7.661987 -26.732769
v 1.213425 7.672980 -26.812769
v 1.090428 7.789752 -26.812769
v 1.213425 7.789752 -26.812769
v -1.100433 7.789752 -26.732769
v -1.100432 7.661987 -26.732769
v 1.090428 7.661987 -26.812769
v -1.100433 7.789752 -26.812769
v 1.213425 4.910859 -26.812769
v 1.213425 7.661987 -26.812769
v -1.100433 7.661987 -26.812769
v 1.090428 4.651838 -26.812769
v 1.213425 7.402968 -26.732769
v 1.090427 4.651838 -26.732769
v 1.213425 4.651838 -26.732769
v -1.198291 7.666642 -26.732769
v -1.198291 7.789752 -26.732769
v -1.198291 7.789752 -26.735683
v -1.198291 7.789752 -26.812769
v -1.198291 7.785095 -26.812769
v -1.198291 7.661987 -26.812769
v -1.100432 4.651838 -26.732769
v 1.213425 4.640989 -26.732769
v 1.090428 4.525750 -26.732769
v 1.213425 4.525750 -26.732769
v 1.213425 4.536600 -26.812769
v 1.213425 4.651838 -26.812769
v 1.213425 4.525750 -26.805885
v -1.198291 4.761528 -26.732769
v -1.198291 7.661987 -26.732769
v -1.100433 4.651838 -26.812769
v -1.100433 4.525750 -26.732769
v 1.090428 4.525750 -26.812769
v -1.198291 7.552298 -26.812769
v -1.198291 4.651838 -26.812769
v -1.100433 4.525750 -26.812769
v -1.198291 4.530345 -26.732769
v -1.198291 4.651838 -26.732769
v -1.198291 4.647244 -26.812769
v -1.198291 4.525750 -26.812769
v -1.198291 4.525750 -26.735683
v 1.213425 4.525750 -26.812769
v -1.198291 4.525750 -26.732769
vt 0.427151 0.271512
vt 0.450000 0.500000
vt 0.427151 0.500000
vt 0.212451 0.931458
vt 0.227094 0.900377
vt 0.212451 0.900377
vt 0.427151 0.173838
vt 0.450000 0.250000
vt 0.427151 0.250000
vt 0.475000 0.500000
vt 0.227094 0.934384
vt 0.487910 0.900377
vt 0.450000 0.166667
vt 0.475000 0.250000
vt 0.427151 0.090504
vt 0.427151 0.166667
vt 0.487910 0.934384
vt 0.475000 0.166667
vt -0.057788 0.914174
vt -0.057788 -0.085826
vt 1.069277 0.914174
vt 0.212451 0.831435
vt 0.227094 0.099177
vt 0.212451 0.099177
vt 0.499559 0.901616
vt 0.499559 0.934384
vt 0.499089 0.490890
vt 0.499089 0.250000
vt 0.499089 0.246963
vt 0.499089 0.166667
vt 0.546012 0.130228
vt 0.906858 0.824750
vt 0.546012 0.824750
vt 0.906858 0.130228
vt 0.212451 0.096289
vt 0.227094 0.065616
vt 0.212451 0.065616
vt 0.427151 0.007171
vt 0.450000 0.083333
vt 0.427151 0.083333
vt 0.427151 0.750000
vt 0.450000 0.750000
vt 0.427151 0.978488
vt 0.499559 0.128372
vt 0.499559 0.900377
vt 0.212451 0.934384
vt 1.069277 -0.085826
vt 0.487910 0.065616
vt 0.450000 0.000000
vt 0.475000 0.083333
vt 0.475000 0.750000
vt 0.450000 1.000000
vt 0.499089 0.163630
vt 0.499089 0.083333
vt 0.487910 0.099177
vt 0.475000 0.000000
vt 0.475000 1.000000
vt 0.499559 0.066839
vt 0.499559 0.099177
vt 0.499089 0.080296
vt 0.499089 0.000000
vt 0.499089 1.000000
vt 0.499089 0.759110
vt 0.499089 0.500000
vt 0.427151 0.000000
vt 0.427151 1.000000
vt 0.499559 0.065616
vt 0.499089 0.750000
vt 0.156684 0.126855
vt 0.156684 0.131185
vt 0.156684 0.140917
vt 0.156684 0.244281
vt 0.156684 0.244694
vt 0.156684 0.249081
vt 0.157421 0.249081
vt 0.165245 0.249081
vt 0.165245 0.248668
vt 0.165245 0.244281
vt 0.165245 0.234549
vt 0.165245 0.131185
vt 0.165245 0.130777
vt 0.165245 0.126448
vt 0.157421 0.126448
vt 0.156684 0.126448
vt 0.713647 0.227082
vt 0.713647 0.063788
vt 0.713647 0.063529
vt 0.713647 0.056689
vt 0.708104 0.056689
vt 0.707894 0.056689
vt 0.707894 0.056948
vt 0.707894 0.063788
vt 0.707894 0.069963
vt 0.707894 0.233258
vt 0.707894 0.233520
vt 0.707894 0.240451
vt 0.708104 0.240451
vt 0.713647 0.240451
vt 0.713647 0.240189
vt 0.713647 0.233258
vn 0.000000 1.000000 0.000000
vn 0.000000 1.000000 0.000000
vn 0.000000 1.000000 0.000000
vn 0.000000 0.000000 1.000000
vn 0.000000 0.000000 1.000000
vn 0.000000 0.000000 1.000000
vn 0.000000 0.000000 -1.000000
vn 0.000000 0.000000 -1.000000
vn 0.000000 0.000000 -1.000000
vn 0.000000 1.000000 0.000000
vn 0.000000 1.000000 0.000000
vn 0.000000 1.000000 0.000000
vn 0.000000 0.000000 1.000000
vn 0.000000 0.000001 1.000000
vn 0.000000 0.000000 1.000000
vn 0.000000 0.000000 -1.000000
vn 0.000000 0.000000 -1.000000
vn 0.000000 0.000000 -1.000000
vn 0.000000 0.000000 -1.000000
vn 0.000000 0.000000 -1.000000
vn 0.000000 0.000000 -1.000000
vn 0.000000 0.000000 1.000000
vn 0.000000 0.000001 1.000000
vn 0.000000 -0.000002 1.000000
vn 0.000000 1.000000 0.000000
vn 0.000000 1.000000 0.000000
vn 0.000000 1.000000 0.000000
vn 0.000000 0.000000 -1.000000
vn 0.000000 0.000000 -1.000000
vn 0.000000 0.000000 -1.000000
vn 0.000000 0.000000 -1.000000
vn 0.000000 0.000000 -1.000000
vn 0.000000 0.000000 -1.000000
vn 0.000000 0.000000 1.000000
vn 0.000000 0.000000 1.000000
vn 0.000000 0.000000 1.000000
vn 0.000001 0.000000 1.000000
vn 0.000000 -0.000002 1.000000
vn 0.000000 0.000000 1.000000
vn 0.000000 1.000000 0.000000
vn 0.000000 1.000000 0.000000
vn 0.000000 1.000000 0.000000
vn 0.000000 0.000000 -1.000000
vn 0.000000 0.000000 -1.000000
vn 0.000000 0.000000 -1.000000
vn 0.000000 0.000000 1.000000
vn 0.000000 0.000000 1.000000
vn 0.000000 0.000000 1.000000
vn 0.000000 0.000000 1.000000
vn 0.000000 0.000000 1.000000
vn 0.000000 0.000000 1.000000
vn 0.000000 0.000000 1.000000
vn 0.000000 -0.000002 1.000000
vn 0.000000 0.000000 1.000000
vn 0.000000 0.000000 -1.000000
vn 0.000000 0.000000 -1.000000
vn 0.000000 0.000000 -1.000000
vn 0.000000 -1.000000 0.000000
vn 0.000000 -1.000000 0.000000
vn 0.000000 -1.000000 0.000000
vn 0.000001 0.000000 1.000000
vn 0.000000 0.000000 1.000000
vn 0.000001 0.000000 1.000000
vn 0.000000 0.000000 1.000000
vn 0.000000 0.000001 1.000000
vn 0.000000 0.000000 1.000000
vn 0.000000 0.000000 1.000000
vn 0.000000 1.000000 0.000000
vn 0.000000 1.000000 0.000000
vn 0.000000 1.000000 0.000000
vn 0.000000 1.000000 0.000000
vn 0.000000 0.000000 -1.000000
vn 0.000000 0.000000 -1.000000
vn 0.000000 0.000000 -1.000000
vn 0.000000 0.000000 -1.000000
vn 0.000000 0.000000 -1.000000
vn 0.000000 0.000000 -1.000000
vn 0.000000 0.000000 -1.000000
vn 0.000000 -0.000002 1.000000
vn 0.000000 0.000000 1.000000
vn 0.000000 0.000002 1.000000
vn 0.000000 0.000000 -1.000000
vn 0.000000 0.000000 -1.000000
vn 0.000000 0.000000 -1.000000
vn 0.000000 -1.000000 0.000000
vn 0.000000 -1.000000 0.000000
vn 0.000000 -1.000000 0.000000
vn 0.000000 0.000000 -1.000000
vn 0.000000 0.000000 -1.000000
vn 0.000000 0.000000 -1.000000
vn 0.000000 0.000002 1.000000
vn 0.000000 0.000000 1.000000
vn 0.000000 0.000000 1.000000
vn 0.000000 0.000000 -1.000000
vn 0.000000 0.000000 -1.000000
vn 0.000000 0.000000 -1.000000
vn 0.000000 -1.000000 0.000000
vn 0.000000 -1.000000 0.000000
vn 0.000000 -1.000000 0.000000
vn 0.000000 0.000000 1.000000
vn 0.000000 0.000000 1.000000
vn 0.000000 0.000000 1.000000
vn 0.000000 0.000000 1.000000
vn 0.000000 0.000001 1.000000
vn 0.000000 0.000000 1.000000
vn 0.000001 0.000000 1.000000
vn 0.000000 0.000000 -1.000000
vn 0.000000 0.000000 -1.000000
vn 0.000000 0.000000 -1.000000
vn 0.000000 -1.000000 0.000000
vn 0.000000 -1.000000 0.000000
vn 0.000000 -1.000000 0.000000
vn 0.000000 1.000000 0.000000
vn 0.000000 1.000000 0.000000
vn 0.000000 1.000000 0.000000
vn 0.000000 1.000000 0.000000
vn 0.000001 0.000000 1.000000
vn 0.000000 0.000000 1.000000
vn 0.000000 -0.000002 1.000000
vn 0.000001 0.000000 1.000000
vn 0.000000 0.000000 -1.000000
vn 0.000000 0.000000 -1.000000
vn 0.000000 0.000000 -1.000000
vn 0.000000 0.000000 -1.000000
vn 0.000000 0.000000 -1.000000
vn 0.000000 0.000000 -1.000000
vn 0.000000 0.000000 -1.000000
vn 0.000000 0.000000 -1.000000
vn 0.000000 0.000000 1.000000
vn 0.000000 0.000000 1.000000
vn 0.000000 -0.000002 1.000000
vn 0.000000 0.000000 1.000000
vn 0.000000 0.000000 -1.000000
vn 0.000000 0.000000 -1.000000
vn 0.000000 0.000000 -1.000000
vn 0.000000 0.000000 -1.000000
vn 0.000000 0.000000 -1.000000
vn 0.000000 0.000000 -1.000000
vn 0.000000 0.000000 -1.000000
vn 0.000000 0.000000 -1.000000
vn 0.000000 -1.000000 0.000000
vn 0.000000 -1.000000 0.000000
vn 0.000000 -1.000000 0.000000
vn 0.000000 -1.000000 0.000000
vn 0.000001 0.000000 1.000000
vn 0.000000 0.000000 1.000000
vn 0.000000 0.000000 1.000000
vn 0.000001 0.000000 1.000000
vn 0.000000 0.000001 1.000000
vn 0.000000 0.000002 1.000000
vn 0.000000 0.000000 1.000000
vn 0.000000 0.000001 1.000000
vn 0.000000 0.000000 -1.000000
vn 0.000000 0.000000 -1.000000
vn 0.000000 0.000000 -1.000000
vn 0.000000 0.000000 -1.000000
vn 0.000000 -1.000000 0.000000
vn 0.000000 -1.000000 0.000000
vn 0.000000 -1.000000 0.000000
vn 0.000000 -1.000000 0.000000
vn 1.000000 0.000000 0.000000
vn 1.000000 0.000000 0.000000
vn 1.000000 0.000000 0.000000
vn 1.000000 0.000000 0.000000
vn 1.000000 0.000000 0.000000
vn 1.000000 0.000000 0.000000
vn 1.000000 0.000000 0.000000
vn 1.000000 0.000000 0.000000
vn 1.000000 0.000000 0.000000
vn 1.000000 0.000000 0.000000
vn 1.000000 0.000000 0.000000
vn 1.000000 0.000000 0.000000
vn 1.000000 0.000000 0.000000
vn 1.000000 0.000000 0.000000
vn 1.000000 0.000000 0.000000
vn 1.000000 0.000000 0.000000
vn -1.000000 0.000000 0.000000
vn -1.000000 0.000000 0.000000
vn -1.000000 0.000000 0.000000
vn -1.000000 0.000000 0.000000
vn -1.000000 0.000000 0.000000
vn -1.000000 0.000000 0.000000
vn -1.000000 0.000000 0.000000
vn -1.000000 0.000000 0.000000
vn -1.000000 0.000000 0.000000
vn -1.000000 0.000000 0.000000
vn -1.000000 0.000000 0.000000
vn -1.000000 0.000000 0.000000
vn -1.000000 0.000000 0.000000
vn -1.000000 0.000000 0.000000
vn -1.000000 0.000000 0.000000
vn -1.000000 0.000000 0.000000
s off
g polySurface6598 puertaUno:pasted__pasted__FachadaFinal_pCube8
usemtl puertaCuatro:pasted__pasted__FachadaFinal_pasted__lambert28SG4
f 1/1/1 2/2/2 3/3/3
f 4/4/4 5/5/5 6/6/6
f 7/7/7 8/8/8 9/9/9
f 2/2/10 8/8/11 10/10/12
f 5/5/13 2/11/14 11/12/15
f 8/8/16 12/13/17 13/14/18
f 14/15/19 12/13/20 15/16/21
f 11/12/22 2/11/23 10/17/24
f 10/10/25 8/8/26 13/14/27
f 13/14/28 12/13/29 16/18/30
usemtl puertaCuatro:pasted__pasted__FachadaFinal_lambert40SG4
f 12/19/31 17/20/32 16/21/33
usemtl puertaCuatro:pasted__pasted__FachadaFinal_pasted__lambert28SG4
f 18/22/34 19/23/35 20/24/36
f 21/25/37 10/17/38 22/26/39
f 23/27/40 13/14/41 24/28/42
f 25/29/43 16/18/44 26/30/45
usemtl puertaCuatro:pasted__pasted__FachadaFinal_lambert30SG4
f 27/31/46 5/32/47 11/33/48
f 19/34/49 5/32/50 27/31/51
usemtl puertaCuatro:pasted__pasted__FachadaFinal_pasted__lambert28SG4
f 28/35/52 29/36/53 30/37/54
f 31/38/55 17/39/56 32/40/57
f 30/41/58 29/42/59 33/43/60
f 34/44/61 11/12/62 35/45/63
f 3/46/64 2/11/65 5/5/66 4/4/67
f 9/9/68 8/8/69 2/2/70 1/1/71
f 15/16/72 12/13/73 8/8/74 7/7/75
usemtl puertaCuatro:pasted__pasted__FachadaFinal_lambert40SG4
f 16/21/76 17/20/77 36/47/78
usemtl puertaCuatro:pasted__pasted__FachadaFinal_pasted__lambert28SG4
f 29/36/79 19/23/80 37/48/81
f 17/39/82 38/49/83 36/50/84
f 29/42/85 37/51/86 38/52/87
f 39/53/88 36/50/89 40/54/90
f 37/48/91 19/23/92 27/55/93
f 36/50/94 38/49/95 41/56/96
f 38/52/97 37/51/98 41/57/99
f 6/6/100 5/5/101 19/23/102 18/22/103
f 42/58/104 27/55/105 43/59/106
f 44/60/107 41/56/108 45/61/109
f 45/62/110 41/57/111 46/63/112
f 22/64/113 10/10/114 13/14/115 23/27/116
f 35/45/117 11/12/118 10/17/119 21/25/120
f 32/40/121 17/39/122 12/13/123 14/15/124
f 24/28/125 13/14/126 16/18/127 25/29/128
f 20/24/129 19/23/130 29/36/131 28/35/132
f 26/30/133 16/18/134 36/50/135 39/53/136
f 47/65/137 38/49/138 17/39/139 31/38/140
f 33/43/141 29/42/142 38/52/143 47/66/144
f 43/59/145 27/55/146 11/12/147 34/44/148
f 48/67/149 37/48/150 27/55/151 42/58/152
f 40/54/153 36/50/154 41/56/155 44/60/156
f 46/63/157 41/57/158 37/51/159 48/68/160
usemtl puertaCuatro:initialShadingGroup
f 31/69/161 32/70/162 14/71/163 15/72/164 7/73/165 9/74/166 1/75/167 3/76/168 4/77/169 6/78/170 18/79/171 20/80/172 28/81/173 30/82/174 33/83/175 47/84/176
f 39/85/177 40/86/178 44/87/179 45/88/180 46/89/181 48/90/182 42/91/183 43/92/184 34/93/185 35/94/186 21/95/187 22/96/188 23/97/189 24/98/190 25/99/191 26/100/192
