# This file uses centimeters as units for non-parametric coordinates.

mtllib puerta3.mtl
g default
v 3.613740 7.808527 -26.741919
v 3.611248 7.808527 -26.739956
v 3.613740 7.808527 -26.739956
v 3.611248 7.808527 -26.819956
v 3.504956 7.808527 -26.739956
v 3.613740 7.805391 -26.819956
v 3.613740 7.808527 -26.819956
v 3.504956 7.680763 -26.739956
v 3.611248 7.680763 -26.739956
v 3.504956 7.808527 -26.819956
v 3.613740 7.683900 -26.739956
v 3.613740 7.680763 -26.739956
v 3.611248 7.680763 -26.819956
v 3.613740 7.606867 -26.819956
v 3.613740 7.680763 -26.819956
v 3.504956 7.680763 -26.819956
v 1.307117 7.808527 -26.739956
v 1.307117 7.680763 -26.739956
v 1.307117 7.808527 -26.819956
v 3.504956 4.670615 -26.739956
v 3.611248 4.670615 -26.819956
v 1.307117 7.680763 -26.819956
v 3.504956 4.670615 -26.819956
v 3.611248 4.670615 -26.739956
v 1.193634 7.690521 -26.739956
v 1.193634 7.808527 -26.739956
v 1.193634 7.808527 -26.746065
v 1.193634 7.808527 -26.819956
v 1.193634 7.798770 -26.819956
v 1.193634 7.680763 -26.819956
v 1.307117 4.670615 -26.739956
v 3.613740 4.744512 -26.739956
v 3.613740 4.670615 -26.739956
v 3.613740 4.667520 -26.819956
v 3.613740 4.670615 -26.819956
v 3.504956 4.544527 -26.739956
v 3.611248 4.544527 -26.739956
v 3.613740 4.547623 -26.739956
v 3.613740 4.544527 -26.739956
v 3.613740 4.544527 -26.741919
v 3.611248 4.544527 -26.819956
v 3.504956 4.544527 -26.819956
v 1.193634 4.900509 -26.739956
v 1.193634 7.680763 -26.739956
v 1.307117 4.670615 -26.819956
v 1.307117 4.544527 -26.739956
v 1.193634 7.450870 -26.819956
v 1.193634 4.670615 -26.819956
v 1.307117 4.544527 -26.819956
v 1.193634 4.554157 -26.739956
v 1.193634 4.670615 -26.739956
v 1.193634 4.660986 -26.819956
v 1.193634 4.544527 -26.819956
v 1.193634 4.544527 -26.746065
v 3.613740 4.544527 -26.819956
v 1.193634 4.544527 -26.739956
vt 0.499386 0.493863
vt 0.500000 0.500000
vt 0.499386 0.500000
vt 0.500000 0.250000
vt 0.525000 0.500000
vt 0.499386 0.247954
vt 0.499386 0.250000
vt 0.512654 0.900377
vt 0.500000 0.934384
vt 0.512654 0.934384
vt 0.500000 0.900377
vt 0.525000 0.250000
vt 0.499703 0.901212
vt 0.499703 0.900377
vt 0.500000 0.166667
vt 0.499386 0.164621
vt 0.499386 0.166667
vt 0.525000 0.166667
vt 0.550000 0.500000
vt 0.774301 0.900377
vt 0.550000 0.250000
vt 0.512654 0.099177
vt 0.500000 0.083333
vt 0.774301 0.934384
vt 0.550000 0.166667
vt 0.175441 0.932547
vt 0.175441 0.067453
vt 0.824559 0.932547
vt 0.500000 0.099177
vt 0.525000 0.083333
vt 0.787811 0.902974
vt 0.787811 0.934384
vt 0.573091 0.480907
vt 0.573091 0.250000
vt 0.573091 0.243636
vt 0.573091 0.166667
vt 0.561084 0.167412
vt 0.941947 0.801834
vt 0.561084 0.801834
vt 0.499703 0.934384
vt 0.941947 0.167412
vt 0.499703 0.118846
vt 0.499703 0.099177
vt 0.499386 0.081287
vt 0.499386 0.083333
vt 0.512654 0.065616
vt 0.500000 0.065616
vt 0.499703 0.066440
vt 0.499703 0.065616
vt 0.499386 0.750000
vt 0.500000 0.750000
vt 0.499386 0.756137
vt 0.500000 0.000000
vt 0.525000 0.750000
vt 0.500000 1.000000
vt 0.525000 0.000000
vt 0.525000 1.000000
vt 0.787811 0.160367
vt 0.787811 0.900377
vt 0.824559 0.067453
vt 0.774301 0.065616
vt 0.550000 0.083333
vt 0.550000 0.750000
vt 0.573091 0.160303
vt 0.573091 0.083333
vt 0.774301 0.099177
vt 0.550000 0.000000
vt 0.550000 1.000000
vt 0.787811 0.068179
vt 0.787811 0.099177
vt 0.573091 0.076969
vt 0.573091 0.000000
vt 0.573091 1.000000
vt 0.573091 0.769093
vt 0.573091 0.500000
vt 0.499386 0.000000
vt 0.499386 1.000000
vt 0.787811 0.065616
vt 0.573091 0.750000
vt 0.361554 0.063788
vt 0.361554 0.229097
vt 0.361554 0.233258
vt 0.361554 0.240274
vt 0.361554 0.240451
vt 0.367166 0.240451
vt 0.367307 0.240451
vt 0.367307 0.233434
vt 0.367307 0.233258
vt 0.367307 0.067948
vt 0.367307 0.063788
vt 0.367307 0.056863
vt 0.367307 0.056689
vt 0.367166 0.056689
vt 0.361554 0.056689
vt 0.361554 0.063613
vt 0.785127 0.130823
vt 0.785127 0.126448
vt 0.777219 0.126448
vt 0.776565 0.126448
vt 0.776565 0.126809
vt 0.776565 0.131185
vt 0.776565 0.139822
vt 0.776565 0.244281
vt 0.776565 0.244647
vt 0.776565 0.249081
vt 0.777219 0.249081
vt 0.785127 0.249081
vt 0.785127 0.248714
vt 0.785127 0.244281
vt 0.785127 0.235643
vt 0.785127 0.131185
vn 0.000000 1.000000 0.000000
vn 0.000000 1.000000 0.000000
vn 0.000000 1.000000 0.000000
vn 0.000000 1.000000 0.000000
vn 0.000000 1.000000 0.000000
vn 0.000000 1.000000 0.000000
vn 0.000000 0.000000 -1.000000
vn 0.000000 0.000000 -1.000000
vn 0.000000 0.000000 -1.000000
vn 0.000000 0.000000 1.000000
vn 0.000000 0.000000 1.000000
vn 0.000000 0.000000 1.000000
vn 0.000001 0.000000 1.000000
vn 0.000000 0.000000 1.000000
vn 0.000000 0.000000 1.000000
vn 0.000000 1.000000 0.000000
vn 0.000000 1.000000 0.000000
vn 0.000000 1.000000 0.000000
vn 0.000001 0.000000 1.000000
vn 0.000001 0.000000 1.000000
vn 0.000001 0.000000 1.000000
vn 0.000000 0.000000 -1.000000
vn 0.000000 0.000000 -1.000000
vn 0.000000 0.000000 -1.000000
vn 0.000000 0.000000 -1.000000
vn 0.000000 0.000000 -1.000000
vn 0.000000 0.000000 -1.000000
vn 0.000000 0.000000 -1.000000
vn 0.000000 0.000000 -1.000000
vn 0.000000 0.000000 -1.000000
vn 0.000000 1.000000 0.000000
vn 0.000000 1.000000 0.000000
vn 0.000000 1.000000 0.000000
vn 0.000000 0.000000 1.000000
vn 0.000000 0.000000 1.000000
vn 0.000000 0.000000 1.000000
vn 0.000000 0.000000 -1.000000
vn 0.000000 0.000000 -1.000000
vn 0.000000 0.000000 -1.000000
vn 0.000000 0.000000 1.000000
vn 0.000001 0.000000 1.000000
vn 0.000000 0.000000 1.000000
vn 0.000000 0.000000 -1.000000
vn 0.000000 0.000000 -1.000000
vn 0.000000 0.000000 -1.000000
vn 0.000000 0.000000 1.000000
vn 0.000000 0.000000 1.000000
vn 0.000000 0.000000 1.000000
vn 0.000000 1.000000 0.000000
vn 0.000000 1.000000 0.000000
vn 0.000000 1.000000 0.000000
vn 0.000000 0.000000 -1.000000
vn 0.000000 0.000000 -1.000000
vn 0.000000 0.000000 -1.000000
vn 0.000000 0.000000 -1.000000
vn 0.000000 0.000000 -1.000000
vn 0.000000 0.000000 -1.000000
vn 0.000001 0.000000 1.000000
vn 0.000001 0.000000 1.000000
vn 0.000000 0.000000 1.000000
vn 0.000000 0.000000 -1.000000
vn 0.000000 0.000000 -1.000000
vn 0.000000 0.000000 -1.000000
vn 0.000000 0.000000 1.000000
vn 0.000000 0.000000 1.000000
vn 0.000000 0.000000 1.000000
vn 0.000000 1.000000 0.000000
vn 0.000000 1.000000 0.000000
vn 0.000000 1.000000 0.000000
vn 0.000000 0.000000 -1.000000
vn 0.000000 0.000000 -1.000000
vn 0.000000 0.000000 -1.000000
vn 0.000000 0.000000 1.000000
vn 0.000000 0.000000 1.000000
vn 0.000000 0.000000 1.000000
vn 0.000000 1.000000 0.000000
vn 0.000000 1.000000 0.000000
vn 0.000000 1.000000 0.000000
vn 0.000000 1.000000 0.000000
vn 0.000000 0.000000 1.000000
vn 0.000000 0.000000 1.000000
vn 0.000001 0.000000 1.000000
vn 0.000001 0.000000 1.000000
vn 0.000000 0.000000 -1.000000
vn 0.000000 0.000000 -1.000000
vn 0.000000 0.000000 -1.000000
vn 0.000000 0.000000 -1.000000
vn 0.000000 0.000000 1.000000
vn 0.000000 0.000000 1.000000
vn 0.000000 0.000000 1.000000
vn 0.000001 0.000000 1.000000
vn 0.000001 0.000000 1.000000
vn 0.000001 0.000000 1.000000
vn 0.000000 0.000000 -1.000000
vn 0.000000 0.000000 -1.000000
vn 0.000000 0.000000 -1.000000
vn 0.000000 0.000000 1.000000
vn 0.000001 0.000000 1.000000
vn 0.000000 0.000000 1.000000
vn 0.000000 0.000001 1.000000
vn 0.000001 0.000000 1.000000
vn 0.000000 0.000000 1.000000
vn 0.000000 0.000001 1.000000
vn 0.000000 0.000001 1.000000
vn 0.000000 0.000001 1.000000
vn 0.000000 -1.000000 0.000000
vn 0.000000 -1.000000 0.000000
vn 0.000000 -1.000000 0.000000
vn 0.000000 0.000000 -1.000000
vn 0.000000 0.000000 -1.000000
vn 0.000000 0.000000 -1.000000
vn 0.000000 -1.000000 0.000000
vn 0.000000 -1.000000 0.000000
vn 0.000000 -1.000000 0.000000
vn 0.000000 0.000000 -1.000000
vn 0.000000 0.000000 -1.000000
vn 0.000000 0.000000 -1.000000
vn 0.000000 -1.000000 0.000000
vn 0.000000 -1.000000 0.000000
vn 0.000000 -1.000000 0.000000
vn 0.000000 0.000000 1.000000
vn 0.000000 0.000000 1.000000
vn 0.000000 0.000000 1.000000
vn 0.000000 0.000000 -1.000000
vn 0.000000 0.000000 -1.000000
vn 0.000000 0.000000 -1.000000
vn 0.000000 0.000000 1.000000
vn 0.000000 0.000000 1.000000
vn 0.000000 0.000000 1.000000
vn 0.000000 0.000000 -1.000000
vn 0.000000 0.000000 -1.000000
vn 0.000000 0.000000 -1.000000
vn 0.000000 -1.000000 0.000000
vn 0.000000 -1.000000 0.000000
vn 0.000000 -1.000000 0.000000
vn 0.000000 0.000000 -1.000000
vn 0.000000 0.000000 -1.000000
vn 0.000000 0.000000 -1.000000
vn 0.000000 0.000000 1.000000
vn 0.000000 0.000000 1.000000
vn 0.000000 0.000000 1.000000
vn 0.000000 0.000000 -1.000000
vn 0.000000 0.000000 -1.000000
vn 0.000000 0.000000 -1.000000
vn 0.000000 -1.000000 0.000000
vn 0.000000 -1.000000 0.000000
vn 0.000000 -1.000000 0.000000
vn 0.000000 0.000000 1.000000
vn 0.000000 0.000000 1.000000
vn 0.000000 0.000000 1.000000
vn 0.000001 0.000000 1.000000
vn 0.000001 0.000000 1.000000
vn 0.000001 0.000000 1.000000
vn 0.000001 0.000000 1.000000
vn 0.000000 0.000000 -1.000000
vn 0.000000 0.000000 -1.000000
vn 0.000000 0.000000 -1.000000
vn 0.000000 -1.000000 0.000000
vn 0.000000 -1.000000 0.000000
vn 0.000000 -1.000000 0.000000
vn 0.000000 0.000000 -1.000000
vn 0.000000 0.000000 -1.000000
vn 0.000000 0.000000 -1.000000
vn 0.000000 0.000000 -1.000000
vn 0.000000 1.000000 0.000000
vn 0.000000 1.000000 0.000000
vn 0.000000 1.000000 0.000000
vn 0.000000 1.000000 0.000000
vn 0.000000 0.000000 1.000000
vn 0.000000 0.000000 1.000000
vn 0.000000 0.000000 1.000000
vn 0.000000 0.000000 1.000000
vn 0.000000 0.000000 -1.000000
vn 0.000000 0.000000 -1.000000
vn 0.000000 0.000000 -1.000000
vn 0.000000 0.000000 -1.000000
vn 0.000001 0.000000 1.000000
vn 0.000001 0.000000 1.000000
vn 0.000000 0.000001 1.000000
vn 0.000000 0.000001 1.000000
vn 0.000000 0.000000 -1.000000
vn 0.000000 0.000000 -1.000000
vn 0.000000 0.000000 -1.000000
vn 0.000000 0.000000 -1.000000
vn 0.000000 -1.000000 0.000000
vn 0.000000 -1.000000 0.000000
vn 0.000000 -1.000000 0.000000
vn 0.000000 -1.000000 0.000000
vn 0.000000 0.000000 -1.000000
vn 0.000000 0.000000 -1.000000
vn 0.000000 0.000000 -1.000000
vn 0.000000 0.000000 -1.000000
vn 0.000000 0.000000 1.000000
vn 0.000000 0.000000 1.000000
vn 0.000000 0.000000 1.000000
vn 0.000000 0.000000 1.000000
vn 0.000000 0.000000 1.000000
vn 0.000000 0.000000 1.000000
vn 0.000000 0.000000 1.000000
vn 0.000000 0.000000 1.000000
vn 0.000000 0.000000 -1.000000
vn 0.000000 0.000000 -1.000000
vn 0.000000 0.000000 -1.000000
vn 0.000000 0.000000 -1.000000
vn 0.000000 -1.000000 0.000000
vn 0.000000 -1.000000 0.000000
vn 0.000000 -1.000000 0.000000
vn 0.000000 -1.000000 0.000000
vn 1.000000 0.000000 0.000000
vn 1.000000 0.000000 0.000000
vn 1.000000 0.000000 0.000000
vn 1.000000 0.000000 0.000000
vn 1.000000 0.000000 0.000000
vn 1.000000 0.000000 0.000000
vn 1.000000 0.000000 0.000000
vn 1.000000 0.000000 0.000000
vn 1.000000 0.000000 0.000000
vn 1.000000 0.000000 0.000000
vn 1.000000 0.000000 0.000000
vn 1.000000 0.000000 0.000000
vn 1.000000 0.000000 0.000000
vn 1.000000 0.000000 0.000000
vn 1.000000 0.000000 0.000000
vn 1.000000 0.000000 0.000000
vn -1.000000 0.000000 0.000000
vn -1.000000 0.000000 0.000000
vn -1.000000 0.000000 0.000000
vn -1.000000 0.000000 0.000000
vn -1.000000 0.000000 0.000000
vn -1.000000 0.000000 0.000000
vn -1.000000 0.000000 0.000000
vn -1.000000 0.000000 0.000000
vn -1.000000 0.000000 0.000000
vn -1.000000 0.000000 0.000000
vn -1.000000 0.000000 0.000000
vn -1.000000 0.000000 0.000000
vn -1.000000 0.000000 0.000000
vn -1.000000 0.000000 0.000000
vn -1.000000 0.000000 0.000000
vn -1.000000 0.000000 0.000000
s off
g polySurface6599 puertaUno:pasted__pasted__FachadaFinal_pCube8
usemtl puertaTres:pasted__FachadaFinal_pasted__lambert28SG6
f 1/1/1 2/2/2 3/3/3
f 2/2/4 4/4/5 5/5/6
f 6/6/7 4/4/8 7/7/9
f 8/8/10 2/9/11 5/10/12
f 9/11/13 2/9/14 8/8/15
f 5/5/16 4/4/17 10/12/18
f 11/13/19 9/11/20 12/14/21
f 4/4/22 13/15/23 10/12/24
f 14/16/25 13/15/26 15/17/27
f 10/12/28 13/15/29 16/18/30
f 5/5/31 10/12/32 17/19/33
f 8/8/34 5/10/35 18/20/36
f 10/12/37 16/18/38 19/21/39
f 20/22/40 9/11/41 8/8/42
f 13/15/43 21/23/44 16/18/45
f 18/20/46 5/10/47 17/24/48
f 17/19/49 10/12/50 19/21/51
f 19/21/52 16/18/53 22/25/54
usemtl puertaTres:pasted__FachadaFinal_lambert30SG6
f 16/26/55 23/27/56 22/28/57
usemtl puertaTres:pasted__FachadaFinal_pasted__lambert28SG6
f 24/29/58 9/11/59 20/22/60
f 16/18/61 21/23/62 23/30/63
f 25/31/64 17/24/65 26/32/66
f 27/33/67 19/21/68 28/34/69
f 29/35/70 22/25/71 30/36/72
usemtl puertaTres:pasted__FachadaFinal_lambert30SG6
f 31/37/73 8/38/74 18/39/75
usemtl puertaTres:pasted__FachadaFinal_pasted__lambert28SG6
f 7/7/76 4/4/77 2/2/78 1/1/79
f 3/40/80 2/9/81 9/11/82 11/13/83
f 15/17/84 13/15/85 4/4/86 6/6/87
usemtl puertaTres:pasted__FachadaFinal_lambert30SG6
f 20/41/88 8/38/89 31/37/90
usemtl puertaTres:pasted__FachadaFinal_pasted__lambert28SG6
f 32/42/91 24/29/92 33/43/93
f 34/44/94 21/23/95 35/45/96
f 36/46/97 24/29/98 20/22/99
f 37/47/100 24/29/101 36/46/102
f 38/48/103 37/47/104 39/49/105
f 39/50/106 37/51/107 40/52/108
f 21/23/109 41/53/110 23/30/111
f 37/51/112 36/54/113 41/55/114
f 23/30/115 41/53/116 42/56/117
f 41/55/118 36/54/119 42/57/120
f 43/58/121 18/20/122 44/59/123
usemtl puertaTres:pasted__FachadaFinal_lambert30SG6
f 22/28/124 23/27/125 45/60/126
usemtl puertaTres:pasted__FachadaFinal_pasted__lambert28SG6
f 36/46/127 20/22/128 46/61/129
f 23/30/130 42/56/131 45/62/132
f 36/54/133 46/63/134 42/57/135
f 47/64/136 45/62/137 48/65/138
f 46/61/139 20/22/140 31/66/141
f 45/62/142 42/56/143 49/67/144
f 42/57/145 46/63/146 49/68/147
f 50/69/148 31/66/149 51/70/150
f 12/14/151 9/11/152 24/29/153 32/42/154
f 52/71/155 49/67/156 53/72/157
f 53/73/158 49/68/159 54/74/160
f 35/45/161 21/23/162 13/15/163 14/16/164
f 26/75/165 17/19/166 19/21/167 27/33/168
f 44/59/169 18/20/170 17/24/171 25/31/172
f 28/34/173 19/21/174 22/25/175 29/35/176
f 33/43/177 24/29/178 37/47/179 38/48/180
f 55/76/181 41/53/182 21/23/183 34/44/184
f 40/52/185 37/51/186 41/55/187 55/77/188
f 30/36/189 22/25/190 45/62/191 47/64/192
f 51/70/193 31/66/194 18/20/195 43/58/196
f 56/78/197 46/61/198 31/66/199 50/69/200
f 48/65/201 45/62/202 49/67/203 52/71/204
f 54/74/205 49/68/206 46/63/207 56/79/208
usemtl puertaTres:initialShadingGroup
f 35/80/209 14/81/210 15/82/211 6/83/212 7/84/213 1/85/214 3/86/215 11/87/216 12/88/217 32/89/218 33/90/219 38/91/220 39/92/221 40/93/222 55/94/223 34/95/224
f 52/96/225 53/97/226 54/98/227 56/99/228 50/100/229 51/101/230 43/102/231 44/103/232 25/104/233 26/105/234 27/106/235 28/107/236 29/108/237 30/109/238 47/110/239 48/111/240
