# This file uses centimeters as units for non-parametric coordinates.

mtllib puertaUno.mtl
g default
v -1.193487 4.523994 -11.914247
v -1.096515 4.523994 -11.914247
v -1.193487 4.523994 -11.842813
v -1.193487 4.636582 -11.914247
v -1.193487 4.537494 -11.834248
v -1.096515 4.650083 -11.834248
v -1.193487 4.650083 -11.834248
v 1.149038 4.523994 -11.914247
v -1.096515 4.523994 -11.834248
v -1.096515 4.650083 -11.914247
v 1.149038 4.650083 -11.834248
v -1.193487 7.337934 -11.914247
v -1.193487 4.650083 -11.914247
v 1.149038 4.523994 -11.834248
v 1.149038 4.650083 -11.914247
v -1.096515 7.660231 -11.914247
v -1.193487 4.972380 -11.834248
v -1.096515 7.660231 -11.834248
v -1.193487 7.660231 -11.834248
v 1.243725 4.523994 -11.834248
v 1.243725 4.523994 -11.894588
v 1.243725 4.554979 -11.914247
v 1.243725 4.650083 -11.914247
v 1.243725 4.619098 -11.834248
v 1.149038 7.660231 -11.834248
v -1.193487 7.774314 -11.914247
v -1.193487 7.660231 -11.914247
v 1.243725 6.920517 -11.834248
v 1.243725 4.650083 -11.834248
v -1.193487 7.787994 -11.842813
v -1.096515 7.787994 -11.914247
v -1.193487 7.787994 -11.914247
v -1.193487 7.673910 -11.834248
v -1.096515 7.787994 -11.834248
v -1.193487 7.787994 -11.834248
v 1.149038 7.660231 -11.914247
v 1.149038 7.787994 -11.914247
v 1.149038 7.787994 -11.834248
v 1.243725 5.389796 -11.914247
v 1.243725 7.660231 -11.914247
v -1.193487 4.523994 -11.834248
v 1.243725 7.691627 -11.914247
v 1.243725 7.787994 -11.914247
v 1.243725 7.756597 -11.834248
v 1.243725 7.660231 -11.834248
v 1.243725 7.787994 -11.894588
v 1.243725 7.787994 -11.834248
v 1.243725 4.523994 -11.914247
vt 0.502677 0.750000
vt 0.525000 0.750000
vt 0.502677 0.973232
vt 0.501355 0.095584
vt 0.512654 0.065616
vt 0.501355 0.065616
vt 0.502677 0.008922
vt 0.525000 0.083333
vt 0.502677 0.083333
vt 0.550000 0.750000
vt 0.525000 1.000000
vt 0.512654 0.099177
vt 0.774301 0.065616
vt 0.525000 0.000000
vt 0.550000 0.083333
vt 0.501355 0.814592
vt 0.501355 0.099177
vt 0.550000 1.000000
vt 0.774301 0.099177
vt 0.550000 0.000000
vt 0.618535 0.072207
vt 0.618535 0.932971
vt 0.945750 0.072207
vt 0.502677 0.092256
vt 0.525000 0.166667
vt 0.502677 0.166667
vt 0.568856 1.000000
vt 0.568856 0.811435
vt 0.785334 0.073863
vt 0.785334 0.099177
vt 0.568856 0.062855
vt 0.568856 0.000000
vt 1.054577 0.946949
vt -0.040704 -0.053051
vt 1.054577 -0.053051
vt -0.040704 0.946949
vt 0.501355 0.930743
vt 0.512654 0.900377
vt 0.501355 0.900377
vt 0.568856 0.146189
vt 0.568856 0.083333
vt 0.502677 0.276768
vt 0.525000 0.500000
vt 0.502677 0.500000
vt 0.502677 0.175589
vt 0.525000 0.250000
vt 0.502677 0.250000
vt 0.945750 0.932971
vt 0.512654 0.934384
vt 0.774301 0.900377
vt 0.550000 0.500000
vt 0.550000 0.250000
vt 0.785334 0.296064
vt 0.785334 0.900377
vt 0.774301 0.934384
vt 0.550000 0.166667
vt 0.502677 1.000000
vt 0.502677 0.000000
vt 0.785334 0.908734
vt 0.785334 0.934384
vt 0.568856 0.229522
vt 0.568856 0.166667
vt 0.568856 0.438565
vt 0.568856 0.250000
vt 0.568856 0.750000
vt 0.785334 0.065616
vt 0.501355 0.934384
vt 0.568856 0.500000
vt 0.650915 0.115221
vt 0.647055 0.115221
vt 0.646592 0.115221
vt 0.646592 0.115685
vt 0.646592 0.119559
vt 0.646592 0.130648
vt 0.646592 0.223128
vt 0.646592 0.223599
vt 0.646592 0.227524
vt 0.647055 0.227524
vt 0.650915 0.227524
vt 0.650915 0.227053
vt 0.650915 0.223128
vt 0.650915 0.212039
vt 0.650915 0.119559
vt 0.650915 0.119095
vt 0.314783 0.078044
vt 0.314783 0.073135
vt 0.311669 0.073135
vt 0.310654 0.073135
vt 0.310654 0.074734
vt 0.310654 0.079643
vt 0.310654 0.117821
vt 0.310654 0.235003
vt 0.310654 0.236624
vt 0.310654 0.241598
vt 0.311669 0.241598
vt 0.314783 0.241598
vt 0.314783 0.239977
vt 0.314783 0.235003
vt 0.314783 0.196825
vt 0.314783 0.079643
vn 0.000000 -1.000000 0.000000
vn 0.000000 -1.000000 0.000000
vn 0.000000 -1.000000 0.000000
vn 0.000000 0.000000 -1.000000
vn 0.000000 0.000000 -1.000000
vn 0.000000 0.000000 -1.000000
vn 0.000000 0.000000 1.000000
vn 0.000000 0.000000 1.000000
vn 0.000000 0.000000 1.000000
vn 0.000000 -1.000000 0.000000
vn 0.000000 -1.000000 0.000000
vn 0.000000 -1.000000 0.000000
vn 0.000000 0.000000 -1.000000
vn 0.000000 0.000000 -1.000000
vn 0.000000 0.000000 -1.000000
vn 0.000000 0.000000 1.000000
vn 0.000000 0.000000 1.000000
vn 0.000000 0.000000 1.000000
vn 0.000000 0.000000 -1.000000
vn 0.000000 0.000000 -1.000000
vn 0.000000 0.000000 -1.000000
vn 0.000000 -1.000000 0.000000
vn 0.000000 -1.000000 0.000000
vn 0.000000 -1.000000 0.000000
vn 0.000000 0.000000 -1.000000
vn 0.000000 0.000000 -1.000000
vn 0.000000 0.000000 -1.000000
vn 0.000000 0.000000 1.000000
vn 0.000000 0.000000 1.000000
vn 0.000000 0.000000 1.000000
vn 0.000000 0.000000 -1.000000
vn 0.000000 0.000000 -1.000000
vn 0.000000 0.000000 -1.000000
vn 0.000000 0.000000 1.000000
vn 0.000000 0.000000 1.000000
vn 0.000000 0.000000 1.000000
vn 0.000000 -1.000000 0.000000
vn 0.000000 -1.000000 0.000000
vn 0.000000 -1.000000 0.000000
vn 0.000000 0.000000 -1.000000
vn 0.000000 0.000000 -1.000000
vn 0.000000 0.000000 -1.000000
vn 0.000000 0.000000 1.000000
vn 0.000000 0.000000 1.000000
vn 0.000000 0.000000 1.000000
vn 0.000000 0.000000 1.000000
vn 0.000000 0.000000 1.000000
vn 0.000000 0.000000 1.000000
vn 0.000000 0.000000 1.000000
vn 0.000000 0.000000 1.000000
vn 0.000000 0.000000 1.000000
vn 0.000000 0.000000 -1.000000
vn 0.000000 0.000000 -1.000000
vn 0.000000 0.000000 -1.000000
vn 0.000000 0.000000 1.000000
vn 0.000000 0.000000 1.000000
vn 0.000000 0.000000 1.000000
vn 0.000000 1.000000 0.000000
vn 0.000000 1.000000 0.000000
vn 0.000000 1.000000 0.000000
vn 0.000000 0.000000 1.000000
vn 0.000000 0.000000 1.000000
vn 0.000000 0.000000 1.000000
vn 0.000000 0.000000 -1.000000
vn 0.000000 0.000000 -1.000000
vn 0.000000 0.000000 -1.000000
vn 0.000000 0.000000 -1.000000
vn 0.000000 0.000000 -1.000000
vn 0.000000 0.000000 -1.000000
vn 0.000000 1.000000 0.000000
vn 0.000000 1.000000 0.000000
vn 0.000000 1.000000 0.000000
vn 0.000000 0.000000 1.000000
vn 0.000000 0.000000 1.000000
vn 0.000000 0.000000 1.000000
vn 0.000000 0.000000 -1.000000
vn 0.000000 0.000000 -1.000000
vn 0.000000 0.000000 -1.000000
vn 0.000000 0.000000 -1.000000
vn 0.000000 0.000000 -1.000000
vn 0.000000 0.000000 -1.000000
vn 0.000000 0.000000 1.000000
vn 0.000000 0.000000 1.000000
vn 0.000000 0.000000 1.000000
vn 0.000000 1.000000 0.000000
vn 0.000000 1.000000 0.000000
vn 0.000000 1.000000 0.000000
vn 0.000000 -1.000000 0.000000
vn 0.000000 -1.000000 0.000000
vn 0.000000 -1.000000 0.000000
vn 0.000000 -1.000000 0.000000
vn 0.000000 0.000000 -1.000000
vn 0.000000 0.000000 -1.000000
vn 0.000000 0.000000 -1.000000
vn 0.000000 0.000000 -1.000000
vn 0.000000 0.000000 1.000000
vn 0.000000 0.000000 1.000000
vn 0.000000 0.000000 1.000000
vn 0.000000 0.000000 1.000000
vn 0.000000 0.000000 -1.000000
vn 0.000000 0.000000 -1.000000
vn 0.000000 0.000000 -1.000000
vn 0.000000 0.000000 1.000000
vn 0.000000 0.000000 1.000000
vn 0.000000 0.000000 1.000000
vn 0.000000 1.000000 0.000000
vn 0.000000 1.000000 0.000000
vn 0.000000 1.000000 0.000000
vn 0.000000 0.000000 1.000000
vn 0.000000 0.000000 1.000000
vn 0.000000 0.000000 1.000000
vn 0.000000 0.000000 1.000000
vn 0.000000 0.000000 -1.000000
vn 0.000000 0.000000 -1.000000
vn 0.000000 0.000000 -1.000000
vn 0.000000 0.000000 -1.000000
vn 0.000000 -1.000000 0.000000
vn 0.000000 -1.000000 0.000000
vn 0.000000 -1.000000 0.000000
vn 0.000000 -1.000000 0.000000
vn 0.000000 0.000000 -1.000000
vn 0.000000 0.000000 -1.000000
vn 0.000000 0.000000 -1.000000
vn 0.000000 0.000000 -1.000000
vn 0.000000 0.000000 1.000000
vn 0.000000 0.000000 1.000000
vn 0.000000 0.000000 1.000000
vn 0.000000 0.000000 1.000000
vn 0.000000 0.000000 -1.000000
vn 0.000000 0.000000 -1.000000
vn 0.000000 0.000000 -1.000000
vn 0.000000 0.000000 -1.000000
vn 0.000000 0.000000 1.000000
vn 0.000000 0.000000 1.000000
vn 0.000000 0.000000 1.000000
vn 0.000000 0.000000 1.000000
vn 0.000000 1.000000 0.000000
vn 0.000000 1.000000 0.000000
vn 0.000000 1.000000 0.000000
vn 0.000000 1.000000 0.000000
vn 0.000000 0.000000 -1.000000
vn 0.000000 0.000000 -1.000000
vn 0.000000 0.000000 -1.000000
vn 0.000000 0.000000 -1.000000
vn 0.000000 0.000000 1.000000
vn 0.000000 0.000000 1.000000
vn 0.000000 0.000000 1.000000
vn 0.000000 0.000000 1.000000
vn 0.000000 0.000000 -1.000000
vn 0.000000 0.000000 -1.000000
vn 0.000000 0.000000 -1.000000
vn 0.000000 0.000000 -1.000000
vn 0.000000 1.000000 0.000000
vn 0.000000 1.000000 0.000000
vn 0.000000 1.000000 0.000000
vn 0.000000 1.000000 0.000000
vn 0.000000 0.000000 1.000000
vn 0.000000 0.000000 1.000000
vn 0.000000 0.000000 1.000000
vn 0.000000 0.000000 1.000000
vn -1.000000 0.000000 0.000000
vn -1.000000 0.000000 0.000000
vn -1.000000 0.000000 0.000000
vn -1.000000 0.000000 0.000000
vn -1.000000 0.000000 0.000000
vn -1.000000 0.000000 0.000000
vn -1.000000 0.000000 0.000000
vn -1.000000 0.000000 0.000000
vn -1.000000 0.000000 0.000000
vn -1.000000 0.000000 0.000000
vn -1.000000 0.000000 0.000000
vn -1.000000 0.000000 0.000000
vn -1.000000 0.000000 0.000000
vn -1.000000 0.000000 0.000000
vn -1.000000 0.000000 0.000000
vn -1.000000 0.000000 0.000000
vn 1.000000 0.000000 0.000000
vn 1.000000 0.000000 0.000000
vn 1.000000 0.000000 0.000000
vn 1.000000 0.000000 0.000000
vn 1.000000 0.000000 0.000000
vn 1.000000 0.000000 0.000000
vn 1.000000 0.000000 0.000000
vn 1.000000 0.000000 0.000000
vn 1.000000 0.000000 0.000000
vn 1.000000 0.000000 0.000000
vn 1.000000 0.000000 0.000000
vn 1.000000 0.000000 0.000000
vn 1.000000 0.000000 0.000000
vn 1.000000 0.000000 0.000000
vn 1.000000 0.000000 0.000000
vn 1.000000 0.000000 0.000000
s off
g polySurface6584 puertaUno:pasted__pasted__FachadaFinal_pCube8
usemtl puertaUno:pasted__pasted__FachadaFinal_lambert28SG6
f 1/1/1 2/2/2 3/3/3
f 4/4/4 2/5/5 1/6/6
f 5/7/7 6/8/8 7/9/9
f 2/2/10 8/10/11 9/11/12
f 2/5/13 10/12/14 8/13/15
f 6/8/16 9/14/17 11/15/18
f 12/16/19 10/12/20 13/17/21
f 9/11/22 8/10/23 14/18/24
f 8/13/25 10/12/26 15/19/27
f 11/15/28 9/14/29 14/20/30
usemtl puertaUno:pasted__pasted__FachadaFinal_lambert30SG10
f 10/21/31 16/22/32 15/23/33
usemtl puertaUno:pasted__pasted__FachadaFinal_lambert28SG6
f 17/24/34 18/25/35 19/26/36
f 20/27/37 14/18/38 21/28/39
f 22/29/40 15/19/41 23/30/42
f 24/31/43 14/20/44 20/32/45
usemtl puertaUno:pasted__pasted__FachadaFinal_lambert40SG10
f 25/33/46 6/34/47 11/35/48
f 18/36/49 6/34/50 25/33/51
usemtl puertaUno:pasted__pasted__FachadaFinal_lambert28SG6
f 26/37/52 16/38/53 27/39/54
f 28/40/55 11/15/56 29/41/57
f 30/42/58 31/43/59 32/44/60
f 33/45/61 34/46/62 35/47/63
usemtl puertaUno:pasted__pasted__FachadaFinal_lambert30SG10
f 15/23/64 16/22/65 36/48/66
usemtl puertaUno:pasted__pasted__FachadaFinal_lambert28SG6
f 16/38/67 31/49/68 36/50/69
f 31/43/70 34/46/71 37/51/72
f 34/46/73 18/25/74 38/52/75
f 39/53/76 36/50/77 40/54/78
f 36/50/79 31/49/80 37/55/81
f 38/52/82 18/25/83 25/56/84
f 37/51/85 34/46/86 38/52/87
f 3/3/88 2/2/89 9/11/90 41/57/91
f 13/17/92 10/12/93 2/5/94 4/4/95
f 41/58/96 9/14/97 6/8/98 5/7/99
f 42/59/100 37/55/101 43/60/102
f 44/61/103 25/56/104 45/62/105
f 46/63/106 38/52/107 47/64/108
f 7/9/109 6/8/110 18/25/111 17/24/112
f 27/39/113 16/38/114 10/12/115 12/16/116
f 21/28/117 14/18/118 8/10/119 48/65/120
f 48/66/121 8/13/122 15/19/123 22/29/124
f 29/41/125 11/15/126 14/20/127 24/31/128
f 32/67/129 31/49/130 16/38/131 26/37/132
f 19/26/133 18/25/134 34/46/135 33/45/136
f 35/47/137 34/46/138 31/43/139 30/42/140
f 23/30/141 15/19/142 36/50/143 39/53/144
f 45/62/145 25/56/146 11/15/147 28/40/148
f 40/54/149 36/50/150 37/55/151 42/59/152
f 43/68/153 37/51/154 38/52/155 46/63/156
f 47/64/157 38/52/158 25/56/159 44/61/160
usemtl puertaUno:initialShadingGroup
f 1/69/161 3/70/162 41/71/163 5/72/164 7/73/165 17/74/166 19/75/167 33/76/168 35/77/169 30/78/170 32/79/171 26/80/172 27/81/173 12/82/174 13/83/175 4/84/176
f 24/85/177 20/86/178 21/87/179 48/88/180 22/89/181 23/90/182 39/91/183 40/92/184 42/93/185 43/94/186 46/95/187 47/96/188 44/97/189 45/98/190 28/99/191 29/100/192
