# This file uses centimeters as units for non-parametric coordinates.

mtllib puertaDos.mtl
g default
v 1.188924 4.542635 -11.910109
v 1.300352 4.542635 -11.910109
v 1.188924 4.542635 -11.845279
v 1.188924 4.644814 -11.910109
v 1.188924 4.566544 -11.830109
v 1.300352 4.668724 -11.830109
v 1.188924 4.668724 -11.830109
v 3.538777 4.542635 -11.910109
v 1.300352 4.542635 -11.830109
v 1.300352 4.668724 -11.910109
v 1.188924 7.108091 -11.910109
v 1.188924 4.668724 -11.910109
v 3.538777 4.668724 -11.830109
v 3.538777 4.542635 -11.830109
v 3.538777 4.668724 -11.910109
v 1.300352 7.678872 -11.910109
v 3.642541 4.542635 -11.910109
v 3.642541 4.542635 -11.830109
v 1.188924 5.239505 -11.830109
v 1.300352 7.678872 -11.830109
v 1.188924 7.678872 -11.830109
v 3.642541 4.668724 -11.910109
v 3.655259 4.542635 -11.830109
v 3.655259 4.542635 -11.839478
v 3.642541 4.668724 -11.830109
v 3.655259 4.557402 -11.830109
v 3.655259 4.653956 -11.910109
v 3.655259 4.668724 -11.910109
v 3.655259 5.021249 -11.830109
v 3.655259 4.668724 -11.830109
v 3.538777 7.678872 -11.830109
v 1.188924 7.782409 -11.910109
v 1.188924 7.678872 -11.910109
v 1.188924 7.806635 -11.845279
v 1.300352 7.806635 -11.910109
v 1.188924 7.806635 -11.910109
v 1.188924 7.703098 -11.830109
v 1.300352 7.806635 -11.830109
v 1.188924 7.806635 -11.830109
v 3.538777 7.678872 -11.910109
v 3.642541 7.678872 -11.830109
v 1.188924 4.542635 -11.830109
v 3.538777 7.806635 -11.910109
v 3.538777 7.806635 -11.830109
v 3.642541 7.678872 -11.910109
v 3.655259 7.326347 -11.910109
v 3.655259 7.678872 -11.910109
v 3.642541 7.806635 -11.910109
v 3.642541 7.806635 -11.830109
v 3.655259 7.693835 -11.830109
v 3.655259 7.678872 -11.830109
v 3.655259 7.791672 -11.910109
v 3.655259 7.806635 -11.910109
v 3.655259 7.806635 -11.839478
v 3.655259 7.806635 -11.830109
v 3.655259 4.542635 -11.910109
vt 0.429740 0.750000
vt 0.450000 0.750000
vt 0.429740 0.952595
vt 0.214110 0.092813
vt 0.227094 0.065616
vt 0.214110 0.065616
vt 0.429740 0.015802
vt 0.450000 0.083333
vt 0.429740 0.083333
vt 0.475000 0.750000
vt 0.450000 1.000000
vt 0.227094 0.099177
vt 0.487910 0.065616
vt 0.214110 0.748454
vt 0.214110 0.099177
vt 0.450000 0.000000
vt 0.475000 0.083333
vt 0.475000 1.000000
vt 0.487910 0.099177
vt 0.475000 0.000000
vt 0.559533 0.010558
vt 0.559533 1.010558
vt 0.938581 0.010558
vt 0.500000 0.750000
vt 0.500000 0.065616
vt 0.500000 1.000000
vt 0.429740 0.099135
vt 0.450000 0.166667
vt 0.429740 0.166667
vt 0.500000 0.099177
vt 0.502928 1.000000
vt 0.502928 0.970722
vt 0.500000 0.083333
vt 0.500000 0.000000
vt 0.502928 0.009759
vt 0.502928 0.000000
vt 0.501482 0.095247
vt 0.501482 0.099177
vt 0.502928 0.093092
vt 0.502928 0.083333
vt 0.385595 0.786880
vt 0.034893 0.151661
vt 0.385595 0.151661
vt 0.034893 0.786880
vt 0.214110 0.927936
vt 0.227094 0.900377
vt 0.214110 0.900377
vt 0.429740 0.297405
vt 0.450000 0.500000
vt 0.429740 0.500000
vt 0.429740 0.182469
vt 0.450000 0.250000
vt 0.429740 0.250000
vt 0.487910 0.900377
vt 0.500000 0.166667
vt 0.938581 1.010558
vt 0.429740 1.000000
vt 0.429740 0.000000
vt 0.227094 0.934384
vt 0.475000 0.500000
vt 0.475000 0.250000
vt 0.500000 0.900377
vt 0.475000 0.166667
vt 0.487910 0.934384
vt 0.501482 0.806547
vt 0.501482 0.900377
vt 0.500000 0.934384
vt 0.500000 0.500000
vt 0.500000 0.250000
vt 0.502928 0.176426
vt 0.502928 0.166667
vt 0.501482 0.930401
vt 0.501482 0.934384
vt 0.502928 0.279278
vt 0.502928 0.250000
vt 0.502928 0.750000
vt 0.501482 0.065616
vt 0.214110 0.934384
vt 0.502928 0.500000
vt 0.692008 0.205893
vt 0.692008 0.205297
vt 0.692008 0.202750
vt 0.692008 0.188710
vt 0.692008 0.128706
vt 0.692008 0.128118
vt 0.692008 0.125604
vt 0.685290 0.125605
vt 0.683719 0.125604
vt 0.683719 0.126193
vt 0.683719 0.128706
vt 0.683719 0.142746
vt 0.683719 0.202750
vt 0.683719 0.203346
vt 0.683719 0.205893
vt 0.685290 0.205893
vt 0.209975 0.119559
vt 0.209975 0.115729
vt 0.209975 0.115221
vt 0.209468 0.115221
vt 0.205652 0.115221
vt 0.205652 0.119051
vt 0.205652 0.119559
vt 0.205652 0.210999
vt 0.205652 0.223128
vt 0.205652 0.227009
vt 0.205652 0.227524
vt 0.209468 0.227524
vt 0.209975 0.227524
vt 0.209975 0.223643
vt 0.209975 0.223128
vt 0.209975 0.131688
vn 0.000000 -1.000000 0.000000
vn 0.000000 -1.000000 0.000000
vn 0.000000 -1.000000 0.000000
vn 0.000000 0.000000 -1.000000
vn 0.000000 0.000000 -1.000000
vn 0.000000 0.000000 -1.000000
vn 0.000000 0.000000 1.000000
vn 0.000000 0.000000 1.000000
vn 0.000000 0.000000 1.000000
vn 0.000000 -1.000000 0.000000
vn 0.000000 -1.000000 0.000000
vn 0.000000 -1.000000 0.000000
vn 0.000000 0.000000 -1.000000
vn 0.000000 0.000000 -1.000000
vn 0.000000 0.000000 -1.000000
vn 0.000000 0.000000 -1.000000
vn 0.000000 0.000000 -1.000000
vn 0.000000 0.000000 -1.000000
vn 0.000000 0.000000 1.000000
vn 0.000000 0.000000 1.000000
vn 0.000000 0.000000 1.000000
vn 0.000000 -1.000000 0.000000
vn 0.000000 -1.000000 0.000000
vn 0.000000 -1.000000 0.000000
vn 0.000000 0.000000 -1.000000
vn 0.000000 0.000000 -1.000000
vn 0.000000 0.000000 -1.000000
vn 0.000000 0.000000 1.000000
vn 0.000000 0.000000 1.000000
vn 0.000000 0.000000 1.000000
vn 0.000000 0.000000 -1.000000
vn 0.000000 0.000000 -1.000000
vn 0.000000 0.000000 -1.000000
vn 0.000000 -1.000000 0.000000
vn 0.000000 -1.000000 0.000000
vn 0.000000 -1.000000 0.000000
vn 0.000000 0.000000 -1.000000
vn 0.000000 0.000000 -1.000000
vn 0.000000 0.000000 -1.000000
vn 0.000000 -1.000000 0.000000
vn 0.000000 -1.000000 0.000000
vn 0.000000 -1.000000 0.000000
vn 0.000000 0.000000 1.000000
vn 0.000000 0.000000 1.000000
vn 0.000000 0.000000 1.000000
vn 0.000000 0.000000 -1.000000
vn 0.000000 0.000000 -1.000000
vn 0.000000 0.000000 -1.000000
vn 0.000000 -1.000000 0.000000
vn 0.000000 -1.000000 0.000000
vn 0.000000 -1.000000 0.000000
vn 0.000000 0.000000 1.000000
vn 0.000000 0.000000 1.000000
vn 0.000000 0.000000 1.000000
vn 0.000000 0.000000 1.000000
vn 0.000000 0.000000 1.000000
vn 0.000000 0.000000 1.000000
vn 0.000000 0.000000 1.000000
vn 0.000000 0.000000 1.000000
vn 0.000000 0.000000 1.000000
vn 0.000000 0.000000 -1.000000
vn 0.000000 0.000000 -1.000000
vn 0.000000 0.000000 -1.000000
vn 0.000000 0.000000 1.000000
vn 0.000000 0.000000 1.000000
vn 0.000000 0.000000 1.000000
vn 0.000000 0.000000 1.000000
vn 0.000000 0.000000 1.000000
vn 0.000000 0.000000 1.000000
vn 0.000000 0.000000 1.000000
vn 0.000000 0.000000 1.000000
vn 0.000000 0.000000 1.000000
vn 0.000000 0.000000 -1.000000
vn 0.000000 0.000000 -1.000000
vn 0.000000 0.000000 -1.000000
vn 0.000000 1.000000 0.000000
vn 0.000000 1.000000 0.000000
vn 0.000000 1.000000 0.000000
vn 0.000000 0.000000 1.000000
vn 0.000000 0.000000 1.000000
vn 0.000000 0.000000 1.000000
vn 0.000000 0.000000 -1.000000
vn 0.000000 0.000000 -1.000000
vn 0.000000 0.000000 -1.000000
vn 0.000000 0.000000 1.000000
vn 0.000000 0.000000 1.000000
vn 0.000000 0.000000 1.000000
vn 0.000000 0.000000 -1.000000
vn 0.000000 0.000000 -1.000000
vn 0.000000 0.000000 -1.000000
vn 0.000000 -1.000000 0.000000
vn 0.000000 -1.000000 0.000000
vn 0.000000 -1.000000 0.000000
vn 0.000000 -1.000000 0.000000
vn 0.000000 0.000000 -1.000000
vn 0.000000 0.000000 -1.000000
vn 0.000000 0.000000 -1.000000
vn 0.000000 0.000000 -1.000000
vn 0.000000 0.000000 1.000000
vn 0.000000 0.000000 1.000000
vn 0.000000 0.000000 1.000000
vn 0.000000 0.000000 1.000000
vn 0.000000 0.000000 -1.000000
vn 0.000000 0.000000 -1.000000
vn 0.000000 0.000000 -1.000000
vn 0.000000 1.000000 0.000000
vn 0.000000 1.000000 0.000000
vn 0.000000 1.000000 0.000000
vn 0.000000 0.000000 1.000000
vn 0.000000 0.000000 1.000000
vn 0.000000 0.000000 1.000000
vn 0.000000 0.000000 -1.000000
vn 0.000000 0.000000 -1.000000
vn 0.000000 0.000000 -1.000000
vn 0.000000 0.000000 1.000000
vn 0.000000 0.000000 1.000000
vn 0.000000 0.000000 1.000000
vn 0.000000 0.000000 -1.000000
vn 0.000000 0.000000 -1.000000
vn 0.000000 0.000000 -1.000000
vn 0.000000 0.000000 1.000000
vn 0.000000 0.000000 1.000000
vn 0.000000 0.000000 1.000000
vn 0.000000 1.000000 0.000000
vn 0.000000 1.000000 0.000000
vn 0.000000 1.000000 0.000000
vn 0.000000 0.000000 -1.000000
vn 0.000000 0.000000 -1.000000
vn 0.000000 0.000000 -1.000000
vn 0.000000 0.000000 -1.000000
vn 0.000000 0.000000 -1.000000
vn 0.000000 0.000000 -1.000000
vn 0.000000 0.000000 -1.000000
vn 0.000000 0.000000 -1.000000
vn 0.000000 0.000000 -1.000000
vn 0.000000 1.000000 0.000000
vn 0.000000 1.000000 0.000000
vn 0.000000 1.000000 0.000000
vn 0.000000 0.000000 1.000000
vn 0.000000 0.000000 1.000000
vn 0.000000 0.000000 1.000000
vn 0.000000 0.000000 1.000000
vn 0.000000 0.000000 1.000000
vn 0.000000 0.000000 1.000000
vn 0.000000 0.000000 1.000000
vn 0.000000 0.000000 1.000000
vn 0.000000 0.000000 1.000000
vn 0.000000 0.000000 -1.000000
vn 0.000000 0.000000 -1.000000
vn 0.000000 0.000000 -1.000000
vn 0.000000 1.000000 0.000000
vn 0.000000 1.000000 0.000000
vn 0.000000 1.000000 0.000000
vn 0.000000 0.000000 1.000000
vn 0.000000 0.000000 1.000000
vn 0.000000 0.000000 1.000000
vn 0.000000 0.000000 1.000000
vn 0.000000 1.000000 0.000000
vn 0.000000 1.000000 0.000000
vn 0.000000 1.000000 0.000000
vn 0.000000 0.000000 -1.000000
vn 0.000000 0.000000 -1.000000
vn 0.000000 0.000000 -1.000000
vn 0.000000 0.000000 -1.000000
vn 0.000000 -1.000000 0.000000
vn 0.000000 -1.000000 0.000000
vn 0.000000 -1.000000 0.000000
vn 0.000000 -1.000000 0.000000
vn 0.000000 0.000000 -1.000000
vn 0.000000 0.000000 -1.000000
vn 0.000000 0.000000 -1.000000
vn 0.000000 0.000000 -1.000000
vn 0.000000 0.000000 1.000000
vn 0.000000 0.000000 1.000000
vn 0.000000 0.000000 1.000000
vn 0.000000 0.000000 1.000000
vn 0.000000 0.000000 -1.000000
vn 0.000000 0.000000 -1.000000
vn 0.000000 0.000000 -1.000000
vn 0.000000 0.000000 -1.000000
vn 0.000000 0.000000 1.000000
vn 0.000000 0.000000 1.000000
vn 0.000000 0.000000 1.000000
vn 0.000000 0.000000 1.000000
vn 0.000000 1.000000 0.000000
vn 0.000000 1.000000 0.000000
vn 0.000000 1.000000 0.000000
vn 0.000000 1.000000 0.000000
vn 0.000000 0.000000 -1.000000
vn 0.000000 0.000000 -1.000000
vn 0.000000 0.000000 -1.000000
vn 0.000000 0.000000 -1.000000
vn 0.000000 0.000000 1.000000
vn 0.000000 0.000000 1.000000
vn 0.000000 0.000000 1.000000
vn 0.000000 0.000000 1.000000
vn 0.000000 0.000000 -1.000000
vn 0.000000 0.000000 -1.000000
vn 0.000000 0.000000 -1.000000
vn 0.000000 0.000000 -1.000000
vn 0.000000 0.000000 1.000000
vn 0.000000 0.000000 1.000000
vn 0.000000 0.000000 1.000000
vn 0.000000 0.000000 1.000000
vn 0.000000 1.000000 0.000000
vn 0.000000 1.000000 0.000000
vn 0.000000 1.000000 0.000000
vn 0.000000 1.000000 0.000000
vn -1.000000 0.000000 0.000000
vn -1.000000 0.000000 0.000000
vn -1.000000 0.000000 0.000000
vn -1.000000 0.000000 0.000000
vn -1.000000 0.000000 0.000000
vn -1.000000 0.000000 0.000000
vn -1.000000 0.000000 0.000000
vn -1.000000 0.000000 0.000000
vn -1.000000 0.000000 0.000000
vn -1.000000 0.000000 0.000000
vn -1.000000 0.000000 0.000000
vn -1.000000 0.000000 0.000000
vn -1.000000 0.000000 0.000000
vn -1.000000 0.000000 0.000000
vn -1.000000 0.000000 0.000000
vn -1.000000 0.000000 0.000000
vn 1.000000 0.000000 0.000000
vn 1.000000 0.000000 0.000000
vn 1.000000 0.000000 0.000000
vn 1.000000 0.000000 0.000000
vn 1.000000 0.000000 0.000000
vn 1.000000 0.000000 0.000000
vn 1.000000 0.000000 0.000000
vn 1.000000 0.000000 0.000000
vn 1.000000 0.000000 0.000000
vn 1.000000 0.000000 0.000000
vn 1.000000 0.000000 0.000000
vn 1.000000 0.000000 0.000000
vn 1.000000 0.000000 0.000000
vn 1.000000 0.000000 0.000000
vn 1.000000 0.000000 0.000000
vn 1.000000 0.000000 0.000000
s off
g polySurface6587 puertaUno:pasted__pasted__FachadaFinal_pCube8
usemtl puertados:pasted__FachadaFinal_lambert28SG6
f 1/1/1 2/2/2 3/3/3
f 4/4/4 2/5/5 1/6/6
f 5/7/7 6/8/8 7/9/9
f 2/2/10 8/10/11 9/11/12
f 2/5/13 10/12/14 8/13/15
f 11/14/16 10/12/17 12/15/18
f 6/8/19 9/16/20 13/17/21
f 9/11/22 8/10/23 14/18/24
f 8/13/25 10/12/26 15/19/27
f 13/17/28 9/16/29 14/20/30
usemtl puertados:pasted__FachadaFinal_lambert30SG10
f 10/21/31 16/22/32 15/23/33
usemtl puertados:pasted__FachadaFinal_lambert28SG6
f 8/10/34 17/24/35 14/18/36
f 8/13/37 15/19/38 17/25/39
f 14/18/40 17/24/41 18/26/42
f 19/27/43 20/28/44 21/29/45
f 17/25/46 15/19/47 22/30/48
f 23/31/49 18/26/50 24/32/51
f 25/33/52 14/20/53 18/34/54
f 26/35/55 18/34/56 23/36/57
f 13/17/58 14/20/59 25/33/60
f 27/37/61 22/30/62 28/38/63
f 29/39/64 25/33/65 30/40/66
usemtl puertados:pasted__FachadaFinal_lambert34SG6
f 31/41/67 6/42/68 13/43/69
f 20/44/70 6/42/71 31/41/72
usemtl puertados:pasted__FachadaFinal_lambert28SG6
f 32/45/73 16/46/74 33/47/75
f 34/48/76 35/49/77 36/50/78
f 37/51/79 38/52/80 39/53/81
f 15/19/82 40/54/83 22/30/84
f 41/55/85 13/17/86 25/33/87
usemtl puertados:pasted__FachadaFinal_lambert30SG10
f 15/23/88 16/22/89 40/56/90
usemtl puertados:pasted__FachadaFinal_lambert28SG6
f 3/3/91 2/2/92 9/11/93 42/57/94
f 12/15/95 10/12/96 2/5/97 4/4/98
f 42/58/99 9/16/100 6/8/101 5/7/102
f 16/46/103 35/59/104 40/54/105
f 35/49/106 38/52/107 43/60/108
f 38/52/109 20/28/110 44/61/111
f 22/30/112 40/54/113 45/62/114
f 31/63/115 13/17/116 41/55/117
f 40/54/118 35/59/119 43/64/120
f 44/61/121 20/28/122 31/63/123
f 43/60/124 38/52/125 44/61/126
f 46/65/127 45/62/128 47/66/129
f 40/54/130 43/64/131 45/62/132
f 45/62/133 43/64/134 48/67/135
f 43/60/136 44/61/137 48/68/138
f 49/69/139 31/63/140 41/55/141
f 50/70/142 41/55/143 51/71/144
f 44/61/145 31/63/146 49/69/147
f 52/72/148 48/67/149 53/73/150
f 48/68/151 44/61/152 49/69/153
f 7/9/154 6/8/155 20/28/156 19/27/157
f 54/74/158 49/69/159 55/75/160
f 33/47/161 16/46/162 10/12/163 11/14/164
f 24/32/165 18/26/166 17/24/167 56/76/168
f 56/77/169 17/25/170 22/30/171 27/37/172
f 30/40/173 25/33/174 18/34/175 26/35/176
f 36/78/177 35/59/178 16/46/179 32/45/180
f 21/29/181 20/28/182 38/52/183 37/51/184
f 39/53/185 38/52/186 35/49/187 34/48/188
f 28/38/189 22/30/190 45/62/191 46/65/192
f 51/71/193 41/55/194 25/33/195 29/39/196
f 47/66/197 45/62/198 48/67/199 52/72/200
f 55/75/201 49/69/202 41/55/203 50/70/204
f 53/79/205 48/68/206 49/69/207 54/74/208
usemtl puertados:initialShadingGroup
f 36/80/209 32/81/210 33/82/211 11/83/212 12/84/213 4/85/214 1/86/215 3/87/216 42/88/217 5/89/218 7/90/219 19/91/220 21/92/221 37/93/222 39/94/223 34/95/224
f 30/96/225 26/97/226 23/98/227 24/99/228 56/100/229 27/101/230 28/102/231 46/103/232 47/104/233 52/105/234 53/106/235 54/107/236 55/108/237 50/109/238 51/110/239 29/111/240
