# This file uses centimeters as units for non-parametric coordinates.

mtllib VidriosVitrina.mtl
g default
v 0.283890 5.686595 -22.656370
v -0.577877 5.686595 -22.656370
v -0.577877 5.734856 -22.656370
v -0.577877 6.544113 -22.656370
v -0.577877 6.602079 -22.656370
v -0.339537 6.602079 -22.656370
v 0.276066 6.045415 -22.656370
v 0.283890 5.939791 -22.656370
v 0.283890 5.735860 -22.656370
v -0.240108 6.593766 -22.656370
v -0.145365 6.569601 -22.656370
v -0.055342 6.529988 -22.656370
v 0.027743 6.475902 -22.656370
v 0.101833 6.408675 -22.656370
v 0.165111 6.329963 -22.656370
v 0.216026 6.241703 -22.656370
v 0.253320 6.146069 -22.656370
v 0.342097 5.686529 -22.544195
v 0.342097 5.942221 -22.544195
v 0.342097 5.942221 -21.259808
v 0.342097 5.686529 -21.259808
v -0.337252 6.663914 -22.544195
v -0.337252 6.663914 -21.259808
v -0.230976 6.655028 -21.259808
v -0.230976 6.655028 -22.544195
v -0.127323 6.628592 -21.259808
v -0.127323 6.628592 -22.544195
v -0.028832 6.585254 -21.259808
v -0.028832 6.585255 -22.544195
v 0.062060 6.526083 -21.259808
v 0.062060 6.526083 -22.544195
v 0.143119 6.452536 -21.259808
v 0.143119 6.452536 -22.544195
v 0.212353 6.366422 -21.259808
v 0.212353 6.366422 -22.544195
v 0.268054 6.269863 -21.259808
v 0.268054 6.269863 -22.544195
v 0.308843 6.165236 -21.259808
v 0.308843 6.165238 -22.544195
v 0.333735 6.055119 -21.259808
v 0.333735 6.055119 -22.544195
v 0.333735 6.055119 -21.156425
v 0.333735 6.055119 -19.871115
v 0.342097 5.942221 -19.871115
v 0.342097 5.942221 -21.156425
v 0.308843 6.165236 -21.156425
v 0.308843 6.165236 -19.871115
v 0.268054 6.269863 -21.156425
v 0.268054 6.269863 -19.871115
v 0.212353 6.366422 -21.156425
v 0.212353 6.366422 -19.871115
v 0.143119 6.452536 -21.156425
v 0.143119 6.452536 -19.871115
v 0.062060 6.526083 -21.156425
v 0.062060 6.526083 -19.871115
v -0.028832 6.585254 -21.156425
v -0.028832 6.585254 -19.871115
v -0.127323 6.628592 -21.156425
v -0.127323 6.628591 -19.871115
v -0.230976 6.655028 -21.156425
v -0.230976 6.655028 -19.871115
v -0.337252 6.663914 -21.156425
v -0.337252 6.663914 -19.871115
v 0.342097 5.686529 -21.156425
v 0.342097 5.686528 -19.871115
v -0.577877 5.686595 -19.783745
v 0.283890 5.686595 -19.783745
v 0.283890 5.735859 -19.783745
v 0.283890 5.939791 -19.783745
v 0.276066 6.045415 -19.783745
v 0.253320 6.146069 -19.783745
v 0.216026 6.241703 -19.783745
v 0.165111 6.329963 -19.783745
v 0.101833 6.408675 -19.783745
v 0.027743 6.475902 -19.783745
v -0.055342 6.529988 -19.783745
v -0.145365 6.569601 -19.783745
v -0.240108 6.593766 -19.783745
v -0.339537 6.602079 -19.783745
v -0.577877 6.602079 -19.783745
v -0.577877 6.544113 -19.783745
v -0.577877 5.734856 -19.783745
vt 0.970017 0.244797
vt 0.551515 0.244797
vt 0.551515 0.268990
vt 0.265166 0.627701
vt 0.265166 0.602567
vt 0.338339 0.602567
vt 0.551515 0.674659
vt 0.527337 0.843938
vt 0.529739 0.889737
vt 0.529739 0.978163
vt 0.970017 0.269493
vt 0.368864 0.606171
vt 0.397953 0.616649
vt 0.425591 0.633825
vt 0.452839 0.971911
vt 0.786827 0.690217
vt 1.084671 0.340078
vt 0.528883 0.651313
vt 0.744194 0.468146
vt 0.917435 0.262761
vt 0.486088 0.656880
vt 0.713219 0.478726
vt 0.851749 0.291221
vt 0.966218 0.424669
vt 0.715546 0.699549
vt 0.805275 0.667578
vt 0.527802 0.666413
vt 0.764074 0.494752
vt 0.935734 0.258481
vt 0.937060 0.523065
vt 1.000000 0.006728
vt 1.000000 0.252898
vt 1.000000 0.252898
vt 0.592687 0.000218
vt 0.296776 0.111087
vt 0.296776 0.000218
vt 0.305498 0.947717
vt 0.305498 0.947717
vt 0.414146 0.939162
vt 0.414146 0.939162
vt 0.520109 0.913710
vt 0.520109 0.913710
vt 0.620798 0.871986
vt 0.620798 0.871986
vt 0.713717 0.815019
vt 0.713717 0.815019
vt 0.796583 0.744210
vt 0.796583 0.744210
vt 0.867362 0.661303
vt 0.867362 0.661303
vt 0.924305 0.568340
vt 0.924305 0.568340
vt 0.966004 0.467609
vt 0.966004 0.467610
vt 0.991449 0.361592
vt 0.991449 0.361592
vt 0.000218 0.442157
vt 0.296341 0.442157
vt 0.296341 0.491261
vt 0.000218 0.491261
vt 0.000218 0.393053
vt 0.296341 0.393053
vt 0.000218 0.343948
vt 0.296341 0.343948
vt 0.000218 0.294844
vt 0.296341 0.294844
vt 0.000218 0.245740
vt 0.296341 0.245740
vt 0.000218 0.196635
vt 0.296341 0.196635
vt 0.000218 0.147531
vt 0.296341 0.147531
vt 0.000218 0.098426
vt 0.296341 0.098426
vt 0.000218 0.049322
vt 0.296341 0.049322
vt 0.000218 0.000218
vt 0.296341 0.000218
vt 0.000218 0.602130
vt 0.296341 0.602131
vt 0.264730 0.602917
vt 0.264730 0.999782
vt 0.250496 0.999782
vt 0.191573 0.999782
vt 0.161055 0.996179
vt 0.131973 0.985703
vt 0.104342 0.968531
vt 0.078841 0.945084
vt 0.056098 0.915941
vt 0.036674 0.881819
vt 0.021047 0.843558
vt 0.009601 0.802100
vt 0.002620 0.758467
vt 0.000218 0.712679
vt 0.000218 0.602917
vt 0.016966 0.602917
vt 0.250535 0.602567
vn 0.000000 0.000000 -1.000000
vn 0.000000 0.000000 -1.000000
vn 0.000000 0.000000 -1.000000
vn 0.000000 0.000000 -1.000000
vn 0.000000 0.000000 -1.000000
vn 0.000000 0.000000 -1.000000
vn 0.000000 0.000000 -1.000000
vn 0.000000 0.000000 -1.000000
vn 0.000000 0.000000 -1.000000
vn 0.000000 0.000000 -1.000000
vn 0.000000 0.000000 -1.000000
vn 0.000000 0.000000 -1.000000
vn 0.000000 0.000000 -1.000000
vn 0.000000 0.000000 -1.000000
vn 0.000000 0.000000 -1.000000
vn 0.000000 0.000000 -1.000000
vn 0.000000 0.000000 -1.000000
vn 0.000000 0.000000 -1.000000
vn 0.000000 0.000000 -1.000000
vn 0.000000 0.000000 -1.000000
vn 0.000000 0.000000 -1.000000
vn 0.000000 0.000000 -1.000000
vn 0.000000 0.000000 -1.000000
vn 0.000000 0.000000 -1.000000
vn 0.000000 0.000000 -1.000000
vn 0.000000 0.000000 -1.000000
vn 0.000000 0.000000 -1.000000
vn 0.000000 0.000000 -1.000000
vn 0.000000 0.000000 -1.000000
vn 0.000000 0.000000 -1.000000
vn 0.000000 0.000000 -1.000000
vn 0.000000 0.000000 -1.000000
vn 0.000000 0.000000 -1.000000
vn 0.000000 0.000000 -1.000000
vn 0.000000 0.000000 -1.000000
vn 0.000000 0.000000 -1.000000
vn 0.000000 0.000000 -1.000000
vn 0.000000 0.000000 -1.000000
vn 0.000000 0.000000 -1.000000
vn 0.000000 0.000000 -1.000000
vn 0.000000 0.000000 -1.000000
vn 0.000000 0.000000 -1.000000
vn 0.000000 0.000000 -1.000000
vn 0.000000 0.000000 -1.000000
vn 0.000000 0.000000 -1.000000
vn 1.000000 0.000000 0.000000
vn 0.999315 0.036998 0.000000
vn 0.999315 0.036998 0.000000
vn 1.000000 0.000000 0.000000
vn 0.999315 0.036998 0.000000
vn 1.000000 0.000000 0.000000
vn 0.083361 0.996520 0.000000
vn 0.083361 0.996520 0.000000
vn 0.165887 0.986145 0.000000
vn 0.083361 0.996520 0.000000
vn 0.165887 0.986145 0.000000
vn 0.165887 0.986145 0.000000
vn 0.165887 0.986145 0.000000
vn 0.165887 0.986145 0.000000
vn 0.326253 0.945282 0.000000
vn 0.165887 0.986145 0.000000
vn 0.326253 0.945282 0.000000
vn 0.326253 0.945282 0.000000
vn 0.326253 0.945282 0.000000
vn 0.326253 0.945282 0.000000
vn 0.476034 0.879427 0.000000
vn 0.326253 0.945282 0.000000
vn 0.476034 0.879427 0.000000
vn 0.476034 0.879427 0.000000
vn 0.476034 0.879427 0.000000
vn 0.476034 0.879427 0.000000
vn 0.611021 0.791615 0.000000
vn 0.476034 0.879427 0.000000
vn 0.611021 0.791615 0.000000
vn 0.611021 0.791615 0.000000
vn 0.611021 0.791615 0.000000
vn 0.611021 0.791615 0.000000
vn 0.728146 0.685422 0.000000
vn 0.611021 0.791615 0.000000
vn 0.728146 0.685422 0.000000
vn 0.728146 0.685422 0.000000
vn 0.728146 0.685422 0.000000
vn 0.728146 0.685422 0.000000
vn 0.825410 0.564534 0.000000
vn 0.728146 0.685422 0.000000
vn 0.825410 0.564534 0.000000
vn 0.825410 0.564534 0.000000
vn 0.825410 0.564534 0.000000
vn 0.825410 0.564534 0.000000
vn 0.901649 0.432469 0.000000
vn 0.825410 0.564534 0.000000
vn 0.901649 0.432469 0.000000
vn 0.901649 0.432469 0.000000
vn 0.901649 0.432469 0.000000
vn 0.901649 0.432469 0.000000
vn 0.956280 0.292453 0.000000
vn 0.901649 0.432469 0.000000
vn 0.956280 0.292453 0.000000
vn 0.956280 0.292453 0.000000
vn 0.956280 0.292453 0.000000
vn 0.956280 0.292453 0.000000
vn 0.989073 0.147428 0.000000
vn 0.956280 0.292453 0.000000
vn 0.989073 0.147428 0.000000
vn 0.989073 0.147428 0.000000
vn 0.989073 0.147428 0.000000
vn 0.989073 0.147428 0.000000
vn 0.999315 0.036998 0.000000
vn 0.989073 0.147428 0.000000
vn 0.999315 0.036998 0.000000
vn 0.999315 0.036998 0.000000
vn 0.989073 0.147428 0.000000
vn 0.989073 0.147428 0.000000
vn 0.999315 0.036998 0.000000
vn 0.989073 0.147428 0.000000
vn 0.999315 0.036998 0.000000
vn 0.999315 0.036998 0.000000
vn 0.956280 0.292453 0.000000
vn 0.956280 0.292453 0.000000
vn 0.989073 0.147428 0.000000
vn 0.956280 0.292453 0.000000
vn 0.989073 0.147428 0.000000
vn 0.989073 0.147428 0.000000
vn 0.901649 0.432469 0.000000
vn 0.901649 0.432469 0.000000
vn 0.956280 0.292453 0.000000
vn 0.901649 0.432469 0.000000
vn 0.956280 0.292453 0.000000
vn 0.956280 0.292453 0.000000
vn 0.825410 0.564534 0.000000
vn 0.825410 0.564534 0.000000
vn 0.901649 0.432469 0.000000
vn 0.825410 0.564534 0.000000
vn 0.901649 0.432469 0.000000
vn 0.901649 0.432469 0.000000
vn 0.728146 0.685422 0.000000
vn 0.728146 0.685422 0.000000
vn 0.825410 0.564534 0.000000
vn 0.728146 0.685422 0.000000
vn 0.825410 0.564534 0.000000
vn 0.825410 0.564534 0.000000
vn 0.611021 0.791615 0.000000
vn 0.611021 0.791615 0.000000
vn 0.728146 0.685422 0.000000
vn 0.611021 0.791615 0.000000
vn 0.728146 0.685422 0.000000
vn 0.728146 0.685422 0.000000
vn 0.476034 0.879427 0.000000
vn 0.476034 0.879427 0.000000
vn 0.611021 0.791615 0.000000
vn 0.476034 0.879427 0.000000
vn 0.611021 0.791615 0.000000
vn 0.611021 0.791615 0.000000
vn 0.326253 0.945282 0.000000
vn 0.326253 0.945282 0.000000
vn 0.476034 0.879427 0.000000
vn 0.326253 0.945282 0.000000
vn 0.476034 0.879427 0.000000
vn 0.476034 0.879427 0.000000
vn 0.165887 0.986145 0.000000
vn 0.165887 0.986145 0.000000
vn 0.326253 0.945282 0.000000
vn 0.165887 0.986145 0.000000
vn 0.326253 0.945282 0.000000
vn 0.326253 0.945282 0.000000
vn 0.083361 0.996520 0.000000
vn 0.083361 0.996520 0.000000
vn 0.165887 0.986145 0.000000
vn 0.083361 0.996520 0.000000
vn 0.165887 0.986145 0.000000
vn 0.165887 0.986145 0.000000
vn 1.000000 0.000000 0.000000
vn 0.999315 0.036998 0.000000
vn 0.999315 0.036998 0.000000
vn 1.000000 0.000000 0.000000
vn 0.999315 0.036998 0.000000
vn 1.000000 0.000000 0.000000
vn 0.000000 0.000000 1.000000
vn 0.000000 0.000000 1.000000
vn 0.000000 0.000000 1.000000
vn 0.000000 0.000000 1.000000
vn 0.000000 0.000000 1.000000
vn 0.000000 0.000000 1.000000
vn 0.000000 0.000000 1.000000
vn 0.000000 0.000000 1.000000
vn 0.000000 0.000000 1.000000
vn 0.000000 0.000000 1.000000
vn 0.000000 0.000000 1.000000
vn 0.000000 0.000000 1.000000
vn 0.000000 0.000000 1.000000
vn 0.000000 0.000000 1.000000
vn 0.000000 0.000000 1.000000
vn 0.000000 0.000000 1.000000
vn 0.000000 0.000000 1.000000
vn 0.000000 0.000000 1.000000
vn 0.000000 0.000000 1.000000
vn 0.000000 0.000000 1.000000
vn 0.000000 0.000000 1.000000
vn 0.000000 0.000000 1.000000
vn -1.000000 0.000000 0.000000
vn 0.000000 0.000000 1.000000
vn 0.000000 0.000000 1.000000
vn 0.000000 0.000000 1.000000
vn 0.000000 0.000000 1.000000
vn 0.000000 0.000000 1.000000
vn 0.000000 0.000000 1.000000
vn 0.000000 0.000000 1.000000
vn 0.000000 0.000000 1.000000
vn 0.000000 0.000000 1.000000
vn 0.000000 0.000000 1.000000
vn 0.000000 0.000000 1.000000
vn 0.000000 0.000000 1.000000
vn 0.000000 0.000000 1.000000
vn 0.000000 0.000000 1.000000
vn 0.000000 0.000000 1.000000
vn 0.000000 0.000000 1.000000
vn 0.000000 0.000000 1.000000
vn 0.000000 0.000000 1.000000
vn 0.000000 0.000000 1.000000
vn 0.000000 0.000000 1.000000
vn 0.000000 0.000000 1.000000
vn 0.000000 0.000000 1.000000
s off
g polySurface6593
usemtl Vidrios:vitrinaVidrio_Vitrina_aiStandardSurface3SG2
f 1/1/1 2/2/2 3/3/3
f 4/4/4 5/5/5 6/6/6
f 1/1/7 3/3/8 4/7/9
f 7/8/10 8/9/11 9/10/12
f 9/11/13 1/1/14 4/7/15
f 4/4/16 6/6/17 10/12/18
f 10/12/19 11/13/20 12/14/21
f 12/15/22 13/16/23 14/17/24
f 14/18/25 15/19/26 16/20/27
f 16/21/28 17/22/29 7/23/30
f 7/24/31 9/11/32 4/7/33
f 4/7/34 10/25/35 12/26/36
f 12/27/37 14/28/38 16/29/39
f 16/30/40 7/24/41 4/7/42
f 4/7/43 12/26/44 16/30/45
f 18/31/46 19/32/47 20/33/48
f 18/34/49 20/35/50 21/36/51
f 22/37/52 23/38/53 24/39/54
f 22/37/55 24/39/56 25/40/57
f 25/40/58 24/39/59 26/41/60
f 25/40/61 26/41/62 27/42/63
f 27/42/64 26/41/65 28/43/66
f 27/42/67 28/43/68 29/44/69
f 29/44/70 28/43/71 30/45/72
f 29/44/73 30/45/74 31/46/75
f 31/46/76 30/45/77 32/47/78
f 31/46/79 32/47/80 33/48/81
f 33/48/82 32/47/83 34/49/84
f 33/48/85 34/49/86 35/50/87
f 35/50/88 34/49/89 36/51/90
f 35/50/91 36/51/92 37/52/93
f 37/52/94 36/51/95 38/53/96
f 37/52/97 38/53/98 39/54/99
f 39/54/100 38/53/101 40/55/102
f 39/54/103 40/55/104 41/56/105
f 41/56/106 40/55/107 20/33/108
f 41/56/109 20/33/110 19/32/111
f 42/57/112 43/58/113 44/59/114
f 42/57/115 44/59/116 45/60/117
f 46/61/118 47/62/119 43/58/120
f 46/61/121 43/58/122 42/57/123
f 48/63/124 49/64/125 47/62/126
f 48/63/127 47/62/128 46/61/129
f 50/65/130 51/66/131 49/64/132
f 50/65/133 49/64/134 48/63/135
f 52/67/136 53/68/137 51/66/138
f 52/67/139 51/66/140 50/65/141
f 54/69/142 55/70/143 53/68/144
f 54/69/145 53/68/146 52/67/147
f 56/71/148 57/72/149 55/70/150
f 56/71/151 55/70/152 54/69/153
f 58/73/154 59/74/155 57/72/156
f 58/73/157 57/72/158 56/71/159
f 60/75/160 61/76/161 59/74/162
f 60/75/163 59/74/164 58/73/165
f 62/77/166 63/78/167 61/76/168
f 62/77/169 61/76/170 60/75/171
f 64/79/172 45/60/173 44/59/174
f 64/79/175 44/59/176 65/80/177
f 66/81/178 67/82/179 68/83/180
f 68/83/181 69/84/182 70/85/183
usemtl Vidrios:vitrinaVidrio_Vitrina_lambert2SG4
f 70/85/184 71/86/185 72/87/186
usemtl Vidrios:vitrinaVidrio_Vitrina_aiStandardSurface3SG2
f 72/87/187 73/88/188 74/89/189
f 74/89/190 75/90/191 76/91/192
f 76/91/193 77/92/194 78/93/195
f 78/93/196 79/94/197 80/95/198
usemtl Vidrios:vitrinaVidrio_Vitrina_palmLeafy4LeafShaderSG2
f 81/96/199 82/97/200 66/81/201
usemtl Vidrios:vitrinaVidrio_Vitrina_aiStandardSurface3SG2
f 78/93/202 80/95/203 81/96/204
f 74/89/205 76/91/206 78/93/207
f 70/85/208 72/87/209 74/89/210
f 66/81/211 68/83/212 70/85/213
f 78/93/214 81/96/215 66/81/216
f 70/85/217 74/89/218 78/93/219
f 70/85/220 78/93/221 66/81/222
