# This file uses centimeters as units for non-parametric coordinates.

mtllib CharolaUno.mtl
g default
v -1.745251 1.436612 -1.495147
v -1.736971 1.436612 -1.475157
v -1.716981 1.436612 -1.466877
v -1.179789 1.436612 -1.495147
v -1.208059 1.436612 -1.466877
v -1.188069 1.436612 -1.475157
v -1.208059 1.436612 -2.032339
v -1.179789 1.436612 -2.004068
v -1.188069 1.436612 -2.024058
v -1.745251 1.436612 -2.004068
v -1.716981 1.436612 -2.032339
v -1.736971 1.436612 -2.024058
vt 0.781317 0.623629
vt 0.783471 0.756354
vt 0.781564 0.761507
vt 0.776603 0.763865
vt 0.643992 0.766156
vt 0.638899 0.764262
vt 0.636678 0.759358
vt 0.634513 0.626647
vt 0.636436 0.621485
vt 0.641409 0.619115
vt 0.774003 0.616832
vt 0.779096 0.618725
vn 0.000000 1.000000 0.000000
vn 0.000000 1.000000 0.000000
vn 0.000000 1.000000 0.000000
vn 0.000000 1.000000 0.000000
vn 0.000000 1.000000 0.000000
vn 0.000000 1.000000 0.000000
vn 0.000000 1.000000 0.000000
vn 0.000000 1.000000 0.000000
vn 0.000000 1.000000 0.000000
vn 0.000000 1.000000 0.000000
vn 0.000000 1.000000 0.000000
vn 0.000000 1.000000 0.000000
s 1
g pasted__polySurface4165 croissant5k:croissant5k20:Mesh group13
usemtl croissant5k:kitchenObj:palmLeafy3ShaderSG
f 2/3/1 3/4/2 1/2/3
f 1/2/3 3/4/2 10/1/4
f 3/4/2 5/5/5 10/1/4
f 10/1/4 5/5/5 12/12/6
f 12/12/6 5/5/5 11/11/7
f 5/5/5 6/6/8 11/11/7
f 6/6/8 4/7/9 11/11/7
f 9/9/10 7/10/11 8/8/12
f 8/8/12 7/10/11 4/7/9
f 4/7/9 7/10/11 11/11/7
g default
v -1.776665 1.427144 -1.463733
v -1.748395 1.427144 -1.435463
v -1.768385 1.427144 -1.443743
v -1.148375 1.427144 -1.463733
v -1.156655 1.427144 -1.443743
v -1.176645 1.427144 -1.435463
v -1.776665 1.427144 -2.035483
v -1.768385 1.427144 -2.055473
v -1.748395 1.427144 -2.063753
v -1.148375 1.427144 -2.035483
v -1.176645 1.427144 -2.063753
v -1.156655 1.427144 -2.055473
v -1.141255 1.460764 -1.428343
v -1.162253 1.460764 -1.419647
v -1.762786 1.460764 -1.419647
v -1.783784 1.460764 -1.428343
v -1.792481 1.460764 -1.449341
v -1.792481 1.460764 -2.049875
v -1.783784 1.460764 -2.070871
v -1.762786 1.460764 -2.079569
v -1.162253 1.460764 -2.079569
v -1.141255 1.460764 -2.070871
v -1.132558 1.460764 -2.049875
v -1.132558 1.460764 -1.449341
vt 0.102140 0.228856
vt 0.103072 0.234436
vt 0.092091 0.238479
vt 0.091112 0.232619
vt 0.134845 0.230809
vt 0.135777 0.225230
vt 0.146806 0.228993
vt 0.145827 0.234853
vt 0.135777 0.075750
vt 0.134845 0.070171
vt 0.145827 0.066127
vt 0.146806 0.071988
vt 0.911116 0.164682
vt 0.912048 0.159102
vt 0.923077 0.162865
vt 0.922098 0.168726
vt 0.091112 0.075614
vt 0.092091 0.069754
vt 0.103072 0.073798
vt 0.102140 0.079377
vt 0.892942 0.000000
vt 0.893921 0.005860
vt 0.882893 0.009623
vt 0.881960 0.004044
vt 0.893921 0.162865
vt 0.892942 0.168726
vt 0.881960 0.164682
vt 0.882893 0.159102
vt 0.922098 0.000000
vt 0.923077 0.005861
vt 0.912048 0.009623
vt 0.911116 0.004044
vt 0.561508 0.607991
vt 0.561508 0.757470
vt 0.559343 0.762696
vt 0.554117 0.764861
vt 0.404638 0.764861
vt 0.399411 0.762696
vt 0.397247 0.757470
vt 0.397247 0.607991
vt 0.399411 0.602765
vt 0.404638 0.600600
vt 0.554117 0.600600
vt 0.559343 0.602765
vn -0.903267 -0.428974 0.009448
vn -0.792766 -0.513519 0.328360
vn -0.615070 -0.788450 0.006045
vn -0.493032 -0.845703 0.204220
vn -0.009448 -0.428978 0.903265
vn -0.006045 -0.788451 0.615068
vn -0.328377 -0.513517 0.792760
vn -0.204227 -0.845712 0.493013
vn 0.009448 -0.428979 0.903265
vn 0.328376 -0.513523 0.792757
vn 0.006045 -0.788451 0.615068
vn 0.204227 -0.845709 0.493019
vn 0.903260 -0.428990 0.009448
vn 0.615070 -0.788449 0.006045
vn 0.792764 -0.513518 0.328367
vn 0.493035 -0.845701 0.204222
vn -0.493032 -0.845703 -0.204220
vn -0.792766 -0.513519 -0.328360
vn -0.615070 -0.788450 -0.006045
vn -0.903267 -0.428974 -0.009448
vn -0.204212 -0.845715 -0.493015
vn -0.006045 -0.788451 -0.615068
vn -0.328377 -0.513517 -0.792760
vn -0.009448 -0.428977 -0.903266
vn 0.204211 -0.845712 -0.493020
vn 0.328375 -0.513529 -0.792753
vn 0.006045 -0.788451 -0.615068
vn 0.009448 -0.428977 -0.903266
vn 0.493035 -0.845701 -0.204222
vn 0.615070 -0.788449 -0.006045
vn 0.792766 -0.513519 -0.328360
vn 0.903260 -0.428990 -0.009448
vn -0.006045 -0.788451 0.615068
vn -0.009448 -0.428978 0.903265
vn 0.006045 -0.788451 0.615068
vn 0.009448 -0.428979 0.903265
vn -0.006045 -0.788451 -0.615068
vn 0.006045 -0.788451 -0.615068
vn -0.009448 -0.428977 -0.903266
vn 0.009448 -0.428977 -0.903266
vn 0.615070 -0.788449 0.006045
vn 0.903260 -0.428990 0.009448
vn 0.615070 -0.788449 -0.006045
vn 0.903260 -0.428990 -0.009448
vn -0.615070 -0.788450 -0.006045
vn -0.903267 -0.428974 -0.009448
vn -0.615070 -0.788450 0.006045
vn -0.903267 -0.428974 0.009448
vn 0.000000 -1.000000 0.000000
vn 0.000000 -1.000000 0.000000
vn 0.000000 -1.000000 0.000000
vn 0.000000 -1.000000 0.000000
vn 0.000000 -1.000000 0.000000
vn 0.000000 -1.000000 0.000000
vn 0.000000 -1.000000 0.000000
vn 0.000000 -1.000000 0.000000
vn 0.000000 -1.000000 0.000000
vn 0.000000 -1.000000 0.000000
vn 0.000000 -1.000000 0.000000
vn 0.000000 -1.000000 0.000000
s 1
g croissant5k:croissant5k20:Mesh group13 pasted__polySurface4164
usemtl croissant5k:kitchenObj:palmLeafy3ShaderSG
f 13/13/13 15/14/14 29/16/15
f 29/16/15 15/14/14 28/15/16
s 2
f 14/18/17 27/19/18 15/17/19
f 15/17/19 27/19/18 28/20/20
s 3
f 18/21/21 17/22/22 26/24/23
f 26/24/23 17/22/22 25/23/24
s 4
f 16/26/25 36/27/26 17/25/27
f 17/25/27 36/27/26 25/28/28
s 5
f 31/30/29 20/31/30 30/29/31
f 30/29/31 20/31/30 19/32/32
s 6
f 31/33/33 32/34/34 20/36/35
f 20/36/35 32/34/34 21/35/36
s 7
f 34/38/37 24/39/38 33/37/39
f 33/37/39 24/39/38 23/40/40
s 8
f 34/41/41 35/42/42 24/44/43
f 24/44/43 35/42/42 22/43/44
s 9
f 27/19/45 14/18/46 26/24/47
f 26/24/47 14/18/46 18/21/48
s 10
f 32/34/49 33/37/50 21/35/51
f 21/35/51 33/37/50 23/40/52
s 11
f 36/27/53 16/26/54 35/42/55
f 35/42/55 16/26/54 22/43/56
s 12
f 30/29/57 19/32/58 29/16/59
f 29/16/59 19/32/58 13/13/60
s 13
f 17/47/61 18/48/62 16/46/63
f 16/46/63 18/48/62 22/45/64
f 18/48/62 14/49/65 22/45/64
f 22/45/64 14/49/65 24/56/66
f 24/56/66 14/49/65 23/55/67
f 14/49/65 15/50/68 23/55/67
f 15/50/68 13/51/69 23/55/67
f 20/53/70 21/54/71 19/52/72
f 19/52/72 21/54/71 13/51/69
f 13/51/69 21/54/71 23/55/67
g default
v -1.745251 1.436612 -1.495147
v -1.736971 1.436612 -1.475157
v -1.716981 1.436612 -1.466877
v -1.179789 1.436612 -1.495147
v -1.208059 1.436612 -1.466877
v -1.188069 1.436612 -1.475157
v -1.208059 1.436612 -2.032339
v -1.179789 1.436612 -2.004068
v -1.188069 1.436612 -2.024058
v -1.745251 1.436612 -2.004068
v -1.716981 1.436612 -2.032339
v -1.736971 1.436612 -2.024058
vt 0.781317 0.623629
vt 0.783471 0.756354
vt 0.781564 0.761507
vt 0.776603 0.763865
vt 0.643992 0.766156
vt 0.638899 0.764262
vt 0.636678 0.759358
vt 0.634513 0.626647
vt 0.636436 0.621485
vt 0.641409 0.619115
vt 0.774003 0.616832
vt 0.779096 0.618725
vn 0.000000 1.000000 0.000000
vn 0.000000 1.000000 0.000000
vn 0.000000 1.000000 0.000000
vn 0.000000 1.000000 0.000000
vn 0.000000 1.000000 0.000000
vn 0.000000 1.000000 0.000000
vn 0.000000 1.000000 0.000000
vn 0.000000 1.000000 0.000000
vn 0.000000 1.000000 0.000000
vn 0.000000 1.000000 0.000000
vn 0.000000 1.000000 0.000000
vn 0.000000 1.000000 0.000000
s 1
g pasted__polySurface4165 croissant5k:croissant5k20:Mesh group13
f 38/59/73 39/60/74 37/58/75
f 37/58/75 39/60/74 46/57/76
f 39/60/74 41/61/77 46/57/76
f 46/57/76 41/61/77 48/68/78
f 48/68/78 41/61/77 47/67/79
f 41/61/77 42/62/80 47/67/79
f 42/62/80 40/63/81 47/67/79
f 45/65/82 43/66/83 44/64/84
f 44/64/84 43/66/83 40/63/81
f 40/63/81 43/66/83 47/67/79
g default
v -1.776665 1.427144 -1.463733
v -1.748395 1.427144 -1.435463
v -1.768385 1.427144 -1.443743
v -1.148375 1.427144 -1.463733
v -1.156655 1.427144 -1.443743
v -1.176645 1.427144 -1.435463
v -1.776665 1.427144 -2.035483
v -1.768385 1.427144 -2.055473
v -1.748395 1.427144 -2.063753
v -1.148375 1.427144 -2.035483
v -1.176645 1.427144 -2.063753
v -1.156655 1.427144 -2.055473
v -1.141255 1.460764 -1.428343
v -1.162253 1.460764 -1.419647
v -1.762786 1.460764 -1.419647
v -1.783784 1.460764 -1.428343
v -1.792481 1.460764 -1.449341
v -1.792481 1.460764 -2.049875
v -1.783784 1.460764 -2.070871
v -1.762786 1.460764 -2.079569
v -1.162253 1.460764 -2.079569
v -1.141255 1.460764 -2.070871
v -1.132558 1.460764 -2.049875
v -1.132558 1.460764 -1.449341
vt 0.102140 0.228856
vt 0.103072 0.234436
vt 0.092091 0.238479
vt 0.091112 0.232619
vt 0.134845 0.230809
vt 0.135777 0.225230
vt 0.146806 0.228993
vt 0.145827 0.234853
vt 0.135777 0.075750
vt 0.134845 0.070171
vt 0.145827 0.066127
vt 0.146806 0.071988
vt 0.911116 0.164682
vt 0.912048 0.159102
vt 0.923077 0.162865
vt 0.922098 0.168726
vt 0.091112 0.075614
vt 0.092091 0.069754
vt 0.103072 0.073798
vt 0.102140 0.079377
vt 0.892942 0.000000
vt 0.893921 0.005860
vt 0.882893 0.009623
vt 0.881960 0.004044
vt 0.893921 0.162865
vt 0.892942 0.168726
vt 0.881960 0.164682
vt 0.882893 0.159102
vt 0.922098 0.000000
vt 0.923077 0.005861
vt 0.912048 0.009623
vt 0.911116 0.004044
vt 0.561508 0.607991
vt 0.561508 0.757470
vt 0.559343 0.762696
vt 0.554117 0.764861
vt 0.404638 0.764861
vt 0.399411 0.762696
vt 0.397247 0.757470
vt 0.397247 0.607991
vt 0.399411 0.602765
vt 0.404638 0.600600
vt 0.554117 0.600600
vt 0.559343 0.602765
vn -0.903267 -0.428974 0.009448
vn -0.792766 -0.513519 0.328360
vn -0.615070 -0.788450 0.006045
vn -0.493032 -0.845703 0.204220
vn -0.009448 -0.428978 0.903265
vn -0.006045 -0.788451 0.615068
vn -0.328377 -0.513517 0.792760
vn -0.204227 -0.845712 0.493013
vn 0.009448 -0.428979 0.903265
vn 0.328376 -0.513523 0.792757
vn 0.006045 -0.788451 0.615068
vn 0.204227 -0.845709 0.493019
vn 0.903260 -0.428990 0.009448
vn 0.615070 -0.788449 0.006045
vn 0.792764 -0.513518 0.328367
vn 0.493035 -0.845701 0.204222
vn -0.493032 -0.845703 -0.204220
vn -0.792766 -0.513519 -0.328360
vn -0.615070 -0.788450 -0.006045
vn -0.903267 -0.428974 -0.009448
vn -0.204212 -0.845715 -0.493015
vn -0.006045 -0.788451 -0.615068
vn -0.328377 -0.513517 -0.792760
vn -0.009448 -0.428977 -0.903266
vn 0.204211 -0.845712 -0.493020
vn 0.328375 -0.513529 -0.792753
vn 0.006045 -0.788451 -0.615068
vn 0.009448 -0.428977 -0.903266
vn 0.493035 -0.845701 -0.204222
vn 0.615070 -0.788449 -0.006045
vn 0.792766 -0.513519 -0.328360
vn 0.903260 -0.428990 -0.009448
vn -0.006045 -0.788451 0.615068
vn -0.009448 -0.428978 0.903265
vn 0.006045 -0.788451 0.615068
vn 0.009448 -0.428979 0.903265
vn -0.006045 -0.788451 -0.615068
vn 0.006045 -0.788451 -0.615068
vn -0.009448 -0.428977 -0.903266
vn 0.009448 -0.428977 -0.903266
vn 0.615070 -0.788449 0.006045
vn 0.903260 -0.428990 0.009448
vn 0.615070 -0.788449 -0.006045
vn 0.903260 -0.428990 -0.009448
vn -0.615070 -0.788450 -0.006045
vn -0.903267 -0.428974 -0.009448
vn -0.615070 -0.788450 0.006045
vn -0.903267 -0.428974 0.009448
vn 0.000000 -1.000000 0.000000
vn 0.000000 -1.000000 0.000000
vn 0.000000 -1.000000 0.000000
vn 0.000000 -1.000000 0.000000
vn 0.000000 -1.000000 0.000000
vn 0.000000 -1.000000 0.000000
vn 0.000000 -1.000000 0.000000
vn 0.000000 -1.000000 0.000000
vn 0.000000 -1.000000 0.000000
vn 0.000000 -1.000000 0.000000
vn 0.000000 -1.000000 0.000000
vn 0.000000 -1.000000 0.000000
s 1
g croissant5k:croissant5k20:Mesh group13 pasted__polySurface4164
f 49/69/85 51/70/86 65/72/87
f 65/72/87 51/70/86 64/71/88
s 2
f 50/74/89 63/75/90 51/73/91
f 51/73/91 63/75/90 64/76/92
s 3
f 54/77/93 53/78/94 62/80/95
f 62/80/95 53/78/94 61/79/96
s 4
f 52/82/97 72/83/98 53/81/99
f 53/81/99 72/83/98 61/84/100
s 5
f 67/86/101 56/87/102 66/85/103
f 66/85/103 56/87/102 55/88/104
s 6
f 67/89/105 68/90/106 56/92/107
f 56/92/107 68/90/106 57/91/108
s 7
f 70/94/109 60/95/110 69/93/111
f 69/93/111 60/95/110 59/96/112
s 8
f 70/97/113 71/98/114 60/100/115
f 60/100/115 71/98/114 58/99/116
s 9
f 63/75/117 50/74/118 62/80/119
f 62/80/119 50/74/118 54/77/120
s 10
f 68/90/121 69/93/122 57/91/123
f 57/91/123 69/93/122 59/96/124
s 11
f 72/83/125 52/82/126 71/98/127
f 71/98/127 52/82/126 58/99/128
s 12
f 66/85/129 55/88/130 65/72/131
f 65/72/131 55/88/130 49/69/132
s 13
f 53/103/133 54/104/134 52/102/135
f 52/102/135 54/104/134 58/101/136
f 54/104/134 50/105/137 58/101/136
f 58/101/136 50/105/137 60/112/138
f 60/112/138 50/105/137 59/111/139
f 50/105/137 51/106/140 59/111/139
f 51/106/140 49/107/141 59/111/139
f 56/109/142 57/110/143 55/108/144
f 55/108/144 57/110/143 49/107/141
f 49/107/141 57/110/143 59/111/139
