# Blender 4.1.0
# www.blender.org
mtllib pisofront.mtl
o PISOFRONT
v 29.252245 4.179563 -19.515478
v 29.245564 4.179563 -20.153790
v 29.245564 4.285954 -20.153790
v 29.252245 4.285954 -19.515478
v 29.465017 4.285954 -19.517704
v 29.465017 4.179563 -19.517704
v 29.467243 4.179563 -19.304934
v 29.467243 4.285954 -19.304934
v 29.892786 4.179563 -19.309387
v 29.892786 4.285954 -19.309387
v 29.897242 4.285954 -18.883846
v 29.897242 4.179563 -18.883846
v 27.726976 4.285954 -18.861128
v 27.726976 4.179563 -18.861128
v 27.713614 4.285954 -20.137754
v 27.713614 4.179563 -20.137754
v 27.911777 4.285954 -19.907684
v 27.911430 4.285954 -19.940929
v 27.834461 4.285954 -19.940125
v 27.834810 4.285954 -19.906878
v 27.834810 4.179563 -19.906878
v 27.911777 4.179563 -19.907684
v 27.834461 4.179563 -19.940125
v 27.911430 4.179563 -19.940929
v 29.200155 4.285954 -24.491659
v 29.206837 4.285954 -23.853346
v 29.206837 4.179563 -23.853346
v 29.200155 4.179563 -24.491659
v 29.412926 4.179563 -24.493887
v 29.412926 4.285954 -24.493887
v 29.410698 4.285954 -24.706657
v 29.410698 4.179563 -24.706657
v 29.836241 4.285954 -24.711111
v 29.836241 4.179563 -24.711111
v 29.831787 4.285954 -25.136654
v 29.831787 4.179563 -25.136654
v 27.661522 4.179563 -25.113935
v 27.661522 4.285954 -25.113935
v 27.674887 4.179563 -23.837309
v 27.674887 4.285954 -23.837309
v 27.868540 4.285954 -24.038231
v 27.868191 4.285954 -24.071478
v 27.791224 4.285954 -24.070671
v 27.791573 4.285954 -24.037426
v 27.791224 4.179563 -24.070671
v 27.868191 4.179563 -24.071478
v 27.868540 4.179563 -24.038231
v 27.791573 4.179563 -24.037426
v 27.943575 4.179563 -22.563356
v 27.949575 4.179563 -21.990204
v 27.949575 4.285954 -21.990204
v 27.943575 4.285954 -22.563356
v 29.226200 4.285954 -22.003569
v 29.226200 4.179563 -22.003569
v 27.688250 4.179563 -22.560684
v 27.688250 4.285954 -22.560684
v 29.206837 4.179563 -23.853346
v 29.206837 4.285954 -23.853346
v 27.674887 4.285954 -23.837309
v 27.674887 4.179563 -23.837309
v 27.800550 4.179563 -23.179693
v 27.877518 4.179563 -23.180498
v 27.800900 4.179563 -23.146448
v 27.877867 4.179563 -23.147253
v 27.877867 4.285954 -23.147253
v 27.800900 4.285954 -23.146448
v 27.877518 4.285954 -23.180498
v 27.800550 4.285954 -23.179693
v 27.955574 4.285954 -21.417053
v 27.949575 4.285954 -21.990204
v 27.949575 4.179563 -21.990204
v 27.955574 4.179563 -21.417053
v 29.226200 4.285954 -22.003569
v 29.226200 4.179563 -22.003569
v 27.700249 4.285954 -21.414379
v 27.700249 4.179563 -21.414379
v 27.713614 4.179563 -20.137754
v 27.713614 4.285954 -20.137754
v 29.245564 4.285954 -20.153791
v 29.245564 4.179563 -20.153791
v 27.902103 4.179563 -20.831909
v 27.825136 4.179563 -20.831102
v 27.902451 4.179563 -20.798662
v 27.825483 4.179563 -20.797857
v 27.902451 4.285954 -20.798662
v 27.902103 4.285954 -20.831909
v 27.825136 4.285954 -20.831102
v 27.825483 4.285954 -20.797857
vn 0.2983 -0.9045 -0.3046
vn 0.5713 -0.5773 -0.5834
vn 0.5713 0.5773 -0.5834
vn 0.2983 0.9045 -0.3046
vn 0.5713 0.5774 -0.5834
vn 0.5713 -0.5774 -0.5833
vn 0.5713 -0.5774 -0.5834
vn 0.5833 0.5774 0.5713
vn 0.5834 -0.5773 0.5713
vn -0.5713 0.5773 0.5834
vn -0.5713 -0.5773 0.5834
vn -0.5834 0.5773 -0.5713
vn -0.5834 -0.5773 -0.5713
vn -0.3047 0.9045 -0.2983
vn -0.2983 0.9045 0.3047
vn 0.3047 0.9045 0.2983
vn 0.2983 0.9045 -0.3047
vn -0.3046 -0.9045 -0.2984
vn 0.3046 -0.9045 0.2983
vn -0.2983 -0.9045 0.3046
vn 0.3046 0.9045 0.2983
vn 0.5834 0.5773 0.5713
vn 0.5834 -0.5774 0.5713
vn 0.5834 0.5774 0.5713
vn 0.5833 -0.5774 0.5713
vn 0.5712 0.5774 -0.5834
vn -0.3046 0.9045 -0.2984
vn -0.2983 0.9045 0.3046
vn 0.3047 0.9045 0.2984
vn -0.2983 -0.9045 0.3047
vn -0.3046 -0.9045 -0.2983
vn 0.2983 -0.9045 -0.3047
vn -0.5713 0.5774 0.5834
vn -0.5713 -0.5773 0.5833
vn 0.3046 -0.9046 0.2983
vn 0.3046 0.9045 0.2984
vn -0.5834 -0.5774 -0.5713
vn -0.3047 -0.9045 -0.2983
vn 0.3047 -0.9045 0.2983
s 1
usemtl Material.015
f 1//1 2//2 3//3
f 3//3 4//4 1//1
f 4//4 5//5 6//6
f 6//6 1//1 4//4
f 7//1 6//6 5//5
f 5//5 8//4 7//1
f 9//7 7//1 8//4
f 8//4 10//5 9//7
f 11//8 12//9 9//7
f 9//7 10//5 11//8
f 12//9 11//8 13//10
f 13//10 14//11 12//9
f 13//10 15//12 16//13
f 16//13 14//11 13//10
f 16//13 15//12 3//3
f 3//3 2//2 16//13
f 17//14 8//4 4//4
f 3//3 15//12 18//15
f 8//4 5//5 4//4
f 11//8 10//5 8//4
f 15//12 19//16 18//15
f 15//12 13//10 20//17
f 13//10 11//8 17//14
f 8//4 17//14 11//8
f 20//17 19//16 15//12
f 4//4 18//15 17//14
f 17//14 20//17 13//10
f 18//15 4//4 3//3
f 14//11 21//1 22//18
f 16//13 23//19 21//1
f 16//13 2//2 24//20
f 2//2 1//1 22//18
f 12//9 22//18 7//1
f 7//1 22//18 1//1
f 21//1 14//11 16//13
f 22//18 24//20 2//2
f 1//1 6//6 7//1
f 24//20 23//19 16//13
f 22//18 12//9 14//11
f 7//1 9//7 12//9
f 23//19 19//16 20//17
f 20//17 21//1 23//19
f 24//20 18//15 19//16
f 19//16 23//19 24//20
f 22//18 17//14 18//15
f 18//15 24//20 22//18
f 21//1 20//17 17//14
f 17//14 22//18 21//1
usemtl Material.012
f 25//21 26//22 27//9
f 27//9 28//19 25//21
f 25//21 28//19 29//23
f 29//23 30//24 25//21
f 31//21 30//24 29//23
f 29//23 32//19 31//21
f 33//24 31//21 32//19
f 32//19 34//25 33//24
f 35//26 33//24 34//25
f 34//25 36//7 35//26
f 37//13 38//12 35//26
f 35//26 36//7 37//13
f 37//13 39//11 40//10
f 40//10 38//12 37//13
f 40//10 39//11 27//9
f 27//9 26//22 40//10
f 40//10 26//22 41//27
f 26//22 25//21 42//28
f 38//12 43//29 42//28
f 40//10 44//4 43//29
f 35//26 38//12 31//21
f 31//21 38//12 25//21
f 42//28 41//27 26//22
f 43//29 38//12 40//10
f 25//21 30//24 31//21
f 42//28 25//21 38//12
f 41//27 44//4 40//10
f 31//21 33//24 35//26
f 39//11 37//13 45//19
f 37//13 28//19 46//30
f 46//30 45//19 37//13
f 27//9 47//31 46//30
f 39//11 48//32 47//31
f 46//30 28//19 27//9
f 32//19 29//23 28//19
f 36//7 34//25 32//19
f 45//19 48//32 39//11
f 32//19 37//13 36//7
f 28//19 37//13 32//19
f 47//31 27//9 39//11
f 45//19 43//29 44//4
f 44//4 48//32 45//19
f 48//32 44//4 41//27
f 41//27 47//31 48//32
f 47//31 41//27 42//28
f 42//28 46//30 47//31
f 46//30 42//28 43//29
f 43//29 45//19 46//30
usemtl Material.013
f 49//30 50//11 51//33
f 51//33 52//28 49//30
f 53//22 51//33 50//11
f 50//11 54//9 53//22
f 55//34 49//30 52//28
f 52//28 56//10 55//34
f 53//22 54//9 57//2
f 57//2 58//3 53//22
f 55//34 56//10 59//12
f 59//12 60//13 55//34
f 58//3 57//2 60//13
f 60//13 59//12 58//3
f 55//34 60//13 61//35
f 60//13 57//2 62//30
f 49//30 55//34 63//32
f 54//9 50//11 49//30
f 62//30 61//35 60//13
f 57//2 54//9 64//31
f 49//30 64//31 54//9
f 64//31 62//30 57//2
f 61//35 63//32 55//34
f 63//32 64//31 49//30
f 53//22 65//14 52//28
f 52//28 65//14 66//4
f 66//4 56//10 52//28
f 58//3 67//15 65//14
f 59//12 68//36 67//15
f 56//10 66//4 68//36
f 65//14 53//22 58//3
f 68//36 59//12 56//10
f 67//15 58//3 59//12
f 52//28 51//33 53//22
f 62//30 67//15 68//36
f 68//36 61//35 62//30
f 64//31 65//14 67//15
f 67//15 62//30 64//31
f 63//32 66//4 65//14
f 65//14 64//31 63//32
f 61//35 68//36 66//4
f 66//4 63//32 61//35
usemtl Material.014
f 69//14 70//12 71//37
f 71//37 72//38 69//14
f 73//3 74//2 71//37
f 71//37 70//12 73//3
f 75//12 69//14 72//38
f 72//38 76//13 75//12
f 75//12 76//13 77//11
f 77//11 78//10 75//12
f 74//2 73//3 79//22
f 79//22 80//9 74//2
f 80//9 79//22 78//10
f 78//10 77//11 80//9
f 72//38 81//20 82//39
f 80//9 83//18 81//20
f 77//11 84//32 83//18
f 76//13 82//39 84//32
f 74//2 80//9 72//38
f 81//20 72//38 80//9
f 84//32 77//11 76//13
f 82//39 76//13 72//38
f 72//38 71//37 74//2
f 83//18 80//9 77//11
f 78//10 79//22 85//14
f 79//22 73//3 86//15
f 69//14 75//12 87//29
f 73//3 70//12 69//14
f 86//15 85//14 79//22
f 69//14 86//15 73//3
f 87//29 86//15 69//14
f 75//12 78//10 88//4
f 88//4 87//29 75//12
f 85//14 88//4 78//10
f 81//20 86//15 87//29
f 87//29 82//39 81//20
f 83//18 85//14 86//15
f 86//15 81//20 83//18
f 84//32 88//4 85//14
f 85//14 83//18 84//32
f 82//39 87//29 88//4
f 88//4 84//32 82//39
