# This file uses centimeters as units for non-parametric coordinates.

mtllib TapaGalletas.mtl
g default
v 0.076935 0.018528 0.056576
v 0.089811 0.018528 0.029921
v 0.093820 0.018528 0.000591
v 0.088570 0.018528 -0.028543
v 0.074574 0.018528 -0.054627
v 0.053203 0.018528 -0.075110
v 0.026547 0.018528 -0.087987
v -0.002782 0.018528 -0.091996
v -0.031915 0.018528 -0.086746
v -0.058000 0.018528 -0.072751
v -0.078483 0.018528 -0.051378
v -0.091360 0.018528 -0.024724
v -0.095369 0.018528 0.004606
v -0.090119 0.018528 0.033739
v -0.076123 0.018528 0.059824
v -0.054752 0.018528 0.080307
v -0.028096 0.018528 0.093184
v 0.001233 0.018528 0.097193
v 0.030366 0.018528 0.091943
v 0.056451 0.018528 0.077947
v 0.076935 -0.024081 0.056576
v 0.089811 -0.024081 0.029921
v 0.093820 -0.024081 0.000591
v 0.088570 -0.024081 -0.028543
v 0.074574 -0.024081 -0.054627
v 0.053203 -0.024081 -0.075110
v 0.026547 -0.024081 -0.087987
v -0.002782 -0.024081 -0.091996
v -0.031915 -0.024081 -0.086746
v -0.058000 -0.024081 -0.072751
v -0.078483 -0.024081 -0.051378
v -0.091360 -0.024081 -0.024724
v -0.095369 -0.024081 0.004606
v -0.090119 -0.024081 0.033739
v -0.076123 -0.024081 0.059824
v -0.054752 -0.024081 0.080307
v -0.028096 -0.024081 0.093184
v 0.001233 -0.024081 0.097193
v 0.030366 -0.024081 0.091943
v 0.056451 -0.024081 0.077947
v -0.000774 0.018528 0.002599
v -0.000774 -0.024081 0.002599
vt 0.375000 0.312500
vt 0.375000 0.688440
vt 0.387500 0.312500
vt 0.387500 0.688440
vt 0.400000 0.312500
vt 0.400000 0.688440
vt 0.412500 0.312500
vt 0.412500 0.688440
vt 0.425000 0.312500
vt 0.425000 0.688440
vt 0.437500 0.312500
vt 0.437500 0.688440
vt 0.450000 0.312500
vt 0.450000 0.688440
vt 0.462500 0.312500
vt 0.462500 0.688440
vt 0.475000 0.312500
vt 0.475000 0.688440
vt 0.487500 0.312500
vt 0.487500 0.688440
vt 0.500000 0.312500
vt 0.500000 0.688440
vt 0.512500 0.312500
vt 0.512500 0.688440
vt 0.525000 0.312500
vt 0.525000 0.688440
vt 0.537500 0.312500
vt 0.537500 0.688440
vt 0.550000 0.312500
vt 0.550000 0.688440
vt 0.562500 0.312500
vt 0.562500 0.688440
vt 0.575000 0.312500
vt 0.575000 0.688440
vt 0.587500 0.312500
vt 0.587500 0.688440
vt 0.600000 0.312500
vt 0.600000 0.688440
vt 0.612500 0.312500
vt 0.612500 0.688440
vt 0.625000 0.312500
vt 0.625000 0.688440
vt 0.626409 0.064408
vt 0.500000 0.150000
vt 0.648603 0.107966
vt 0.591842 0.029841
vt 0.548284 0.007647
vt 0.500000 -0.000000
vt 0.451716 0.007647
vt 0.408159 0.029841
vt 0.373591 0.064409
vt 0.351397 0.107966
vt 0.343750 0.156250
vt 0.351397 0.204534
vt 0.373591 0.248091
vt 0.408159 0.282659
vt 0.451716 0.304853
vt 0.500000 0.312500
vt 0.548284 0.304853
vt 0.591841 0.282659
vt 0.626409 0.248091
vt 0.648603 0.204534
vt 0.656250 0.156250
vt 0.648603 0.892034
vt 0.500000 0.837500
vt 0.626409 0.935591
vt 0.591841 0.970159
vt 0.548284 0.992353
vt 0.500000 1.000000
vt 0.451716 0.992353
vt 0.408159 0.970159
vt 0.373591 0.935591
vt 0.351397 0.892034
vt 0.343750 0.843750
vt 0.351397 0.795466
vt 0.373591 0.751909
vt 0.408159 0.717341
vt 0.451716 0.695147
vt 0.500000 0.687500
vt 0.548284 0.695147
vt 0.591842 0.717341
vt 0.626409 0.751908
vt 0.648603 0.795466
vt 0.656250 0.843750
vn 0.900445 0.000000 0.434971
vn 0.900442 0.000000 0.434976
vn 0.900443 0.000000 0.434974
vn 0.900443 0.000000 0.434974
vn 0.900442 0.000000 0.434976
vn 0.900440 0.000000 0.434980
vn 0.957402 0.000000 0.288760
vn 0.957402 0.000000 0.288760
vn 0.999775 0.000000 -0.021221
vn 0.999775 0.000000 -0.021221
vn 0.957402 0.000000 0.288760
vn 0.999775 0.000000 -0.021221
vn 0.999775 0.000000 -0.021221
vn 0.999775 0.000000 -0.021221
vn 0.944285 0.000000 -0.329129
vn 0.944285 0.000000 -0.329129
vn 0.999775 0.000000 -0.021221
vn 0.944285 0.000000 -0.329129
vn 0.944285 0.000000 -0.329129
vn 0.944285 0.000000 -0.329129
vn 0.796362 0.000000 -0.604820
vn 0.796362 0.000000 -0.604820
vn 0.944285 0.000000 -0.329129
vn 0.796362 0.000000 -0.604820
vn 0.796362 0.000000 -0.604820
vn 0.796362 0.000000 -0.604820
vn 0.570486 0.000000 -0.821307
vn 0.570486 0.000000 -0.821307
vn 0.796362 0.000000 -0.604820
vn 0.570486 0.000000 -0.821307
vn 0.570486 0.000000 -0.821307
vn 0.570486 0.000000 -0.821307
vn 0.288767 0.000000 -0.957399
vn 0.288767 0.000000 -0.957399
vn 0.570486 0.000000 -0.821307
vn 0.288767 0.000000 -0.957399
vn 0.288767 0.000000 -0.957399
vn 0.288767 0.000000 -0.957399
vn -0.021210 0.000000 -0.999775
vn -0.021210 0.000000 -0.999775
vn 0.288767 0.000000 -0.957399
vn -0.021210 0.000000 -0.999775
vn -0.021210 0.000000 -0.999775
vn -0.021210 0.000000 -0.999775
vn -0.329132 0.000000 -0.944284
vn -0.329132 0.000000 -0.944284
vn -0.021210 0.000000 -0.999775
vn -0.329132 0.000000 -0.944284
vn -0.329132 0.000000 -0.944284
vn -0.329132 0.000000 -0.944284
vn -0.604820 0.000000 -0.796362
vn -0.604820 0.000000 -0.796362
vn -0.329132 0.000000 -0.944284
vn -0.604820 0.000000 -0.796362
vn -0.604820 0.000000 -0.796362
vn -0.604820 0.000000 -0.796362
vn -0.821307 0.000000 -0.570487
vn -0.821307 0.000000 -0.570487
vn -0.604820 0.000000 -0.796362
vn -0.821307 0.000000 -0.570487
vn -0.821307 0.000000 -0.570487
vn -0.821307 0.000000 -0.570487
vn -0.957401 0.000000 -0.288762
vn -0.957401 0.000000 -0.288762
vn -0.821307 0.000000 -0.570487
vn -0.957401 0.000000 -0.288762
vn -0.957401 0.000000 -0.288762
vn -0.957401 0.000000 -0.288762
vn -0.999775 0.000000 0.021223
vn -0.999775 0.000000 0.021223
vn -0.957401 0.000000 -0.288762
vn -0.999775 0.000000 0.021223
vn -0.999775 0.000000 0.021223
vn -0.999775 0.000000 0.021223
vn -0.944285 0.000000 0.329129
vn -0.944285 0.000000 0.329129
vn -0.999775 0.000000 0.021223
vn -0.944285 0.000000 0.329129
vn -0.944285 0.000000 0.329129
vn -0.944285 0.000000 0.329129
vn -0.796362 0.000000 0.604820
vn -0.796362 0.000000 0.604820
vn -0.944285 0.000000 0.329129
vn -0.796362 0.000000 0.604820
vn -0.796362 0.000000 0.604820
vn -0.796362 0.000000 0.604820
vn -0.570485 0.000000 0.821308
vn -0.570485 0.000000 0.821308
vn -0.796362 0.000000 0.604820
vn -0.570485 0.000000 0.821308
vn -0.570485 0.000000 0.821308
vn -0.570485 0.000000 0.821308
vn -0.288765 0.000000 0.957400
vn -0.288765 0.000000 0.957400
vn -0.570485 0.000000 0.821308
vn -0.288765 0.000000 0.957400
vn -0.288765 0.000000 0.957400
vn -0.288765 0.000000 0.957400
vn 0.021218 0.000000 0.999775
vn 0.021218 0.000000 0.999775
vn -0.288765 0.000000 0.957400
vn 0.021218 0.000000 0.999775
vn 0.021218 0.000000 0.999775
vn 0.021218 0.000000 0.999775
vn 0.329127 0.000000 0.944286
vn 0.329127 0.000000 0.944286
vn 0.021218 0.000000 0.999775
vn 0.329127 0.000000 0.944286
vn 0.329127 0.000000 0.944286
vn 0.329127 0.000000 0.944286
vn 0.604818 0.000000 0.796364
vn 0.604818 0.000000 0.796364
vn 0.329127 0.000000 0.944286
vn 0.604818 0.000000 0.796364
vn 0.604818 0.000000 0.796364
vn 0.604818 0.000000 0.796364
vn 0.821306 0.000000 0.570489
vn 0.821306 0.000000 0.570489
vn 0.604818 0.000000 0.796364
vn 0.821306 0.000000 0.570489
vn -0.000003 1.000000 0.000002
vn 0.000000 1.000000 0.000000
vn 0.000000 1.000000 0.000000
vn 0.000003 1.000000 -0.000002
vn 0.000000 1.000000 0.000000
vn -0.000003 1.000000 0.000002
vn 0.000003 1.000000 -0.000002
vn 0.000000 1.000000 0.000000
vn 0.000003 1.000000 -0.000002
vn 0.000000 1.000000 0.000000
vn 0.000000 1.000000 0.000000
vn 0.000003 1.000000 -0.000002
vn 0.000003 1.000000 -0.000002
vn 0.000000 1.000000 0.000000
vn 0.000000 1.000000 0.000000
vn -0.000003 1.000000 0.000002
vn 0.000000 1.000000 0.000000
vn 0.000003 1.000000 -0.000002
vn -0.000003 1.000000 0.000002
vn 0.000000 1.000000 0.000000
vn -0.000003 1.000000 0.000002
vn 0.000005 1.000000 -0.000004
vn 0.000000 1.000000 0.000000
vn -0.000003 1.000000 0.000002
vn 0.000000 1.000000 0.000000
vn 0.000000 1.000000 0.000000
vn 0.000005 1.000000 -0.000004
vn -0.000005 1.000000 0.000004
vn 0.000000 1.000000 0.000000
vn 0.000000 1.000000 0.000000
vn 0.000003 1.000000 -0.000002
vn 0.000000 1.000000 0.000000
vn -0.000005 1.000000 0.000004
vn 0.000003 1.000000 -0.000002
vn 0.000000 1.000000 0.000000
vn 0.000003 1.000000 -0.000002
vn -0.000003 1.000000 0.000002
vn 0.000000 1.000000 0.000000
vn 0.000003 1.000000 -0.000002
vn 0.000000 1.000000 0.000000
vn 0.000000 1.000000 0.000000
vn -0.000003 1.000000 0.000002
vn 0.000000 1.000000 0.000000
vn 0.000000 1.000000 0.000000
vn 0.000000 1.000000 0.000000
vn 0.000000 1.000000 0.000000
vn 0.000000 1.000000 0.000000
vn 0.000000 1.000000 0.000000
vn 0.000003 1.000000 -0.000002
vn 0.000000 1.000000 0.000000
vn 0.000000 1.000000 0.000000
vn -0.000002 1.000000 0.000002
vn 0.000000 1.000000 0.000000
vn 0.000003 1.000000 -0.000002
vn -0.000002 1.000000 0.000002
vn 0.000000 1.000000 0.000000
vn -0.000002 1.000000 0.000002
vn 0.000000 1.000000 0.000000
vn 0.000000 1.000000 0.000000
vn -0.000002 1.000000 0.000002
vn 0.000001 -1.000000 -0.000001
vn 0.000000 -1.000000 0.000000
vn -0.000007 -1.000000 0.000005
vn -0.000007 -1.000000 0.000005
vn 0.000000 -1.000000 0.000000
vn 0.000000 -1.000000 0.000000
vn 0.000000 -1.000000 0.000000
vn 0.000000 -1.000000 0.000000
vn 0.000000 -1.000000 0.000000
vn 0.000000 -1.000000 0.000000
vn 0.000000 -1.000000 0.000000
vn 0.000000 -1.000000 0.000000
vn 0.000000 -1.000000 0.000000
vn 0.000000 -1.000000 0.000000
vn 0.000000 -1.000000 0.000000
vn 0.000000 -1.000000 0.000000
vn 0.000000 -1.000000 0.000000
vn -0.000003 -1.000000 0.000002
vn -0.000003 -1.000000 0.000002
vn 0.000000 -1.000000 0.000000
vn 0.000001 -1.000000 -0.000001
vn 0.000001 -1.000000 -0.000001
vn 0.000000 -1.000000 0.000000
vn 0.000001 -1.000000 -0.000001
vn 0.000001 -1.000000 -0.000001
vn 0.000000 -1.000000 0.000000
vn 0.000000 -1.000000 0.000000
vn 0.000000 -1.000000 0.000000
vn 0.000000 -1.000000 0.000000
vn -0.000001 -1.000000 0.000001
vn -0.000001 -1.000000 0.000001
vn 0.000000 -1.000000 0.000000
vn -0.000001 -1.000000 0.000001
vn -0.000001 -1.000000 0.000001
vn 0.000000 -1.000000 0.000000
vn 0.000003 -1.000000 -0.000002
vn 0.000003 -1.000000 -0.000002
vn 0.000000 -1.000000 0.000000
vn 0.000000 -1.000000 0.000000
vn 0.000000 -1.000000 0.000000
vn 0.000000 -1.000000 0.000000
vn 0.000000 -1.000000 0.000000
vn 0.000000 -1.000000 0.000000
vn 0.000000 -1.000000 0.000000
vn 0.000000 -1.000000 0.000000
vn 0.000000 -1.000000 0.000000
vn 0.000000 -1.000000 0.000000
vn 0.000000 -1.000000 0.000000
vn 0.000000 -1.000000 0.000000
vn 0.000000 -1.000000 0.000000
vn 0.000001 -1.000000 -0.000001
vn 0.000001 -1.000000 -0.000001
vn 0.000000 -1.000000 0.000000
vn -0.000003 -1.000000 0.000002
vn -0.000003 -1.000000 0.000002
vn 0.000000 -1.000000 0.000000
vn 0.000004 -1.000000 -0.000003
vn 0.000004 -1.000000 -0.000003
vn 0.000000 -1.000000 0.000000
vn 0.000001 -1.000000 -0.000001
s off
g polySurface216polySurface8
usemtl lambert4SG
f 1/1/1 21/2/2 2/3/3
f 2/3/4 21/2/5 22/4/6
f 2/3/7 22/4/8 3/5/9
f 3/5/10 22/4/11 23/6/12
f 3/5/13 23/6/14 4/7/15
f 4/7/16 23/6/17 24/8/18
f 4/7/19 24/8/20 5/9/21
f 5/9/22 24/8/23 25/10/24
f 5/9/25 25/10/26 6/11/27
f 6/11/28 25/10/29 26/12/30
f 6/11/31 26/12/32 7/13/33
f 7/13/34 26/12/35 27/14/36
f 7/13/37 27/14/38 8/15/39
f 8/15/40 27/14/41 28/16/42
f 8/15/43 28/16/44 9/17/45
f 9/17/46 28/16/47 29/18/48
f 9/17/49 29/18/50 10/19/51
f 10/19/52 29/18/53 30/20/54
f 10/19/55 30/20/56 11/21/57
f 11/21/58 30/20/59 31/22/60
f 11/21/61 31/22/62 12/23/63
f 12/23/64 31/22/65 32/24/66
f 12/23/67 32/24/68 13/25/69
f 13/25/70 32/24/71 33/26/72
f 13/25/73 33/26/74 14/27/75
f 14/27/76 33/26/77 34/28/78
f 14/27/79 34/28/80 15/29/81
f 15/29/82 34/28/83 35/30/84
f 15/29/85 35/30/86 16/31/87
f 16/31/88 35/30/89 36/32/90
f 16/31/91 36/32/92 17/33/93
f 17/33/94 36/32/95 37/34/96
f 17/33/97 37/34/98 18/35/99
f 18/35/100 37/34/101 38/36/102
f 18/35/103 38/36/104 19/37/105
f 19/37/106 38/36/107 39/38/108
f 19/37/109 39/38/110 20/39/111
f 20/39/112 39/38/113 40/40/114
f 20/39/115 40/40/116 1/41/117
f 1/41/118 40/40/119 21/42/120
f 2/43/121 41/44/122 1/45/123
f 3/46/124 41/44/125 2/43/126
f 4/47/127 41/44/128 3/46/129
f 5/48/130 41/44/131 4/47/132
f 6/49/133 41/44/134 5/48/135
f 7/50/136 41/44/137 6/49/138
f 8/51/139 41/44/140 7/50/141
f 9/52/142 41/44/143 8/51/144
f 10/53/145 41/44/146 9/52/147
f 11/54/148 41/44/149 10/53/150
f 12/55/151 41/44/152 11/54/153
f 13/56/154 41/44/155 12/55/156
f 14/57/157 41/44/158 13/56/159
f 15/58/160 41/44/161 14/57/162
f 16/59/163 41/44/164 15/58/165
f 17/60/166 41/44/167 16/59/168
f 18/61/169 41/44/170 17/60/171
f 19/62/172 41/44/173 18/61/174
f 20/63/175 41/44/176 19/62/177
f 1/45/178 41/44/179 20/63/180
f 21/64/181 42/65/182 22/66/183
f 22/66/184 42/65/185 23/67/186
f 23/67/187 42/65/188 24/68/189
f 24/68/190 42/65/191 25/69/192
f 25/69/193 42/65/194 26/70/195
f 26/70/196 42/65/197 27/71/198
f 27/71/199 42/65/200 28/72/201
f 28/72/202 42/65/203 29/73/204
f 29/73/205 42/65/206 30/74/207
f 30/74/208 42/65/209 31/75/210
f 31/75/211 42/65/212 32/76/213
f 32/76/214 42/65/215 33/77/216
f 33/77/217 42/65/218 34/78/219
f 34/78/220 42/65/221 35/79/222
f 35/79/223 42/65/224 36/80/225
f 36/80/226 42/65/227 37/81/228
f 37/81/229 42/65/230 38/82/231
f 38/82/232 42/65/233 39/83/234
f 39/83/235 42/65/236 40/84/237
f 40/84/238 42/65/239 21/64/240
