# This file uses centimeters as units for non-parametric coordinates.

mtllib Vidrio.mtl
g default
v -1.789980 1.135071 -1.057380
v -0.743411 1.135071 -1.057380
v -0.743411 1.184335 -1.057380
v -0.743411 1.388267 -1.057380
v -0.752913 1.493891 -1.057380
v -0.780538 1.594545 -1.057380
v -0.825828 1.690179 -1.057380
v -0.887661 1.778439 -1.057380
v -0.964509 1.857151 -1.057380
v -1.054489 1.924378 -1.057380
v -1.155389 1.978464 -1.057380
v -1.264717 2.018077 -1.057380
v -1.379779 2.042242 -1.057380
v -1.500529 2.050555 -1.057380
v -1.789980 2.050555 -1.057380
v -1.789980 1.992589 -1.057380
v -1.789980 1.183332 -1.057380
v -0.682878 1.503595 -2.430061
v -0.682878 1.503595 -1.144751
v -0.672721 1.390697 -1.144751
v -0.672721 1.390697 -2.430061
v -0.713107 1.613712 -2.430061
v -0.713107 1.613712 -1.144751
v -0.762643 1.718339 -2.430061
v -0.762643 1.718339 -1.144751
v -0.830288 1.814898 -2.430061
v -0.830288 1.814898 -1.144751
v -0.914369 1.901012 -2.430061
v -0.914369 1.901012 -1.144751
v -1.012811 1.974559 -2.430061
v -1.012811 1.974559 -1.144751
v -1.123195 2.033730 -2.430061
v -1.123195 2.033730 -1.144751
v -1.242807 2.077068 -2.430061
v -1.242807 2.077067 -1.144751
v -1.368687 2.103504 -2.430061
v -1.368687 2.103504 -1.144751
v -1.497755 2.112390 -2.430061
v -1.497755 2.112390 -1.144751
v -0.672721 1.135005 -2.430061
v -0.672721 1.135004 -1.144751
v -0.672721 1.135005 -3.817831
v -0.672721 1.390697 -3.817831
v -0.672721 1.390697 -2.533444
v -0.672721 1.135005 -2.533444
v -1.497755 2.112390 -3.817831
v -1.497755 2.112390 -2.533444
v -1.368687 2.103504 -2.533444
v -1.368687 2.103504 -3.817831
v -1.242807 2.077068 -2.533444
v -1.242807 2.077068 -3.817831
v -1.123195 2.033730 -2.533444
v -1.123195 2.033731 -3.817831
v -1.012811 1.974559 -2.533444
v -1.012811 1.974559 -3.817831
v -0.914369 1.901012 -2.533444
v -0.914369 1.901012 -3.817831
v -0.830288 1.814898 -2.533444
v -0.830288 1.814898 -3.817831
v -0.762643 1.718339 -2.533444
v -0.762643 1.718339 -3.817831
v -0.713107 1.613712 -2.533444
v -0.713107 1.613714 -3.817831
v -0.682878 1.503595 -2.533444
v -0.682878 1.503595 -3.817831
v -0.743411 1.135071 -3.930006
v -1.789980 1.135071 -3.930006
v -1.789980 1.183332 -3.930006
v -1.789980 1.992589 -3.930006
v -1.789980 2.050555 -3.930006
v -1.500529 2.050555 -3.930006
v -0.752913 1.493891 -3.930006
v -0.743411 1.388267 -3.930006
v -0.743411 1.184336 -3.930006
v -1.379779 2.042242 -3.930006
v -1.264717 2.018077 -3.930006
v -1.155389 1.978464 -3.930006
v -1.054489 1.924378 -3.930006
v -0.964509 1.857151 -3.930006
v -0.887661 1.778439 -3.930006
v -0.825828 1.690179 -3.930006
v -0.780538 1.594545 -3.930006
v -1.853569 1.128016 -2.533444
v -1.853569 2.046595 -2.533444
v -1.853569 2.046595 -3.817831
v -1.853569 1.128016 -3.817831
v -1.878650 1.128016 -1.144751
v -1.878650 2.046595 -1.144751
v -1.878650 2.046595 -2.430061
v -1.878650 1.128016 -2.430061
vt 0.264730 0.602917
vt 0.264730 0.999782
vt 0.250496 0.999782
vt 0.191573 0.999782
vt 0.161055 0.996179
vt 0.131973 0.985703
vt 0.104342 0.968531
vt 0.078841 0.945084
vt 0.056098 0.915941
vt 0.036674 0.881819
vt 0.021047 0.843558
vt 0.009601 0.802100
vt 0.002620 0.758467
vt 0.000218 0.712679
vt 0.000218 0.602917
vt 0.016966 0.602917
vt 0.250535 0.602567
vt 0.000218 0.442157
vt 0.296341 0.442157
vt 0.296341 0.491261
vt 0.000218 0.491261
vt 0.000218 0.393053
vt 0.296341 0.393053
vt 0.000218 0.343948
vt 0.296341 0.343948
vt 0.000218 0.294844
vt 0.296341 0.294844
vt 0.000218 0.245740
vt 0.296341 0.245740
vt 0.000218 0.196635
vt 0.296341 0.196635
vt 0.000218 0.147531
vt 0.296341 0.147531
vt 0.000218 0.098426
vt 0.296341 0.098426
vt 0.000218 0.049322
vt 0.296341 0.049322
vt 0.000218 0.000218
vt 0.296341 0.000218
vt 0.000218 0.602130
vt 0.296341 0.602131
vt 1.000000 0.006728
vt 1.000000 0.252898
vt 1.000000 0.252898
vt 0.592687 0.000218
vt 0.296776 0.111087
vt 0.296776 0.000218
vt 0.305498 0.947717
vt 0.305498 0.947717
vt 0.414146 0.939162
vt 0.414146 0.939162
vt 0.520109 0.913710
vt 0.520109 0.913710
vt 0.620798 0.871986
vt 0.620798 0.871986
vt 0.713717 0.815019
vt 0.713717 0.815019
vt 0.796583 0.744210
vt 0.796583 0.744210
vt 0.867362 0.661303
vt 0.867362 0.661303
vt 0.924305 0.568340
vt 0.924305 0.568340
vt 0.966004 0.467609
vt 0.966004 0.467610
vt 0.991449 0.361592
vt 0.991449 0.361592
vt 0.970017 0.244797
vt 0.551515 0.244797
vt 0.551515 0.268990
vt 0.265166 0.627701
vt 0.265166 0.602567
vt 0.338339 0.602567
vt 0.551515 0.674659
vt 0.527337 0.843938
vt 0.529739 0.889737
vt 0.529739 0.978163
vt 0.970017 0.269493
vt 0.368864 0.606171
vt 0.397953 0.616649
vt 0.425591 0.633825
vt 0.452839 0.971911
vt 0.786827 0.690217
vt 1.084671 0.340078
vt 0.528883 0.651313
vt 0.744194 0.468146
vt 0.917435 0.262761
vt 0.486088 0.656880
vt 0.713219 0.478726
vt 0.851749 0.291221
vt 0.966218 0.424669
vt 0.715546 0.699549
vt 0.805275 0.667578
vt 0.527802 0.666413
vt 0.764074 0.494752
vt 0.935734 0.258481
vt 0.937060 0.523065
vt 0.005980 0.000000
vt 0.005980 0.884372
vt 0.005980 0.884372
vt 0.005980 0.000000
vt 0.593123 0.000218
vt 0.858591 0.000218
vt 0.858591 0.444510
vt 0.593123 0.444510
vn 0.000000 0.000000 1.000000
vn 0.000000 0.000000 1.000000
vn 0.000000 0.000000 1.000000
vn 0.000000 0.000000 1.000000
vn 0.000000 0.000000 1.000000
vn 0.000000 0.000000 1.000000
vn 0.000000 0.000000 1.000000
vn 0.000000 0.000000 1.000000
vn 0.000000 0.000000 1.000000
vn 0.000000 0.000000 1.000000
vn 0.000000 0.000000 1.000000
vn 0.000000 0.000000 1.000000
vn 0.000000 0.000000 1.000000
vn 0.000000 0.000000 1.000000
vn 0.000000 0.000000 1.000000
vn 0.000000 0.000000 1.000000
vn 0.000000 0.000000 1.000000
vn 0.000000 0.000000 1.000000
vn 0.000000 0.000000 1.000000
vn 0.000000 0.000000 1.000000
vn 0.000000 0.000000 1.000000
vn 0.000000 0.000000 1.000000
vn -1.000000 0.000000 0.000000
vn 0.000000 0.000000 1.000000
vn 0.000000 0.000000 1.000000
vn 0.000000 0.000000 1.000000
vn 0.000000 0.000000 1.000000
vn 0.000000 0.000000 1.000000
vn 0.000000 0.000000 1.000000
vn 0.000000 0.000000 1.000000
vn 0.000000 0.000000 1.000000
vn 0.000000 0.000000 1.000000
vn 0.000000 0.000000 1.000000
vn 0.000000 0.000000 1.000000
vn 0.000000 0.000000 1.000000
vn 0.000000 0.000000 1.000000
vn 0.000000 0.000000 1.000000
vn 0.000000 0.000000 1.000000
vn 0.000000 0.000000 1.000000
vn 0.000000 0.000000 1.000000
vn 0.000000 0.000000 1.000000
vn 0.000000 0.000000 1.000000
vn 0.000000 0.000000 1.000000
vn 0.000000 0.000000 1.000000
vn 0.000000 0.000000 1.000000
vn 0.984008 0.178126 0.000000
vn 0.984008 0.178126 0.000000
vn 0.998991 0.044918 0.000000
vn 0.984008 0.178126 0.000000
vn 0.998991 0.044918 0.000000
vn 0.998991 0.044918 0.000000
vn 0.937432 0.348168 0.000000
vn 0.937432 0.348168 0.000000
vn 0.984008 0.178126 0.000000
vn 0.937432 0.348168 0.000000
vn 0.984008 0.178126 0.000000
vn 0.984008 0.178126 0.000000
vn 0.864092 0.503333 0.000000
vn 0.864092 0.503333 0.000000
vn 0.937432 0.348168 0.000000
vn 0.864092 0.503333 0.000000
vn 0.937432 0.348168 0.000000
vn 0.937432 0.348168 0.000000
vn 0.769250 0.638948 0.000000
vn 0.769250 0.638948 0.000000
vn 0.864092 0.503333 0.000000
vn 0.769250 0.638948 0.000000
vn 0.864092 0.503333 0.000000
vn 0.864092 0.503333 0.000000
vn 0.658397 0.752671 0.000000
vn 0.658397 0.752671 0.000000
vn 0.769250 0.638948 0.000000
vn 0.658397 0.752671 0.000000
vn 0.769250 0.638948 0.000000
vn 0.769250 0.638948 0.000000
vn 0.536399 0.843964 0.000000
vn 0.536399 0.843964 0.000000
vn 0.658397 0.752671 0.000000
vn 0.536399 0.843964 0.000000
vn 0.658397 0.752671 0.000000
vn 0.658397 0.752671 0.000000
vn 0.407110 0.913379 0.000000
vn 0.407110 0.913379 0.000000
vn 0.536399 0.843964 0.000000
vn 0.407110 0.913379 0.000000
vn 0.536399 0.843964 0.000000
vn 0.536399 0.843964 0.000000
vn 0.273369 0.961909 0.000000
vn 0.273369 0.961909 0.000000
vn 0.407110 0.913379 0.000000
vn 0.273369 0.961909 0.000000
vn 0.407110 0.913379 0.000000
vn 0.407110 0.913379 0.000000
vn 0.137204 0.990543 0.000000
vn 0.137204 0.990543 0.000000
vn 0.273369 0.961909 0.000000
vn 0.137204 0.990543 0.000000
vn 0.273369 0.961909 0.000000
vn 0.273369 0.961909 0.000000
vn 0.068718 0.997636 0.000000
vn 0.068718 0.997636 0.000000
vn 0.137204 0.990543 0.000000
vn 0.068718 0.997636 0.000000
vn 0.137204 0.990543 0.000000
vn 0.137204 0.990543 0.000000
vn 1.000000 0.000000 0.000000
vn 0.998991 0.044918 0.000000
vn 0.998991 0.044918 0.000000
vn 1.000000 0.000000 0.000000
vn 0.998991 0.044918 0.000000
vn 1.000000 0.000000 0.000000
vn 1.000000 0.000000 0.000000
vn 0.998991 0.044918 0.000000
vn 0.998991 0.044918 0.000000
vn 1.000000 0.000000 0.000000
vn 0.998991 0.044918 0.000000
vn 1.000000 0.000000 0.000000
vn 0.068718 0.997636 0.000000
vn 0.068718 0.997636 0.000000
vn 0.137204 0.990543 0.000000
vn 0.068718 0.997636 0.000000
vn 0.137204 0.990543 0.000000
vn 0.137204 0.990543 0.000000
vn 0.137204 0.990543 0.000000
vn 0.137204 0.990543 0.000000
vn 0.273369 0.961909 0.000000
vn 0.137204 0.990543 0.000000
vn 0.273369 0.961909 0.000000
vn 0.273369 0.961909 0.000000
vn 0.273369 0.961909 0.000000
vn 0.273369 0.961909 0.000000
vn 0.407110 0.913379 0.000000
vn 0.273369 0.961909 0.000000
vn 0.407110 0.913379 0.000000
vn 0.407110 0.913379 0.000000
vn 0.407110 0.913379 0.000000
vn 0.407110 0.913379 0.000000
vn 0.536399 0.843964 0.000000
vn 0.407110 0.913379 0.000000
vn 0.536399 0.843964 0.000000
vn 0.536399 0.843964 0.000000
vn 0.536399 0.843964 0.000000
vn 0.536399 0.843964 0.000000
vn 0.658397 0.752671 0.000000
vn 0.536399 0.843964 0.000000
vn 0.658397 0.752671 0.000000
vn 0.658397 0.752671 0.000000
vn 0.658397 0.752671 0.000000
vn 0.658397 0.752671 0.000000
vn 0.769250 0.638948 0.000000
vn 0.658397 0.752671 0.000000
vn 0.769250 0.638948 0.000000
vn 0.769250 0.638948 0.000000
vn 0.769250 0.638948 0.000000
vn 0.769250 0.638948 0.000000
vn 0.864092 0.503333 0.000000
vn 0.769250 0.638948 0.000000
vn 0.864092 0.503333 0.000000
vn 0.864092 0.503333 0.000000
vn 0.864092 0.503333 0.000000
vn 0.864092 0.503333 0.000000
vn 0.937432 0.348168 0.000000
vn 0.864092 0.503333 0.000000
vn 0.937432 0.348168 0.000000
vn 0.937432 0.348168 0.000000
vn 0.937432 0.348168 0.000000
vn 0.937432 0.348168 0.000000
vn 0.984008 0.178126 0.000000
vn 0.937432 0.348168 0.000000
vn 0.984008 0.178126 0.000000
vn 0.984008 0.178126 0.000000
vn 0.984008 0.178126 0.000000
vn 0.984008 0.178126 0.000000
vn 0.998991 0.044918 0.000000
vn 0.984008 0.178126 0.000000
vn 0.998991 0.044918 0.000000
vn 0.998991 0.044918 0.000000
vn 0.000000 0.000000 -1.000000
vn 0.000000 0.000000 -1.000000
vn 0.000000 0.000000 -1.000000
vn 0.000000 0.000000 -1.000000
vn 0.000000 0.000000 -1.000000
vn 0.000000 0.000000 -1.000000
vn 0.000000 0.000000 -1.000000
vn 0.000000 0.000000 -1.000000
vn 0.000000 0.000000 -1.000000
vn 0.000000 0.000000 -1.000000
vn 0.000000 0.000000 -1.000000
vn 0.000000 0.000000 -1.000000
vn 0.000000 0.000000 -1.000000
vn 0.000000 0.000000 -1.000000
vn 0.000000 0.000000 -1.000000
vn 0.000000 0.000000 -1.000000
vn 0.000000 0.000000 -1.000000
vn 0.000000 0.000000 -1.000000
vn 0.000000 0.000000 -1.000000
vn 0.000000 0.000000 -1.000000
vn 0.000000 0.000000 -1.000000
vn 0.000000 0.000000 -1.000000
vn 0.000000 0.000000 -1.000000
vn 0.000000 0.000000 -1.000000
vn 0.000000 0.000000 -1.000000
vn 0.000000 0.000000 -1.000000
vn 0.000000 0.000000 -1.000000
vn 0.000000 0.000000 -1.000000
vn 0.000000 0.000000 -1.000000
vn 0.000000 0.000000 -1.000000
vn 0.000000 0.000000 -1.000000
vn 0.000000 0.000000 -1.000000
vn 0.000000 0.000000 -1.000000
vn 0.000000 0.000000 -1.000000
vn 0.000000 0.000000 -1.000000
vn 0.000000 0.000000 -1.000000
vn 0.000000 0.000000 -1.000000
vn 0.000000 0.000000 -1.000000
vn 0.000000 0.000000 -1.000000
vn 0.000000 0.000000 -1.000000
vn 0.000000 0.000000 -1.000000
vn 0.000000 0.000000 -1.000000
vn 0.000000 0.000000 -1.000000
vn 0.000000 0.000000 -1.000000
vn 0.000000 0.000000 -1.000000
vn -1.000000 0.000000 0.000000
vn -1.000000 0.000000 0.000000
vn -1.000000 0.000000 0.000000
vn -1.000000 0.000000 0.000000
vn -1.000000 0.000000 0.000000
vn -1.000000 0.000000 0.000000
vn -1.000000 0.000000 0.000000
vn -1.000000 0.000000 0.000000
vn -1.000000 0.000000 0.000000
vn -1.000000 0.000000 0.000000
vn -1.000000 0.000000 0.000000
vn -1.000000 0.000000 0.000000
s off
g polySurface31
usemtl vitrinaVidrio_Vitrina_aiStandardSurface3SG2
f 1/1/1 2/2/2 3/3/3
f 3/3/4 4/4/5 5/5/6
usemtl vitrinaVidrio_Vitrina_lambert2SG4
f 5/5/7 6/6/8 7/7/9
usemtl vitrinaVidrio_Vitrina_aiStandardSurface3SG2
f 7/7/10 8/8/11 9/9/12
f 9/9/13 10/10/14 11/11/15
f 11/11/16 12/12/17 13/13/18
f 13/13/19 14/14/20 15/15/21
usemtl vitrinaVidrio_Vitrina_palmLeafy4LeafShaderSG2
f 16/16/22 17/17/23 1/1/24
usemtl vitrinaVidrio_Vitrina_aiStandardSurface3SG2
f 13/13/25 15/15/26 16/16/27
f 9/9/28 11/11/29 13/13/30
f 5/5/31 7/7/32 9/9/33
f 1/1/34 3/3/35 5/5/36
f 13/13/37 16/16/38 1/1/39
f 5/5/40 9/9/41 13/13/42
f 5/5/43 13/13/44 1/1/45
f 18/18/46 19/19/47 20/20/48
f 18/18/49 20/20/50 21/21/51
f 22/22/52 23/23/53 19/19/54
f 22/22/55 19/19/56 18/18/57
f 24/24/58 25/25/59 23/23/60
f 24/24/61 23/23/62 22/22/63
f 26/26/64 27/27/65 25/25/66
f 26/26/67 25/25/68 24/24/69
f 28/28/70 29/29/71 27/27/72
f 28/28/73 27/27/74 26/26/75
f 30/30/76 31/31/77 29/29/78
f 30/30/79 29/29/80 28/28/81
f 32/32/82 33/33/83 31/31/84
f 32/32/85 31/31/86 30/30/87
f 34/34/88 35/35/89 33/33/90
f 34/34/91 33/33/92 32/32/93
f 36/36/94 37/37/95 35/35/96
f 36/36/97 35/35/98 34/34/99
f 38/38/100 39/39/101 37/37/102
f 38/38/103 37/37/104 36/36/105
f 40/40/106 21/21/107 20/20/108
f 40/40/109 20/20/110 41/41/111
f 42/42/112 43/43/113 44/44/114
f 42/45/115 44/46/116 45/47/117
f 46/48/118 47/49/119 48/50/120
f 46/48/121 48/50/122 49/51/123
f 49/51/124 48/50/125 50/52/126
f 49/51/127 50/52/128 51/53/129
f 51/53/130 50/52/131 52/54/132
f 51/53/133 52/54/134 53/55/135
f 53/55/136 52/54/137 54/56/138
f 53/55/139 54/56/140 55/57/141
f 55/57/142 54/56/143 56/58/144
f 55/57/145 56/58/146 57/59/147
f 57/59/148 56/58/149 58/60/150
f 57/59/151 58/60/152 59/61/153
f 59/61/154 58/60/155 60/62/156
f 59/61/157 60/62/158 61/63/159
f 61/63/160 60/62/161 62/64/162
f 61/63/163 62/64/164 63/65/165
f 63/65/166 62/64/167 64/66/168
f 63/65/169 64/66/170 65/67/171
f 65/67/172 64/66/173 44/44/174
f 65/67/175 44/44/176 43/43/177
f 66/68/178 67/69/179 68/70/180
f 69/71/181 70/72/182 71/73/183
f 66/68/184 68/70/185 69/74/186
f 72/75/187 73/76/188 74/77/189
f 74/78/190 66/68/191 69/74/192
f 69/71/193 71/73/194 75/79/195
f 75/79/196 76/80/197 77/81/198
f 77/82/199 78/83/200 79/84/201
f 79/85/202 80/86/203 81/87/204
f 81/88/205 82/89/206 72/90/207
f 72/91/208 74/78/209 69/74/210
f 69/74/211 75/92/212 77/93/213
f 77/94/214 79/95/215 81/96/216
f 81/97/217 72/91/218 69/74/219
f 69/74/220 77/93/221 81/97/222
f 83/98/223 84/99/224 85/100/225
f 83/98/226 85/100/227 86/101/228
f 87/102/229 88/103/230 89/104/231
f 87/102/232 89/104/233 90/105/234
